<?xml version="1.0" standalone="no"?>
<!DOCTYPE svg PUBLIC "-//W3C//DTD SVG 1.1//EN" "http://www.w3.org/Graphics/SVG/1.1/DTD/svg11.dtd" >
<svg xmlns="http://www.w3.org/2000/svg" xmlns:xlink="http://www.w3.org/1999/xlink" version="1.1">
<metadata>
Created by FontForge 20170731 at Tue May  2 19:25:52 2017
 By Aleksey,,,
Copyright (c) 2017 by  Marco Ballare`. All rights reserved.
</metadata>
<defs>
<font id="Bludhaven_Regular" horiz-adv-x="741" >
  <font-face 
    font-family="Bludhaven"
    font-weight="500"
    font-stretch="normal"
    units-per-em="1024"
    panose-1="2 0 6 4 9 0 0 2 0 3"
    ascent="819"
    descent="-205"
    x-height="499"
    cap-height="750"
    bbox="-101 -260 1191 1045"
    underline-thickness="50"
    underline-position="-200"
    unicode-range="U+000D-F6C9"
  />
<missing-glyph horiz-adv-x="650" 
d="M131 716h245l-209 -658h-36v658zM487 58h-245l209 658h36v-658z" />
    <glyph glyph-name=".notdef" horiz-adv-x="650" 
d="M131 716h245l-209 -658h-36v658zM487 58h-245l209 658h36v-658z" />
    <glyph glyph-name=".null" horiz-adv-x="0" 
 />
    <glyph glyph-name="nonmarkingreturn" unicode="&#xd;" horiz-adv-x="275" 
 />
    <glyph glyph-name="NULL" horiz-adv-x="0" 
 />
    <glyph glyph-name="NULL" horiz-adv-x="0" 
 />
    <glyph glyph-name="space" unicode=" " horiz-adv-x="275" 
 />
    <glyph glyph-name="exclam" unicode="!" horiz-adv-x="237" 
d="M119 -5q-25 0 -41 15.5t-16 40.5t16 41t41 16t40.5 -16t15.5 -41t-15.5 -40.5t-40.5 -15.5zM119 755q33 0 43 -28.5t6 -73.5l-42 -443h-15l-41 443q-5 45 5 73.5t44 28.5z" />
    <glyph glyph-name="quotedbl" unicode="&#x22;" horiz-adv-x="408" 
d="M159 850q19 0 23.5 -12.5t0.5 -32.5l-28 -145h-10l-28 145q-4 20 0.5 32.5t23.5 12.5h18zM299 850q19 0 23.5 -12.5t0.5 -32.5l-28 -145h-10l-28 145q-4 20 0.5 32.5t23.5 12.5h18z" />
    <glyph glyph-name="numbersign" unicode="#" horiz-adv-x="568" 
d="M436 669l-26 -178h138l-8 -62h-140l-29 -198h131l-9 -62h-131l-25 -169h-27l25 169h-153l-25 -169h-27l25 169h-137l8 62h138l29 198h-134l8 62h135l26 178h27l-26 -178h154l26 178h27zM192 231h153l29 198h-154z" />
    <glyph glyph-name="dollar" unicode="$" horiz-adv-x="570" 
d="M340 823v-74q51 -12 91 -38q20 -14 33.5 -14t15.5 8q1 5 2 9t2 7q1 4 1 6h1q1 0 1.5 0.5t1.5 0.5t1 0.5t1 0.5l1 1v-88v-78l-1 1q-1 0 -2 1h-3q-1 0 -1 1q0 2 -1 5q-1 2 -2 4.5t-2 6.5q-6 18 -19.5 39.5t-32 41t-41.5 36.5t-47 26v-305q94 -37 143.5 -99t49.5 -129
q0 -41 -14 -76t-39.5 -61.5t-61 -43.5t-78.5 -22v-67h-28v65h-6q-12 0 -24 1t-24 3v-69h-28v76q-52 15 -96 47q-29 22 -49.5 26t-22.5 -6q-2 -6 -2.5 -11t-1.5 -9t-1 -7q-1 -1 -3.5 -2t-4.5 -2v111v78l4 -2q1 0 1 -0.5t1 -0.5h1q6 -21 18.5 -46t29.5 -49t37 -44.5t42 -33.5
q11 -6 22.5 -11t23.5 -9v319q-80 42 -122 99.5t-42 118.5q0 78 45.5 130t118.5 63v67h28v-65h6q24 0 47 -3v68zM316 733h-2h3h-1zM258 18q12 -2 24 -3.5t24 -1.5h6v296q-8 4 -16 7.5t-17 6.5l-18 9zM338 15q53 11 85.5 50.5t32.5 97.5q0 33 -30.5 68t-87.5 65v-281zM259 454
q22 -12 52 -25v302q-25 5 -47 5h-6v-282h1zM231 732q-42 -11 -66.5 -47.5t-24.5 -88.5q0 -31 23 -63.5t68 -61.5v261z" />
    <glyph glyph-name="percent" unicode="%" horiz-adv-x="853" 
d="M62 526q0 82 41 146.5t104 64.5q62 0 104 -64.5t42 -146.5q0 -84 -42 -148t-104 -64q-63 0 -104 64t-41 148zM128 526q0 -96 18 -144.5t61 -48.5t61.5 48.5t18.5 144.5q0 95 -18.5 143.5t-61.5 48.5t-61 -48.5t-18 -143.5zM630 737l-370 -770h-34l370 770h34zM505 177
q0 83 41 147t104 64q62 0 104 -64t42 -147q0 -82 -42 -146t-104 -64q-63 0 -104 64t-41 146zM571 177q0 -96 18 -144.5t61 -48.5t61.5 48.5t18.5 144.5t-18.5 145t-61.5 49t-61 -49t-18 -145z" />
    <glyph glyph-name="ampersand" unicode="&#x26;" horiz-adv-x="841" 
d="M324 467q5 -7 10.5 -13.5t11.5 -13.5l197 -230q50 57 92.5 130.5t74.5 161.5h19q-33 -91 -76 -170t-93 -142l48 -56q29 -35 64.5 -56.5t61.5 -21.5q34 0 58 27t29 69l15 -4q-5 -35 -17 -63.5t-30 -49.5t-40.5 -32.5t-47.5 -11.5q-17 0 -37.5 7.5t-42 21t-43 32
t-40.5 40.5l-31 36q-63 -66 -130 -102t-131 -36q-45 0 -82.5 15.5t-64.5 43t-42 66t-15 84.5q0 39 14.5 76t41 68.5t62.5 56t80 38.5q-42 51 -67.5 90t-25.5 70q0 35 12.5 64.5t35 51t53.5 33.5t68 12t68.5 -11t54.5 -30.5t35.5 -47t12.5 -59.5q0 -21 -12 -42.5t-33.5 -41
t-51.5 -36t-66 -27.5v3zM316 476q47 17 76 56t29 86q0 55 -29.5 90t-76.5 35q-43 0 -70.5 -27.5t-27.5 -71.5q0 -32 27 -73.5t72 -94.5zM276 400q-8 9 -15.5 18t-15.5 17q-27 -12 -49 -32.5t-37.5 -48t-24.5 -60t-9 -68.5q0 -35 12.5 -64t34.5 -50t52.5 -33t66.5 -12
q48 0 97.5 22t97.5 64z" />
    <glyph glyph-name="quotesingle" unicode="'" horiz-adv-x="293" 
d="M159 750q19 0 23.5 -12.5t0.5 -32.5l-28 -145h-10l-28 145q-4 20 0.5 32.5t23.5 12.5h18z" />
    <glyph glyph-name="parenleft" unicode="(" horiz-adv-x="513" 
d="M325 751q-43 -29 -79 -79t-62.5 -113.5t-41 -136.5t-14.5 -149q0 -74 14 -146t39.5 -135t60 -114.5t76.5 -82.5l-5 -9q-53 40 -97 96t-76 120.5t-50 134t-18 136.5q0 70 18.5 141t51.5 135.5t78.5 119t99.5 91.5z" />
    <glyph glyph-name="parenright" unicode=")" horiz-adv-x="513" 
d="M30 760q54 -35 99.5 -89t78.5 -118.5t51.5 -136t18.5 -143.5q0 -73 -18 -145.5t-50 -137t-76 -117.5t-97 -87l-5 9q42 27 76.5 76t60 112t39.5 137.5t14 152.5q0 77 -14.5 150.5t-41 137t-62.5 113t-79 77.5z" />
    <glyph glyph-name="asterisk" unicode="*" horiz-adv-x="292" 
d="M34 669q-13 5 -17.5 15t2.5 22q7 11 17.5 12.5t21.5 -7.5l89 -76l-21 115q-3 14 3.5 22.5t20.5 8.5t20.5 -8.5t3.5 -22.5l-21 -115l89 76q11 9 21.5 7.5t17.5 -12.5q7 -12 2.5 -22t-17.5 -15l-109 -39l109 -39q13 -5 17.5 -15t-2.5 -22q-7 -11 -17.5 -12.5t-21.5 7.5
l-89 76l21 -115q3 -14 -3.5 -22.5t-20.5 -8.5t-20.5 8.5t-3.5 22.5l21 115l-89 -76q-11 -9 -21.5 -7.5t-17.5 12.5q-7 12 -2.5 22t17.5 15l109 39z" />
    <glyph glyph-name="plus" unicode="+" horiz-adv-x="640" 
d="M351 470v-192h190v-56h-190v-192h-62v192h-189v56h189v192h62z" />
    <glyph glyph-name="comma" unicode="," horiz-adv-x="263" 
d="M162 14q-14 -19 -37 -19q-26 0 -43 17t-17 43t17 43t43 17q30 0 49 -28t19 -73q0 -57 -35.5 -92.5t-92.5 -35.5v16q44 0 71.5 24.5t27.5 62.5v13t-1 12h-1z" />
    <glyph glyph-name="hyphen" unicode="-" horiz-adv-x="450" 
d="M80 310h291v-65h-291v65z" />
    <glyph glyph-name="period" unicode="." horiz-adv-x="195" 
d="M125 -5q-25 0 -40.5 15.5t-15.5 40.5t15.5 41t40.5 16t40.5 -16t15.5 -41t-15.5 -40.5t-40.5 -15.5z" />
    <glyph glyph-name="slash" unicode="/" horiz-adv-x="387" 
d="M357 770l-282 -850h-46l282 850h46z" />
    <glyph glyph-name="zero" unicode="0" horiz-adv-x="539" 
d="M273 15q33 0 60.5 17.5t47.5 49.5t31 76t11 97t-11 97.5t-31 76t-47.5 49t-60.5 17.5t-60.5 -17.5t-47 -49t-30.5 -76t-11 -97.5t11 -97t30.5 -76t47 -49.5t60.5 -17.5zM50 255q0 57 16.5 105.5t46 83t70.5 54t90 19.5t90 -19.5t71 -54t46.5 -83t16.5 -105.5t-16.5 -105
t-46.5 -82.5t-71 -54t-90 -19.5t-90 19.5t-70.5 54t-46 82.5t-16.5 105z" />
    <glyph glyph-name="one" unicode="1" horiz-adv-x="306" 
d="M193 35q0 -14 17 -18.5t44 -4.5h13v-2q0 -1 0.5 -2t0.5 -2q0 -2 0.5 -3t0.5 -2t1 -1h-233v1q0 1 0.5 2t0.5 3l2 6h13q26 0 43 4.5t17 18.5v430q0 14 -17 18.5t-43 4.5h-13l-2 6q0 2 -0.5 2.5t-0.5 1.5v2h233q-1 -1 -1 -2t-0.5 -1.5t-0.5 -2.5t-0.5 -2.5t-0.5 -1.5v-2h-13
q-27 0 -44 -4.5t-17 -18.5v-430v0z" />
    <glyph glyph-name="two" unicode="2" horiz-adv-x="559" 
d="M45 294q9 47 31.5 87t53.5 68.5t70 44.5t81 16q39 0 72 -12.5t57 -34t37.5 -52t13.5 -66.5q0 -33 -22 -67.5t-61 -69.5t-91.5 -69.5t-113.5 -67.5h140q52 0 86.5 2.5t56 7t32.5 11t16 14.5l8 13q3 -1 5 -2t5 -1q-9 -15 -18.5 -30.5t-19.5 -30.5l-34 -55h-149h-271v14
q69 32 132.5 68.5t111.5 76.5t77 82t29 85q0 27 -10.5 49.5t-29 39t-44.5 25.5t-57 9q-33 0 -62.5 -12t-53 -33t-40 -50t-23.5 -64z" />
    <glyph glyph-name="three" unicode="3" horiz-adv-x="451" 
d="M17 -216q68 7 125 25.5t98 44.5t64 59t23 70q0 30 -17 58t-47.5 50.5t-72.5 38.5t-92 23v16q48 20 87.5 42.5t68.5 46.5t45 49t16 51q0 42 -33 69t-86 27q-29 0 -55.5 -8t-47.5 -22.5t-35 -34t-20 -43.5l-17 5q8 35 27 64t46.5 50t61.5 33t72 12t69.5 -9.5t54.5 -26
t35.5 -39.5t12.5 -50q0 -45 -56.5 -92.5t-150.5 -95.5l5 2q47 -6 86 -24t67.5 -43.5t44.5 -58t16 -68.5q0 -43 -29 -82t-81 -70.5t-124 -53.5t-158 -31l-3 16v0z" />
    <glyph glyph-name="four" unicode="4" horiz-adv-x="659" 
d="M628 -42h-2q-2 0 -4 1h-4q-1 0 -1 1l1 12q1 6 -2 11.5t-13 9t-27.5 5.5t-45.5 2h-94v-220h-80v220h-341v14l410 516h11v-469h26q52 0 85 2.5t52.5 7.5t27.5 11t9 14l2 13q8 2 9.5 2h2.5q-4 -27 -8 -55l-8 -56zM356 61v335l-266 -335h266z" />
    <glyph glyph-name="five" unicode="5" horiz-adv-x="455" 
d="M59 -219q65 8 119.5 30t93.5 54t61 72.5t22 85.5q0 37 -20 67.5t-56 53t-85.5 35t-108.5 12.5h-35l-14 13l60 296h113q47 0 77.5 2.5t48.5 6.5t25 9.5t9 11.5l1 10h2q3 0 5 1q3 0 6 1q-5 -28 -10 -55.5t-10 -55.5l-251 -3l-33 -152h15q73 0 133.5 -17t104.5 -47
t68.5 -71.5t24.5 -90.5q0 -53 -27 -100t-75.5 -84.5t-115.5 -63.5t-147 -36z" />
    <glyph glyph-name="six" unicode="6" horiz-adv-x="588" 
d="M575 738q-82 0 -152.5 -25.5t-126.5 -73t-94.5 -113.5t-56.5 -147q24 40 64.5 63t92.5 23q51 0 94 -17t74 -47t48.5 -71.5t17.5 -90.5q0 -55 -17.5 -100.5t-48.5 -78.5t-74 -51.5t-95 -18.5q-55 0 -101 22.5t-79 62t-51.5 95t-18.5 121.5q0 100 38.5 184.5t107.5 145.5
t164.5 95t209.5 34zM132 248q0 -52 12.5 -96t34.5 -75.5t52.5 -49t66.5 -17.5q35 0 64 17.5t50 48t33 73.5t12 94q0 44 -12 81t-33.5 64t-51 42t-65.5 15t-65.5 -14.5t-51.5 -41t-34 -62.5t-12 -79z" />
    <glyph glyph-name="seven" unicode="7" horiz-adv-x="471" 
d="M11 386q17 37 32.5 74.5t32.5 74.5q1 -1 2 -1h4q1 -1 4 -1h1l-4 -10q-2 -5 -0.5 -9t10 -7t25 -5t43.5 -2h306v-15l-294 -705h-61l311 656h-297q-51 0 -71.5 -11t-27.5 -27l-4 -10q-3 0 -7 -1q-2 0 -2.5 -0.5t-1.5 -0.5h-2h1z" />
    <glyph glyph-name="eight" unicode="8" horiz-adv-x="562" 
d="M227 375q-53 -28 -85 -82.5t-32 -118.5q0 -37 12.5 -67.5t35.5 -53t54 -35t69 -12.5q40 0 73 11t57 31t37.5 47.5t13.5 60.5q0 39 -15 69.5t-42 55t-64 44t-82 36.5q-15 5 -32 14zM208 386q-65 35 -104 85.5t-39 110.5q0 39 15.5 72t44 57t67.5 37t86 13q48 0 88 -12
t69 -33.5t45 -51t16 -65.5q0 -26 -11.5 -51.5t-32.5 -49.5t-50 -45.5t-65 -37.5q41 -19 75 -40.5t58 -48.5t37.5 -60t13.5 -74q0 -44 -18 -81t-50 -63.5t-76 -41.5t-97 -15t-97 13.5t-75.5 38t-49.5 58t-18 74.5q0 30 12 60t34.5 57t53 50.5t68.5 41.5v2zM319 423
q49 26 79 71.5t30 97.5q0 33 -11 61.5t-31 48.5t-47.5 31.5t-60.5 11.5q-66 0 -107.5 -37t-41.5 -97q0 -27 11.5 -53t32.5 -48.5t49.5 -41.5t63.5 -32l33 -12v-1z" />
    <glyph glyph-name="nine" unicode="9" horiz-adv-x="588" 
d="M14 -238q82 0 152.5 25.5t126.5 73t94.5 113.5t56.5 147q-24 -40 -64.5 -63t-92.5 -23q-51 0 -94 16.5t-74 46.5t-48.5 71.5t-17.5 91.5q0 55 17.5 100.5t48.5 78.5t74 51.5t94 18.5q55 0 101 -22.5t79.5 -62t51.5 -95t18 -121.5q0 -101 -38 -185t-107 -145t-164.5 -95
t-209.5 -34zM457 252q0 52 -12.5 96t-34.5 75.5t-52.5 49t-67.5 17.5q-35 0 -64 -17.5t-50 -48t-32.5 -73.5t-11.5 -94q0 -44 12 -81t33.5 -64t51 -42t65.5 -15t65.5 14.5t51.5 41t34 62.5t12 79z" />
    <glyph glyph-name="colon" unicode=":" horiz-adv-x="135" 
d="M125 385q-25 0 -40.5 15.5t-15.5 40.5t15.5 41t40.5 16t40.5 -16t15.5 -41t-15.5 -40.5t-40.5 -15.5zM125 -5q-25 0 -40.5 15.5t-15.5 40.5t15.5 41t40.5 16t40.5 -16t15.5 -41t-15.5 -40.5t-40.5 -15.5z" />
    <glyph glyph-name="semicolon" unicode=";" horiz-adv-x="263" 
d="M125 385q-25 0 -40.5 15.5t-15.5 40.5t15.5 41t40.5 16t40.5 -16t15.5 -41t-15.5 -40.5t-40.5 -15.5zM162 14q-14 -19 -37 -19q-26 0 -43 17t-17 43t17 43t43 17q30 0 49 -28t19 -73q0 -57 -35.5 -92.5t-92.5 -35.5v16q44 0 71.5 24.5t27.5 62.5v13t-1 12h-1z" />
    <glyph glyph-name="less" unicode="&#x3c;" horiz-adv-x="637" 
d="M554 -25l-472 255v18l472 255v-40l-415 -224l415 -224v-40z" />
    <glyph glyph-name="equal" unicode="=" horiz-adv-x="553" 
d="M483 218v-36h-401v36h401zM483 318v-36h-401v36h401z" />
    <glyph glyph-name="greater" unicode="&#x3e;" horiz-adv-x="637" 
d="M82 15l415 224l-415 224v40l472 -255v-18l-472 -255v40z" />
    <glyph glyph-name="question" unicode="?" horiz-adv-x="300" 
d="M125 -5q-25 0 -40.5 15.5t-15.5 40.5t15.5 41t40.5 16t40.5 -16t15.5 -41t-15.5 -40.5t-40.5 -15.5zM110 205l-13 235q46 0 76 3t48.5 9t28.5 14t17 18q10 15 16.5 32.5t6.5 28.5q0 58 -32.5 94.5t-83.5 36.5q-14 0 -30.5 -7t-30.5 -7q-19 0 -31 11t-12 28q0 26 21 42.5
t54 16.5q37 0 68 -15t53.5 -42.5t35 -65t12.5 -82.5q0 -29 -8 -59.5t-22 -50.5q-12 -19 -26 -34.5t-32 -27t-42.5 -17.5t-58.5 -6l-1 -155h-14z" />
    <glyph glyph-name="at" unicode="@" horiz-adv-x="1187" 
d="M1100 0q-26 -57 -75.5 -104.5t-115 -82t-142.5 -53.5t-158 -19q-121 0 -222.5 38.5t-175 107t-114.5 163.5t-41 209t40 209t111.5 163.5t170.5 107t217 38.5t217 -32t170.5 -89.5t111.5 -137.5t40 -175q0 -80 -19.5 -147t-55 -115t-84 -75t-106.5 -27q-81 0 -129.5 38.5
t-56.5 103.5q-30 -51 -83 -81.5t-116 -30.5q-41 0 -74.5 13.5t-58.5 38t-38.5 58t-13.5 74.5q0 65 22.5 119.5t62.5 94t95.5 61.5t121.5 22q51 0 87.5 -24.5t49.5 -65.5l20 80h75l-70 -280q-11 -42 -7 -77.5t20 -61t43 -40t64 -14.5q41 0 75.5 25t59.5 69.5t39 106t14 135.5
q0 90 -35.5 165.5t-98.5 130t-150.5 85t-192.5 30.5q-104 0 -191.5 -36.5t-150.5 -102t-98.5 -156.5t-35.5 -200t36.5 -200t101.5 -156.5t155 -102t197 -36.5q78 0 151 17.5t134.5 49t108.5 74.5t71 95h27zM727 355q0 50 -35.5 81.5t-92.5 31.5q-47 0 -86 -19.5t-67.5 -54
t-44 -82t-15.5 -104.5q0 -34 10.5 -62.5t29 -49t44 -32t55.5 -11.5q28 0 54 11t47.5 30.5t38 46.5t24.5 59l39 155h-1z" />
    <glyph glyph-name="A" unicode="A" horiz-adv-x="761" 
d="M204 211q-18 -60 -23 -98.5t0.5 -60.5t19.5 -30.5t34 -8.5h21v-2q0 -1 0.5 -2t0.5 -2q0 -2 0.5 -3t0.5 -2v-1h-123h-24h-97v1q0 3 1 5v4q0 1 1 2h23q16 0 32 8.5t34 30.5t37 61t41 100l170 499l-3 10q21 2 40 15.5t28 32.5h10l16 -48l190 -571q15 -42 28 -69t24 -42.5
t20.5 -21.5t18.5 -6h25v-2q0 -3 1 -4v-5q0 -1 1 -1h-68h-98h-102v1q0 1 0.5 2t0.5 3l2 6h22q16 0 27 7.5t14 28t-3.5 56.5t-25.5 93h1l-25 77h-272zM490 296l-128 392l-130 -392h258z" />
    <glyph glyph-name="B" unicode="B" horiz-adv-x="688" 
d="M223 638v-246h96q46 0 84.5 12.5t66.5 35t43.5 53t15.5 67.5q0 38 -11 69.5t-39 54.5t-75.5 36t-119.5 13l-61 1v-96zM223 378v-266v-32q0 -28 13.5 -46t35.5 -18h50q49 0 90 8t70.5 28.5t46 55.5t16.5 88q0 40 -17 73.5t-47.5 57.5t-72.5 37.5t-93 13.5h-92zM430 388
q49 -6 89.5 -23t69 -41.5t44.5 -57t16 -69.5q0 -58 -22.5 -96t-63 -60t-96.5 -31t-123 -9h-120h-174v1q0 1 0.5 2t0.5 3l2 6h13q14 0 25.5 4t20 15t13.5 30.5t5 50.5v526q0 31 -5 50.5t-13.5 30.5t-20 15t-25.5 4h-13l-2 6q0 2 -0.5 2.5t-0.5 1.5v2h174h94q91 0 150 -13.5
t93.5 -37.5t48.5 -57t14 -72q0 -67 -53 -115.5t-142 -67.5h1z" />
    <glyph glyph-name="C" unicode="C" horiz-adv-x="759" 
d="M715 35q0 22 -8 22q-23 -4 -46.5 -8t-29.5 -5q-40 -23 -93.5 -36.5t-125.5 -13.5q-79 0 -145 28.5t-114 79.5t-74.5 122t-26.5 155t27.5 155t76.5 122t117 79.5t149 28.5q72 0 122 -14.5t88 -40.5q30 -18 51 -23t23 3q1 5 2 8.5t2 6.5q1 4 1 6l6 3v-89v-87q-5 2 -6 2h-2
q0 2 -1 5q-1 2 -2 4.5t-2 6.5q-6 18 -20.5 41t-35 45.5t-45 42.5t-50.5 32t-56.5 18.5t-67.5 6.5q-61 0 -111.5 -27t-87 -75.5t-57 -115.5t-20.5 -147t19.5 -147.5t54.5 -116t83.5 -75.5t106.5 -27q48 0 87 8.5t71 24.5h-1q22 11 43.5 29t39.5 38t30.5 40.5t17.5 35.5
q1 4 2 7t2 5q1 3 1 4t1 1t3 1h2l1 1v-87v-91z" />
    <glyph glyph-name="D" unicode="D" horiz-adv-x="854" 
d="M129 638q0 31 -5 50.5t-13.5 30.5t-20 15t-25.5 4h-13l-2 6q0 2 -0.5 2.5t-0.5 1.5v2h80h94h132q107 0 190 -28t139.5 -77.5t85.5 -118.5t29 -151q0 -90 -36 -160t-100.5 -118t-154.5 -72.5t-197 -24.5h-88h-94h-80v1q0 1 0.5 2t0.5 3l2 6h13q14 0 25.5 4t20 15
t13.5 30.5t5 50.5v526zM223 638v-526v-32q0 -28 11 -46t53 -18q90 0 165 23.5t129 69.5t84.5 112.5t30.5 153.5q0 79 -26.5 145t-78.5 113.5t-127.5 74t-173.5 26.5h-67v-96z" />
    <glyph glyph-name="E" unicode="E" horiz-adv-x="642" 
d="M563 637q-1 0 -5.5 1.5t-6.5 2.5v9q-2 18 -5.5 33.5t-19 26.5t-47 17t-88.5 6h-166v-95v-244h105q47 0 77 6.5t47 18.5t23.5 28.5t6.5 36.5v13l11 5v-108v-19v-108l-11 5v13q0 19 -6.5 35.5t-23.5 28.5t-47 19t-77 7h-105v-263v-32q0 -14 2.5 -25.5t11 -20t24.5 -13
t42 -4.5h112q47 0 78 6t49.5 16.5t27 25t10.5 31.5l2 13l12 4q-4 -28 -8 -57t-9 -56h-165h-190h-94h-80v1q0 1 0.5 2t0.5 3l2 6h13q14 0 25.5 4t20 15t13.5 30.5t5 50.5v526q0 31 -5 50.5t-13.5 30.5t-20 15t-25.5 4h-13l-2 6q0 2 -0.5 2.5t-0.5 1.5v2h80h94h165h165
q2 -28 3.5 -56.5t3.5 -56.5h2z" />
    <glyph glyph-name="F" unicode="F" horiz-adv-x="617" 
d="M484 263q-1 1 -3 2.5t-3 2.5l-3 35q-2 16 -9 29t-24 23h-217v-243q0 -31 5 -50.5t13.5 -30.5t20 -15t25.5 -4h13l2 -6v-5q0 -1 1 -1h-80h-94h-80v1q0 1 0.5 2t0.5 3l2 6h13q14 0 25.5 4t20 15t13.5 30.5t5 50.5v526q0 31 -5 50.5t-13.5 30.5t-20 15t-25.5 4h-13l-2 6
q0 2 -0.5 2.5t-0.5 1.5v2h80h94h165h165q3 -27 4.5 -54t4.5 -54h-2q-1 0 -2 0.5t-2 0.5q-2 0 -2.5 0.5t-1.5 0.5h-2l-1 13q-2 17 -14.5 31.5t-44 25t-86 16.5t-139.5 6h-43v-98v-263h95q46 0 76 4t47.5 11t24.5 16.5t8 20.5l3 35l2 2q1 1 1.5 1t1.5 1v-91v-20v-92h1z" />
    <glyph glyph-name="G" unicode="G" horiz-adv-x="819" 
d="M763 327q0 -1 -0.5 -5t-1.5 -6h-13q-22 0 -36 -18t-14 -74v-176q2 -6 -23 -15.5t-65.5 -18.5t-90.5 -15t-99 -6q-80 0 -147.5 28.5t-116 79.5t-75.5 122t-27 155t27.5 155t76.5 122t117 79.5t149 28.5q72 0 122 -14.5t88 -40.5q30 -18 51 -23t23 3q1 5 2 8.5t2 6.5
q1 4 1 6l6 3v-89v-87q-5 2 -6 2h-2q0 2 -1 5q-1 2 -2 4.5t-2 6.5q-6 18 -20.5 41t-35 45.5t-45 42.5t-50.5 32t-56.5 18.5t-67.5 6.5q-61 0 -111.5 -27t-87 -75.5t-57 -115.5t-20.5 -147t20 -146.5t56 -114.5t86 -74.5t110 -26.5q74 0 122.5 25t53.5 65l-1 118q0 56 -17 74
t-44 18h-13q-1 1 -1 2v4q-1 2 -1 4q0 1 -1 2h235z" />
    <glyph glyph-name="H" unicode="H" horiz-adv-x="844" 
d="M542 0q0 1 1.5 5.5t2.5 6.5h13q28 0 46 18t18 74v268h-364v-268q0 -56 18 -74t46 -18h13l2 -6v-5q0 -1 1 -1h-254v1q0 1 0.5 2t0.5 3l2 6h13q28 0 46 18t18 74v542q0 56 -18 74t-46 18h-13l-2 6q0 2 -0.5 2.5t-0.5 1.5v2h254q-1 -1 -1 -2v-4l-2 -6h-13q-28 0 -46 -18
t-18 -74v-252h364v252q0 56 -18 74t-46 18h-13l-4 12h255q-1 -1 -1 -2t-0.5 -1.5t-0.5 -2.5t-0.5 -2.5t-0.5 -1.5v-2h-13q-29 0 -47 -18t-18 -74v-542q0 -56 18 -74t47 -18h13v-2q0 -1 0.5 -2t0.5 -2q0 -2 0.5 -3t0.5 -2t1 -1h-255v0z" />
    <glyph glyph-name="I" unicode="I" horiz-adv-x="347" 
d="M45 0q0 1 1.5 5.5t2.5 6.5h13q28 0 46 18t18 74v542q0 56 -18 74t-46 18h-13l-4 12h255q-1 -1 -1 -2t-0.5 -1.5t-0.5 -2.5t-0.5 -2.5t-0.5 -1.5v-2h-13q-29 0 -47 -18t-18 -74v-542q0 -56 18 -74t47 -18h13v-2q0 -1 0.5 -2t0.5 -2q0 -2 0.5 -3t0.5 -2t1 -1h-255v0z" />
    <glyph glyph-name="J" unicode="J" horiz-adv-x="347" 
d="M126 646q0 56 -18 74t-46 18h-13l-4 12h255q-1 -1 -1 -2t-0.5 -1.5t-0.5 -2.5t-0.5 -2.5t-0.5 -1.5v-2h-13q-29 0 -47 -18t-18 -74l1 -536q0 -101 -22 -165.5t-55.5 -101t-73 -50t-73.5 -13.5q-41 0 -66.5 17.5t-25.5 44.5q0 18 11.5 30t30.5 12q16 0 23 -11.5t12 -26
t11.5 -26t23.5 -11.5t36 5t35.5 19t27.5 38.5t11 62.5v712v0z" />
    <glyph glyph-name="K" unicode="K" horiz-adv-x="758" 
d="M221 375v-283q0 -49 18 -64.5t46 -15.5h13l2 -6v-5q0 -1 1 -1h-80h-94h-80v1q0 1 0.5 2t0.5 3l2 6h13q28 0 46 15.5t18 64.5v566q0 49 -18 64.5t-46 15.5h-13l-2 6q0 2 -0.5 2.5t-0.5 1.5v2h80h94h80q-1 -1 -1 -2v-4l-2 -6h-13q-28 0 -46 -15.5t-18 -64.5v-283l181 204
q42 49 63.5 80t28 48.5t0 24t-21.5 6.5h-20q-1 1 -1 2v4q-1 2 -1 4v2h104h39h61q-1 -1 -1 -2v-4q-1 -2 -1 -4v-2h-25q-9 0 -20 -4t-26 -13.5t-34.5 -26.5t-44.5 -43l-204 -220l300 -330q16 -17 34 -33t34 -28.5t28.5 -20t19.5 -7.5h28l2 -6v-5q0 -1 1 -1h-54h-125z" />
    <glyph glyph-name="L" unicode="L" horiz-adv-x="637" 
d="M575 0h-266h-91h-93h-81q0 1 1.5 5.5t2.5 6.5h13q14 0 25.5 4t20 15t13.5 30.5t5 50.5v526q0 31 -5 50.5t-13.5 30.5t-20 15t-25.5 4h-13l-4 12h81h93h81q-1 -1 -1 -2t-0.5 -1.5t-0.5 -2.5t-0.5 -2.5t-0.5 -1.5v-2h-13q-14 0 -26 -4t-20.5 -15t-13.5 -30.5t-5 -50.5v-526
v-32q0 -14 2.5 -25.5t11 -20t24.5 -13.5t42 -5h15q78 0 129.5 8t83.5 22.5t48 34t22 43.5l4 13q0 1 1 1q3 0 5 1q3 0 4.5 0.5t2.5 0.5q-9 -31 -17 -62l-16 -62z" />
    <glyph glyph-name="M" unicode="M" horiz-adv-x="885" 
d="M862 749q0 -1 -0.5 -5t-1.5 -6h-24q-11 0 -19.5 -8.5t-15 -30t-9.5 -59.5t-3 -97l13 -431q1 -31 6 -50.5t13.5 -30.5t19.5 -15t25 -4h13l2 -6v-5q0 -1 1 -1h-77h-93h-84q0 1 1.5 5.5t2.5 6.5h12q15 0 27 4t21 15t13.5 30.5t3.5 50.5l-14 554l-243 -666h-23
q-67 161 -134 319t-134 319l-3 9l-8 -450h1q-2 -57 2 -93t13 -56.5t21.5 -28t28.5 -7.5h23q0 -2 1 -6t1 -5h-94h-32h-94q0 1 0.5 5t1.5 6h23q15 0 28 8t23 30.5t16 61t8 100.5l14 479q-18 28 -35 37.5t-34 9.5h-24v2q0 1 -0.5 1.5t-0.5 2.5t-0.5 2.5t-0.5 1.5v2h75h22h23h67
l245 -630v-1l222 631h33h56h79v-1z" />
    <glyph glyph-name="N" unicode="N" horiz-adv-x="773" 
d="M102 685q-26 33 -39 43.5t-22 10.5h-28v2q0 1 -0.5 1.5t-0.5 2.5t-0.5 2.5t-0.5 1.5v2h41h71h23h22l432 -568l20 -26l-2 452q-2 40 -8 65t-16.5 39.5t-24.5 20t-30 5.5h-13l-4 12h95h29h94q0 -1 -1.5 -5.5t-2.5 -6.5h-13q-16 0 -29.5 -5t-23.5 -19t-16.5 -38t-8.5 -61
l-6 -615h-19l-96 127l-378 498l2 -428q0 -57 5 -93t14.5 -56.5t22 -28t27.5 -7.5h23l2 -6v-5q0 -1 1 -1h-94h-28h-94q0 1 0.5 5t1.5 6h23q15 0 27.5 8t22 30.5t14.5 61t5 100.5l1 445l-21 27z" />
    <glyph glyph-name="O" unicode="O" horiz-adv-x="869" 
d="M422 11q64 0 117.5 27t92 75t60 115t21.5 147t-21.5 147t-59.5 115t-91 75t-116 27q-60 0 -109.5 -27t-85.5 -75t-56 -115t-20 -147t20 -147t55.5 -115t84.5 -75t108 -27zM51 375q0 84 28 155t78 122t119 79.5t152 28.5q85 0 156 -28.5t122.5 -79.5t80 -122t28.5 -155
t-29.5 -155t-82 -122t-125.5 -79.5t-160 -28.5q-81 0 -148 28.5t-116 79.5t-76 122t-27 155z" />
    <glyph glyph-name="P" unicode="P" horiz-adv-x="635" 
d="M72 0q0 1 1.5 5.5t2.5 6.5h12q14 0 26 4t20.5 15t13.5 30.5t5 50.5v526q0 31 -5 50.5t-13.5 30.5t-20.5 15t-26 4h-12l-4 12h81h93h111q57 0 104.5 -15.5t82 -43.5t53.5 -67t19 -85q0 -49 -23.5 -85.5t-65 -60.5t-99.5 -36t-127 -12h-55v-233q0 -31 5 -50.5t13.5 -30.5
t20.5 -15t26 -4h12l4 -12h-81h-93h-81zM301 365q50 0 91.5 11.5t71.5 35.5t47 59.5t17 83.5q0 39 -14.5 72t-40.5 57t-61.5 37t-78.5 13h-87v-96v-273h55z" />
    <glyph glyph-name="Q" unicode="Q" horiz-adv-x="864" 
d="M1191 -46q-30 -25 -70 -46t-84.5 -36.5t-91.5 -24t-90 -8.5q-50 0 -115.5 13.5t-138.5 38t-150 58t-149 74.5q-44 22 -88.5 56.5t-81 79.5t-59.5 99.5t-23 115.5q0 84 28 155t78 122t119 79.5t152 28.5q85 0 156 -28.5t122.5 -79.5t80 -122t28.5 -155q0 -81 -27 -149.5
t-76 -119t-117 -81t-150 -34.5q43 -17 94.5 -30.5t106.5 -23.5t112 -15t111 -5q57 0 109 3.5t94 9.5t72 14.5t42 19.5l6 -7v-2zM421 9q64 0 117.5 27t92 75t60 115t21.5 147t-21.5 147t-59.5 115t-91 75t-116 27q-60 0 -109.5 -27t-85.5 -75t-56 -115t-20 -147
q0 -67 22 -125t55 -103.5t72 -77.5t72 -47h1h3q27 -11 44 -11h-1z" />
    <glyph glyph-name="R" unicode="R" horiz-adv-x="774" 
d="M764 0q-67 0 -106 2t-62.5 9t-38 21.5t-30.5 39.5q-34 52 -63 98t-52.5 83t-39.5 63.5t-23 40.5h-126v-245q0 -31 5 -50.5t13.5 -30.5t20 -15t25.5 -4h13l2 -6v-5q0 -1 1 -1h-254v1q0 1 0.5 2t0.5 3l2 6h13q14 0 25.5 4t20 15t13.5 30.5t5 50.5v526q0 31 -5 50.5
t-13.5 30.5t-20 15t-25.5 4h-13l-2 6q0 2 -0.5 2.5t-0.5 1.5v2h174h131q57 0 104 -15.5t81.5 -44t53.5 -67.5t19 -85q0 -72 -45.5 -115t-122.5 -58q10 -16 28.5 -44t43.5 -65.5t55 -84t65 -99.5q14 -21 24 -33.5t23 -18.5t31.5 -7.5t49.5 -1.5v-11zM223 638v-258h131
q34 0 62.5 11t49 33t32 55t11.5 78q0 38 -13.5 70t-38 55t-58 36t-73.5 13h-103v-93z" />
    <glyph glyph-name="S" unicode="S" horiz-adv-x="570" 
d="M431 710q20 -14 33.5 -14t15.5 8q1 5 2 9t2 7q1 4 1 6h1q1 0 1.5 0.5t1.5 0.5t1 0.5t1 0.5l1 1v-88v-78l-1 1q-1 0 -2 1h-3q-1 0 -1 1q0 2 -1 5q-1 2 -2 4.5t-2 6.5q-6 21 -22.5 45t-38.5 46t-49 38t-54 22l10 -2q-32 8 -62 8q-55 0 -89.5 -39t-34.5 -101q0 -45 50 -93
t144 -83q97 -37 147.5 -99.5t50.5 -130.5q0 -45 -17 -82.5t-47 -64.5t-71.5 -42t-90.5 -15q-46 0 -90 15t-81 42q-29 22 -49.5 26t-22.5 -6q-2 -6 -2.5 -11t-1.5 -9t-1 -7q-1 -1 -3.5 -2t-4.5 -2v111v78l4 -2q1 0 1 -0.5t1 -0.5h1q6 -21 18.5 -46t29.5 -49t37 -44.5
t42 -33.5q28 -15 58.5 -23.5t62.5 -8.5q33 0 60.5 11t48 31t31.5 47.5t11 60.5q0 41 -46 84t-133 76q-51 20 -90.5 47t-66 58t-40.5 65t-14 69q0 43 14.5 78.5t41 61.5t62.5 40.5t79 14.5q47 0 90 -12.5t76 -35.5zM317 733h-3h2h1z" />
    <glyph glyph-name="T" unicode="T" horiz-adv-x="795" 
d="M269 -1q0 1 1.5 5.5t2.5 6.5h13q28 0 46 18t18 74v623h-130q-47 0 -79 -5t-52 -13.5t-30.5 -20.5t-15.5 -26l-5 -12q-1 -1 -2 -1h-4q-2 -1 -5 -1h-2q8 20 15 40t15 40h-1v23h9l15 42h6q2 -1 4 -1h2l-3 -10q-3 -6 1.5 -11.5t20 -9.5t44.5 -6.5t76 -2.5h122h94h121
q48 0 77 2.5t44.5 6.5t20 9.5t1.5 11.5l-3 10h1q2 0 4 1h6q4 -10 7.5 -20t7.5 -21h9v-23q8 -20 14.5 -40t13.5 -40h-2q-2 0 -4 1h-5q-1 0 -1 1l-5 12q-5 14 -15.5 26t-30.5 20.5t-52 13.5t-79 5h-130v-623q0 -56 18 -74t46 -18h13v-2q0 -1 0.5 -2t0.5 -2q0 -2 0.5 -3t0.5 -2
t1 -1h-255z" />
    <glyph glyph-name="U" unicode="U" 
d="M644 102q0 -23 3 -37t11.5 -21.5t23.5 -9.5t38 -1v-6l-156 -27h-14v102v48q-16 -35 -43.5 -64.5t-62.5 -50.5t-75 -33t-81 -12q-43 0 -78.5 17.5t-61 48.5t-40 74t-14.5 94v414q0 31 -5 50.5t-13.5 30.5t-20 15t-25.5 4h-13l-2 6q0 2 -0.5 2.5t-0.5 1.5v2h174v-112v-414
q0 -38 10 -70t28.5 -55t43.5 -36t55 -13q35 0 69 10.5t64 29.5t53.5 45t38.5 57v446q0 31 -5 50.5t-13.5 30.5t-20 15t-25.5 4h-13l-2 6q0 2 -0.5 2.5t-0.5 1.5v2h174v-112v-536v0z" />
    <glyph glyph-name="V" unicode="V" horiz-adv-x="789" 
d="M13 737q0 2 -1 6t-1 5h45h107h124q-1 -1 -1 -2v-4l-2 -6h-21q-21 0 -35.5 -7.5t-18.5 -28t4 -56.5t31 -93l177 -432l177 455q18 49 22.5 80.5t-1 49.5t-19.5 25t-34 7h-21q-1 1 -1 2v4q-1 2 -1 4v2h123h37h67q0 -1 -0.5 -5t-1.5 -6h-24q-9 0 -19.5 -5.5t-22.5 -19.5
t-26 -38.5t-31 -63.5l-21 -51l-3 -6l-232 -563h-19l-54 131l-230 556q-15 38 -26 49.5t-20 11.5h-27v-1z" />
    <glyph glyph-name="W" unicode="W" horiz-adv-x="1108" 
d="M865 741q0 2 -1 6t-1 5h123h37h68q-1 -1 -1 -2v-4q-1 -2 -1 -4v-2h-25q-9 0 -18 -5t-19 -18.5t-21 -36.5t-24 -59l-196 -629h-23l-183 471l-203 -472h-24q-54 142 -108.5 281.5t-109.5 280.5h-1q-22 57 -37.5 93t-26 56.5t-17.5 28t-11 7.5h-27q0 2 -1 6t-1 5h45h103h108
v-2q0 -1 -0.5 -1.5t-0.5 -2.5t-0.5 -2.5t-0.5 -1.5v-2h-21q-17 0 -28.5 -6.5t-15.5 -24.5t1.5 -49t23.5 -80l177 -464v-1l161 387l-75 192q-14 29 -30 38t-33 9h-25q0 2 -1 6t-1 5h67h104h108q0 -1 -0.5 -5t-1.5 -6h-22q-18 0 -31 -5.5t-17.5 -21t-0.5 -42.5t21 -69
l175 -470l124 423q16 57 19.5 93t-3 56.5t-21.5 28t-36 7.5h-22z" />
    <glyph glyph-name="X" unicode="X" horiz-adv-x="774" 
d="M754 749q0 -1 -0.5 -5t-1.5 -6h-25q-14 0 -34 -13t-55 -51l-213 -270l140 -207h1q38 -57 65.5 -93t46 -56.5t31 -28t20.5 -7.5h25v-2q0 -3 1 -4v-5q0 -1 1 -1h-57h-111h-94q0 1 0.5 5t1.5 6h21q13 0 19.5 6.5t3 24t-19.5 48.5t-47 80l-112 166l-130 -182
q-29 -43 -39.5 -70.5t-8 -43.5t16.5 -22t36 -6h21q0 -2 1 -6t1 -5h-138h-37h-71v1q0 1 0.5 2t0.5 3l2 6h23q12 0 26.5 6.5t34.5 23.5t46.5 47t61.5 77l1 1l140 187l-135 199q-38 57 -64.5 93t-44.5 56.5t-28.5 28t-16.5 7.5h-26q0 2 -1 6t-1 5h49h110h94v-2q0 -1 -0.5 -1.5
t-0.5 -2.5t-0.5 -2.5t-0.5 -1.5v-2h-21q-14 0 -20 -7.5t-0.5 -28t25.5 -56.5t58 -93l91 -134l87 119q45 61 68.5 100t30 61.5t0 30.5t-21.5 8h-21q-1 1 -1 2v4q-1 2 -1 4v2h101h42h55z" />
    <glyph glyph-name="Y" unicode="Y" 
d="M12 740q0 2 -1 6t-1 5h42h111h79q-1 -1 -1 -2v-4q-1 -2 -1 -4v-2h-22q-9 0 -14 -5.5t-2 -19.5t14.5 -38t34.5 -62l167 -260l160 301q22 50 18 67t-23 17h-22q0 2 -1 6t-1 5h79h41h58q-1 -1 -1 -2t-0.5 -1.5t-0.5 -2.5t-0.5 -2.5t-0.5 -1.5v-2h-25q-8 0 -18.5 -7t-26 -25
t-37 -50.5t-51.5 -83.5l-141 -244v-224q0 -56 18 -74t46 -18h13l4 -12h-255q1 0 1 1q0 3 1 5v4q0 1 1 2h13q28 0 46 18t18 74v219l-183 278q-28 42 -47.5 68.5t-32 41.5t-19.5 21t-11 6h-28z" />
    <glyph glyph-name="Z" unicode="Z" horiz-adv-x="664" 
d="M24 0v19l504 711l-247 -3q-59 -2 -98 -10t-63 -21.5t-35.5 -32t-15.5 -39.5l-4 -22q-1 -1 -2 -1h-6q-3 -1 -6 -1q-1 0 -2 -1q5 38 10.5 75.5t10.5 75.5h243h230h88v-19l-495 -710l269 4q63 0 104.5 6t68 17t40 25.5t20.5 32.5l11 32q1 1 2 1q3 0 5 1h4q1 0 2 1
q-8 -35 -17 -70.5t-18 -70.5h-228h-277h-98z" />
    <glyph glyph-name="bracketleft" unicode="[" horiz-adv-x="293" 
d="M133 -172h210v-23h-210h-28v945h28h210v-23h-210v-899z" />
    <glyph glyph-name="backslash" unicode="\" horiz-adv-x="345" 
d="M75 770l260 -850h-46l-260 850h46z" />
    <glyph glyph-name="bracketright" unicode="]" horiz-adv-x="296" 
d="M-52 727v23h210h28v-945h-28h-210v23h210v899h-210z" />
    <glyph glyph-name="underscore" unicode="_" horiz-adv-x="501" 
d="M496 -50v-44h-491v44h491z" />
    <glyph glyph-name="grave" unicode="`" horiz-adv-x="853" 
d="M403 571l-10 -9l-142 120q-28 24 -46 41.5t-18 22.5q0 16 12 28t27 12q5 0 22 -19t40 -49z" />
    <glyph glyph-name="a" unicode="a" horiz-adv-x="533" 
d="M543 97q-8 -45 -36.5 -74t-65.5 -29q-40 0 -67 24t-32 63q-42 -48 -87 -69.5t-89 -21.5q-53 0 -86.5 27t-33.5 70q0 42 13.5 69.5t47 47t90.5 34t144 29.5v118q0 53 -26.5 78.5t-68.5 25.5q-28 0 -51.5 -10.5t-40 -25.5t-25.5 -31.5t-9 -28.5q0 -10 4 -21.5t4 -20.5
q1 -6 -6.5 -12t-19.5 -6q-16 0 -26 6.5t-10 17.5q0 20 14.5 46.5t42 50t65.5 40t84 16.5q65 0 106.5 -38t41.5 -116v-257q0 -21 15.5 -34t39.5 -13q20 0 35.5 15t19.5 38l14 -7zM340 249q-63 -11 -104.5 -22.5t-66 -28t-34.5 -41.5t-10 -63q0 -28 23 -45.5t60 -17.5
q35 0 69 16t63 51v151z" />
    <glyph glyph-name="b" unicode="b" horiz-adv-x="657" 
d="M74 730q-1 3 -1 6l131 14h15v-97v-220q32 32 73.5 52t77.5 20q53 0 97.5 -18.5t76.5 -52.5t50 -80.5t18 -101.5q0 -57 -18 -105.5t-51 -83t-78 -54t-99 -19.5q-29 0 -58 5.5t-55 15.5t-47.5 23.5t-35.5 30.5l-27 -65h-4v646q0 26 -3.5 42.5t-10.5 25t-16 11t-20 1.5
l-13 -2zM219 195v-125q20 -28 62 -45.5t89 -17.5q34 0 62 17.5t48 49t31.5 74.5t11.5 95q0 51 -13.5 93t-38 72.5t-58.5 47.5t-74 17q-27 0 -60 -17t-60 -45v-216z" />
    <glyph glyph-name="c" unicode="c" horiz-adv-x="521" 
d="M492 134q-13 -32 -34.5 -58t-49 -45.5t-59 -30t-64.5 -10.5q-53 0 -97.5 18t-76.5 51t-50 78t-18 99q0 60 19 110.5t53.5 86.5t82.5 56.5t105 20.5q33 0 63.5 -8t55.5 -22t43 -33t27 -42q5 -17 -29 -17q-21 0 -28 17q-14 38 -52 62.5t-84 24.5q-38 0 -69.5 -16
t-54.5 -45.5t-36 -70t-13 -88.5q0 -51 14 -94t39 -73.5t59.5 -48t75.5 -17.5q28 0 54 7.5t48 20.5t38.5 31t25.5 40l12 -4v0z" />
    <glyph glyph-name="d" unicode="d" horiz-adv-x="596" 
d="M596 13q0 -1 0.5 -5t1.5 -6l-131 -12h-14v76q-26 -32 -73.5 -51.5t-99.5 -19.5q-51 0 -93.5 19t-73.5 53t-48 81t-17 104t17 104t50 81.5t81 53.5t111 19q42 0 80 -13t67 -33v192q0 46 -13.5 59t-35.5 11l-13 -2q-1 1 -1 2v4q-1 2 -1 4q0 1 -1 2l131 14h14v-87v-555
q0 -31 3.5 -50t10.5 -29.5t16 -13.5t20 -2l13 1zM453 101v293q-11 19 -26.5 35.5t-33.5 29t-38.5 20t-39.5 7.5q-45 0 -80 -16t-58.5 -44.5t-36 -67.5t-12.5 -86q0 -54 13.5 -99t38.5 -77.5t58.5 -50.5t74.5 -18q39 0 78 18.5t62 47.5v8z" />
    <glyph glyph-name="e" unicode="e" horiz-adv-x="563" 
d="M132 331q-6 -32 -6 -67q0 -48 13.5 -89t37.5 -70t57 -45.5t73 -16.5q38 0 72 7.5t61 20.5t46 31t26 40l10 -3q-11 -33 -33.5 -60t-53.5 -47t-69 -31t-78 -11q-54 0 -99 18t-78 50t-51 76.5t-18 97.5q0 61 20 112t56 88t85.5 57.5t108.5 20.5q42 0 78.5 -10.5t65.5 -32
t49 -55.5t28 -81h-88h-312h-1zM505 354h6h-6zM440 353q-17 73 -52.5 106t-80.5 33q-62 0 -106.5 -38.5t-63.5 -103.5z" />
    <glyph glyph-name="f" unicode="f" horiz-adv-x="368" 
d="M38 0q0 3 1 6l2 6h13q22 0 36 4.5t14 18.5v423h-95v9l95 33q0 56 15 103t44 80.5t71.5 52.5t97.5 19q33 0 60 -5.5t47 -15.5t31 -24t11 -30q0 -19 -19 -19q-21 0 -39 11t-36 23.5t-38 23.5t-45 11q-29 0 -51.5 -17t-37.5 -47.5t-23 -72.5t-8 -93h174v-42h-174v-423
q0 -14 13.5 -18.5t35.5 -4.5h13v-2q0 -1 0.5 -2t0.5 -2q0 -2 0.5 -3t0.5 -2t1 -1h-211v0z" />
    <glyph glyph-name="g" unicode="g" horiz-adv-x="540" 
d="M156 350q0 -63 31 -103t79 -40t79 40t31 103q0 31 -8 56.5t-23 44.5t-35 29.5t-44 10.5t-44 -10.5t-35 -29.5t-23 -44.5t-8 -56.5zM164 4q-24 -12 -38 -33t-14 -47q0 -30 12.5 -55t35 -43t53.5 -28t68 -10q35 0 64 9t50 25.5t33 39.5t12 50q0 40 -32.5 65t-104.5 25h-119
h-10t-10 1v1zM144 7q-41 9 -65.5 35.5t-24.5 63.5q0 35 37 59.5t100 34.5q-54 17 -85.5 57t-31.5 94q0 35 14 64.5t39.5 50.5t60 33t76.5 12q62 0 107.5 -25t66.5 -67q19 34 50 55.5t63 21.5q23 0 38 -15.5t15 -39.5q0 -17 -9.5 -27.5t-23.5 -10.5q-17 0 -27 8t-10 20
q0 14 -4.5 23t-12.5 9q-17 0 -36.5 -17t-34.5 -44q9 -24 9 -51q0 -36 -14 -65.5t-39.5 -51t-60 -33.5t-76.5 -12q-72 0 -118 -16.5t-46 -42.5q0 -21 24 -34t62 -13h124q102 -1 148 -43t46 -108q0 -35 -17 -64.5t-47.5 -51t-72.5 -33.5t-93 -12q-50 0 -92 10t-72.5 28
t-47.5 42.5t-17 54.5q0 32 27 59.5t72 41.5h-1z" />
    <glyph glyph-name="h" unicode="h" horiz-adv-x="626" 
d="M37 725l-2 6q-1 3 -1 6l131 14h15v-97v-269q20 28 45.5 51t52.5 39.5t55 26t53 9.5q33 0 59 -13t43.5 -36.5t26.5 -55.5t9 -70v-300q0 -14 13.5 -18.5t35.5 -4.5h13v-2q0 -1 0.5 -2t0.5 -2q0 -2 0.5 -3t0.5 -2t1 -1h-210q0 1 0.5 5t1.5 6h13q22 0 36 4.5t14 18.5v300
q0 53 -26.5 86t-77.5 33q-20 0 -42 -7t-43.5 -19.5t-40.5 -29.5t-34 -37v-326q0 -14 13.5 -18.5t35.5 -4.5h13v-2q0 -1 0.5 -2t0.5 -2q0 -2 0.5 -3t0.5 -2t1 -1h-211q0 3 1 6l2 6h13q22 0 36 4.5t14 18.5v611q0 26 -3.5 42.5t-10.5 25t-16 11t-20 1.5l-13 -2v1z" />
    <glyph glyph-name="i" unicode="i" horiz-adv-x="281" 
d="M149 615q-23 0 -37.5 14.5t-14.5 37.5t14.5 37t37.5 14t37 -14t14 -37t-14 -37.5t-37 -14.5zM46 473l-2 6q-1 3 -1 6l131 14h15v-97v-368q0 -14 11.5 -18.5t30.5 -4.5h13q0 -2 1 -6t1 -5h-195v1q0 1 0.5 2t0.5 3l2 6h12q19 0 31 4.5t12 18.5v361q0 26 -3.5 42.5t-10.5 25
t-16 11t-20 1.5l-13 -2v-1z" />
    <glyph glyph-name="j" unicode="j" horiz-adv-x="268" 
d="M139 615q-23 0 -37.5 14.5t-14.5 37.5t14.5 37t37.5 14t37 -14t14 -37t-14 -37.5t-37 -14.5zM34 480q-1 3 -1 6l131 14h15v-97v-356q0 -24 -8.5 -49.5t-24 -49t-36.5 -43.5t-46 -35q-42 -24 -71 -39t-34 -16q-26 -2 -43 10.5t-17 34.5q0 17 12.5 28.5t32.5 11.5
q12 0 25 -3t26.5 -6.5t27 -6.5t25.5 -3q22 13 36.5 59.5t14.5 106.5v349q0 26 -3.5 42.5t-10.5 25t-16 11t-20 1.5l-13 -2z" />
    <glyph glyph-name="k" unicode="k" horiz-adv-x="598" 
d="M580 9q0 -2 1 -6t1 -5h-32h-105h-65q1 0 1 1q0 3 1 5v4q0 1 1 2h20q14 0 18.5 4.5t-8.5 18.5l-224 245v-245q0 -14 11.5 -18.5t30.5 -4.5h13q0 -2 1 -6t1 -5h-195v1q0 1 0.5 2t0.5 3l2 6h12q19 0 31 4.5t12 18.5v611q0 26 -3.5 42.5t-10.5 25t-16 11t-20 1.5l-13 -2l-2 6
q-1 3 -1 6l131 14h15v-97v-373l19 14q81 59 125 97t60 59.5t9 29.5t-28 8h-19q-1 1 -1 2v4q-1 2 -1 4v2h137h38h33v-2q0 -1 -0.5 -1.5t-0.5 -2.5t-0.5 -2.5t-0.5 -1.5v-2h-27q-8 0 -18 -3t-25 -13l-218 -159l248 -277q12 -14 19.5 -18.5t12.5 -4.5h29v-3z" />
    <glyph glyph-name="l" unicode="l" horiz-adv-x="271" 
d="M34 730q-1 3 -1 6l131 14h15v-97v-618q0 -14 13 -18.5t33 -4.5h12l2 -6v-5q0 -1 1 -1h-203q1 0 1 1q0 3 1 5v4q0 1 1 2h13q20 0 33 4.5t13 18.5v611q0 26 -3.5 42.5t-10.5 25t-16 11t-20 1.5l-13 -2z" />
    <glyph glyph-name="m" unicode="m" horiz-adv-x="918" 
d="M689 1q0 1 0.5 5t1.5 6h13q19 0 30.5 10.5t11.5 43.5v269q0 51 -23.5 83.5t-76.5 32.5q-19 0 -39.5 -6t-40.5 -17t-38 -26t-31 -33q1 -8 1.5 -16.5t0.5 -17.5v-269q0 -33 10 -43.5t25 -10.5h13v-2q0 -1 0.5 -2t0.5 -2q0 -2 0.5 -3t0.5 -2v-1h-187v1q0 1 0.5 2t0.5 3l2 6
h12q19 0 31 10.5t12 43.5v269q0 51 -23.5 83.5t-76.5 32.5q-38 0 -79 -23.5t-68 -61.5v-300q0 -33 11 -43.5t28 -10.5h12v-2q0 -1 0.5 -2t0.5 -2q0 -2 0.5 -3t0.5 -2t1 -1h-199v1q0 1 0.5 2t0.5 3l2 6h12q22 0 36 10.5t14 43.5v328q0 26 -3.5 42t-10.5 24.5t-16 11t-20 1.5
l-12 -2q-1 0 -1 1t-0.5 2t-0.5 3q0 1 -0.5 2t-0.5 2v1l131 18h14v-97v-14q19 27 42.5 49t47.5 38t47 25t43 9q63 0 97.5 -34t44.5 -91v4q19 27 42.5 49t48 38t48.5 25t45 9q39 0 66.5 -13t45.5 -36.5t26.5 -55.5t8.5 -70v-269q0 -33 14 -43.5t36 -10.5h12q1 -2 2 -6.5
t1 -5.5h-202v1z" />
    <glyph glyph-name="n" unicode="n" horiz-adv-x="591" 
d="M30 471q0 5 -1 7l-2 4l131 18h15v-97v-22q21 28 44.5 51.5t47 41t46 27t41.5 9.5q36 0 63 -13.5t46 -37.5t28.5 -57t9.5 -72v-295q0 -14 13 -18.5t33 -4.5h13v-2q0 -1 0.5 -2t0.5 -2q0 -2 0.5 -3t0.5 -2t1 -1h-203v1q0 1 0.5 2t0.5 3l2 6h12q20 0 33 4.5t13 18.5v295
q0 55 -28.5 90t-82.5 35q-29 0 -66.5 -27t-68.5 -69v-324q0 -14 13 -18.5t33 -4.5h12l2 -6v-5q0 -1 1 -1h-203q1 0 1 1q0 3 1 5v4q0 1 1 2h13q20 0 33 4.5t13 18.5v359q0 52 -14 67t-36 12l-13 -2v0z" />
    <glyph glyph-name="o" unicode="o" horiz-adv-x="629" 
d="M313 11q40 0 73.5 17.5t58 49.5t38 75.5t13.5 96.5q0 52 -13.5 96t-38 76t-58 49.5t-73.5 17.5t-73.5 -17.5t-58 -49.5t-38 -76t-13.5 -96q0 -53 13.5 -96.5t38 -75.5t58 -49.5t73.5 -17.5zM42 250q0 57 20 104.5t56 82t86 54t109 19.5q60 0 110 -19.5t86 -54t56 -82
t20 -104.5t-20 -105t-56 -82.5t-86 -53.5t-110 -19q-59 0 -109 19t-86 53.5t-56 82.5t-20 105z" />
    <glyph glyph-name="p" unicode="p" horiz-adv-x="617" 
d="M31 470q0 5 -1 7l-2 4l131 18h15v-63q23 33 66.5 53t92.5 20q52 0 96 -18.5t76 -52.5t49.5 -80.5t17.5 -102.5q0 -51 -17.5 -98.5t-49.5 -83.5t-76 -57.5t-96 -21.5q-48 0 -89.5 17.5t-69.5 46.5v-208q0 -36 13.5 -47t35.5 -11h13v-2q0 -1 0.5 -2t0.5 -2q0 -2 0.5 -3
t0.5 -2t1 -1h-211q0 3 1 6l2 6h13q22 0 36 11t14 47v544q0 52 -14 67t-36 12l-13 -2v-1zM175 401v-299q23 -41 64 -66t87 -25q35 0 64 18t50 48.5t33 70t12 82.5q0 54 -14 99t-39 78t-59.5 51t-76.5 18q-34 0 -67 -20t-55 -52z" />
    <glyph glyph-name="q" unicode="q" horiz-adv-x="629" 
d="M516 -185q0 -14 14 -18.5t36 -4.5h12l2 -6v-5q0 -1 1 -1h-210v1q0 1 0.5 2t0.5 3l2 6h12q22 0 36 4.5t14 18.5v243q-21 -29 -63.5 -46t-95.5 -17q-51 0 -93.5 19t-73.5 53t-48 81t-17 103q0 57 17.5 104.5t51 82t82.5 53.5t113 19q24 0 49 -5t48.5 -14.5t43.5 -22.5
t35 -28l26 60h5v-685zM436 393q-23 44 -59.5 71.5t-71.5 27.5q-43 0 -76 -16t-55.5 -45t-34 -69t-11.5 -88q0 -54 13.5 -99t38 -78t58 -51t73.5 -18q39 0 73 15.5t52 41.5v308z" />
    <glyph glyph-name="r" unicode="r" horiz-adv-x="448" 
d="M35 471q0 5 -1 7l-2 4l131 18h15v-97v-8q26 51 70 83t91 32q44 0 72.5 -22.5t27.5 -57.5q-1 -21 -14 -34t-33 -13q-21 0 -34.5 13t-12.5 34q1 19 -11.5 31t-32.5 12q-30 0 -64 -32t-58 -83v-323q0 -14 13.5 -18.5t35.5 -4.5h13v-2q0 -1 0.5 -2t0.5 -2q0 -2 0.5 -3t0.5 -2
t1 -1h-203v1q0 1 0.5 2t0.5 3l2 6h12q19 0 31 4.5t12 18.5v359q0 52 -14 67t-36 12l-13 -2h-1z" />
    <glyph glyph-name="s" unicode="s" horiz-adv-x="459" 
d="M383 367q-1 0 -5 0.5t-6 1.5v12q0 25 -19.5 52t-52.5 44q-30 14 -62 17h1h-15l14 -1h-15q-42 0 -69 -24t-27 -62q0 -39 34.5 -74t98.5 -54q73 -20 111.5 -61.5t38.5 -89.5q0 -30 -12.5 -55.5t-34.5 -44t-52.5 -29t-67.5 -10.5q-41 0 -82 19q-35 14 -56 25.5t-21 13.5v-16
l-6 -2q-3 -1 -6 -1v66v59h1q1 0 2 -0.5t3 -0.5q1 0 2 -0.5t2 -0.5h2v-12q0 -16 8 -35h1q20 -43 61.5 -70.5t88.5 -27.5q46 0 75.5 28t29.5 72q0 35 -31.5 66t-91.5 48q-75 21 -114.5 65.5t-39.5 95.5q0 28 11 51.5t31.5 41t48.5 27t61 9.5q49 0 91 -20h1q25 -12 41 -10.5
t16 9.5v21h12v-84v-60z" />
    <glyph glyph-name="t" unicode="t" horiz-adv-x="385" 
d="M341 458h-164l-2 -321q0 -57 24 -83t62 -26q34 0 63 19t42 49l9 -4q-18 -45 -56.5 -73.5t-82.5 -28.5q-61 0 -99.5 39t-38.5 126v306h-65v10l139 149h5v-120h164v-42z" />
    <glyph glyph-name="u" unicode="u" horiz-adv-x="579" 
d="M27 490q0 2 -1 6t-1 5h131v-35v-302q0 -52 29.5 -85t76.5 -33q23 0 45.5 7t42 19.5t35.5 30t26 38.5v324q0 14 -10 18.5t-26 4.5h-12l-2 6q0 2 -0.5 2.5t-0.5 1.5v2h131v-35v-377q0 -49 14 -63t36 -12l12 1l2 -6v-4q0 -1 1 -2l-131 -12h-14v92v38q-13 -29 -32.5 -53
t-44 -41t-52.5 -26.5t-57 -9.5q-32 0 -59.5 13t-47 36t-30.5 54.5t-11 69.5v302q0 14 -10 18.5t-26 4.5h-13z" />
    <glyph glyph-name="v" unicode="v" horiz-adv-x="540" 
d="M362 490q0 2 -1 6t-1 5h72h36h60v-2q0 -1 -0.5 -1.5t-0.5 -2.5t-0.5 -2.5t-0.5 -1.5v-2h-25q-17 0 -33 -13.5t-32 -57.5l-168 -427h-24l-173 460q-10 23 -19.5 30.5t-20.5 7.5h-27q0 2 -1 6t-1 5h49h87h57v-2q0 -1 -0.5 -1.5t-0.5 -2.5t-0.5 -2.5t-0.5 -1.5v-2h-24
q-12 0 -17 -7.5t5 -33.5l124 -354l128 349q10 28 2 37t-27 9h-23z" />
    <glyph glyph-name="w" unicode="w" horiz-adv-x="845" 
d="M833 499q0 -1 -0.5 -5t-1.5 -6h-25q-18 0 -34 -13.5t-32 -57.5v1l-174 -428h-23l174 459q8 25 -0.5 32.5t-27.5 7.5h-23q0 2 -1 6t-1 5h72h37h60v-1zM37 489q0 2 -1 6t-1 5h46h89h51q-1 -1 -1 -2t-0.5 -1.5t-0.5 -2.5t-0.5 -2.5t-0.5 -1.5v-2h-24q-9 0 -13 -5.5t4 -24.5
l128 -366l100 258l-39 108q-7 19 -15 24.5t-17 5.5h-28v2q0 1 -0.5 1.5t-0.5 2.5t-0.5 2.5t-0.5 1.5v2h47h89h50v-2q0 -1 -0.5 -1.5t-0.5 -2.5t-0.5 -2.5t-0.5 -1.5v-2h-25q-9 0 -12.5 -5.5t3.5 -24.5l119 -366l-38 -102l-115 320l-131 -320h-24l-178 472q-8 16 -15.5 20.5
t-15.5 4.5h-27v2z" />
    <glyph glyph-name="x" unicode="x" horiz-adv-x="567" 
d="M6 -1q0 1 0.5 5t1.5 6h26q11 0 26 9.5t41 40.5l132 174l-151 214q-17 23 -25 31t-12 8h-30v2q0 1 -0.5 1.5t-0.5 2.5t-0.5 2.5t-0.5 1.5v2h34h98h61q-1 -1 -1 -2v-4q-1 -2 -1 -4v-2h-22q-13 0 -11.5 -13t30.5 -54l88 -124l89 127q27 39 25.5 51.5t-17.5 12.5h-21
q-1 1 -1 2v4q-1 2 -1 4q0 1 -1 2h69h36h49q-1 -1 -1 -2v-4l-2 -6h-26q-12 0 -26 -8t-34 -33l-125 -169l150 -212q25 -33 38 -43.5t21 -10.5h27v-2q0 -1 0.5 -2t0.5 -2q0 -2 0.5 -3t0.5 -2v-1h-41h-98h-61v1q0 1 0.5 2t0.5 3l2 6h21q13 0 11.5 13t-30.5 54l-98 139l-99 -139
l-14 -20q-18 -28 -12.5 -37t23.5 -9h21v-2q0 -1 0.5 -2t0.5 -2q0 -2 0.5 -3t0.5 -2v-1h-75h-37h-48z" />
    <glyph glyph-name="y" unicode="y" horiz-adv-x="560" 
d="M547 500q0 -1 -0.5 -5t-1.5 -6h-25q-17 0 -33.5 -14t-32.5 -57l-173 -427l-58 -152q-11 -28 -35.5 -46t-53.5 -18q-20 0 -33.5 14t-13.5 36q0 17 13 28t33 11q7 0 12.5 -4.5t10.5 -9.5t10.5 -9.5t12.5 -4.5q20 0 30 25l49 130l-185 457h-1q-10 26 -20 33.5t-21 7.5h-27v2
q0 1 -0.5 1.5t-0.5 2.5t-0.5 2.5t-0.5 1.5v2h49h87h57v-2q0 -1 -0.5 -1.5t-0.5 -2.5t-0.5 -2.5t-0.5 -1.5v-2h-24q-12 0 -16.5 -7.5t6.5 -33.5l137 -355l-38 -102l171 452q10 28 2 37t-27 9h-23q0 2 -1 6t-1 5h72h36h60v0z" />
    <glyph glyph-name="z" unicode="z" horiz-adv-x="495" 
d="M97 532q2 0 6 -1t5 -1l-3 -9q-2 -9 9 -14.5t22 -5.5h236h82v-19l-317 -460l78 2h-1h9l35 1q43 1 74.5 6t54 12.5t37.5 17.5t26 22l12 13l1 2q1 1 2 1q-4 -24 -7.5 -49.5t-6.5 -49.5h-77h-250h-84v19l319 460l-123 -3q-67 -5 -102 -21t-55 -39l-11 -12l-2 -2q-1 -1 -2 -1
t-1 -1q8 32 17 65l18 66z" />
    <glyph glyph-name="braceleft" unicode="{" horiz-adv-x="456" 
d="M395 -239q-114 0 -154 39.5t-40 134.5v131q0 86 -30.5 113t-110.5 32v27q80 5 110.5 32t30.5 112v132q0 95 40 134t154 39v-20q-78 0 -100.5 -30.5t-22.5 -107.5v-96q0 -113 -36 -154t-112 -55q76 -14 112 -54.5t36 -153.5v-97q0 -77 22.5 -107t100.5 -30v-21z" />
    <glyph glyph-name="bar" unicode="|" horiz-adv-x="182" 
d="M122 800v-1050h-62v1050h62z" />
    <glyph glyph-name="braceright" unicode="}" horiz-adv-x="456" 
d="M60 -218q78 0 100.5 30t22.5 107v97q0 113 36 153.5t113 54.5q-77 14 -113 55t-36 154v96q0 77 -22.5 107.5t-100.5 30.5v20q115 0 155 -39t40 -134v-132q0 -85 30.5 -112t109.5 -32v-27q-79 -5 -109.5 -32t-30.5 -113v-131q0 -95 -40 -134.5t-155 -39.5v21z" />
    <glyph glyph-name="exclamdown" unicode="&#xa1;" horiz-adv-x="237" 
d="M119 505q25 0 40.5 -15.5t15.5 -40.5t-15.5 -41t-40.5 -16t-40.5 16t-16.5 41q1 25 16.5 40.5t40.5 15.5zM119 -255q-33 0 -43 28.5t-6 73.5l41 443h15l42 -443q5 -45 -5 -73.5t-44 -28.5z" />
    <glyph glyph-name="cent" unicode="&#xa2;" horiz-adv-x="521" 
d="M303 577v-65q33 0 63.5 -8t55.5 -22t43 -33t27 -42q5 -17 -29 -17q-21 0 -28 17q-14 38 -51 62t-82 25v-453h12q28 0 54 7.5t48 20.5t38.5 31t25.5 40l12 -4q-12 -30 -32 -55t-45 -44t-54 -30.5t-59 -14.5v-66h-28v65q-51 2 -93 21t-73 51t-48 76t-17 97q0 56 17 104
t47.5 83.5t73 58t93.5 27.5v66zM275 493q-33 -5 -60.5 -23.5t-47 -47t-30 -66t-10.5 -81.5q0 -45 10.5 -83t30 -68t47 -50t60.5 -28v447z" />
    <glyph glyph-name="sterling" unicode="&#xa3;" horiz-adv-x="512" 
d="M396 549q-18 44 -37 68t-55 22q-24 -1 -44 -65.5t-30.5 -129t-19.5 -120.5l112 6l1 -20l-116 -6q-5 -38 -13 -92.5t-24 -97.5q12 3 25 4q53 3 94.5 -38.5t81.5 -39.5q31 2 41 9.5t8 35.5q-1 28 -19 67l68 15q3 -60 -35.5 -124t-80.5 -66q-52 -3 -92.5 57t-78.5 58
q-10 0 -20 -4q-11 -38 -33.5 -80.5t-41.5 -43.5q-15 -1 -26.5 10.5t-12.5 29.5q-1 27 24.5 53t62.5 44q5 40 7.5 91.5t7.5 108.5l-69 -4l-1 20l72 4q3 57 16 134t49.5 139.5t104.5 65.5q42 2 81.5 -26.5t50.5 -45.5z" />
    <glyph glyph-name="currency" unicode="&#xa4;" horiz-adv-x="669" 
d="M556 302q0 -85 -57 -148l64 -41q12 -8 12 -17q0 -4 -2 -7l-25 -25q-4 -3 -7 -3q-9 0 -18 13l-41 63q-62 -57 -148 -57t-148 57l-46 -69q-4 -7 -13 -7q-4 0 -7 4l-24 24q-3 2 -3 7q0 9 12 17l63 41q-56 62 -56 148t56 148l-62 41q-13 9 -13 18q0 3 3 7l25 25q3 2 7 2
q9 0 17 -12l41 -63q62 56 148 56t148 -56l41 63q9 13 18 13q3 0 6 -3l25 -24q3 -4 3 -8q0 -9 -6 -13l-70 -46q57 -62 57 -148zM512 302q0 73 -52.5 125.5t-125.5 52.5t-125.5 -52.5t-52.5 -125.5t52.5 -125.5t125.5 -52.5t125.5 52.5t52.5 125.5z" />
    <glyph glyph-name="section" unicode="&#xa7;" horiz-adv-x="677" 
d="M546 306q0 -56 -26 -98t-61 -58q19 -26 28.5 -56t9.5 -69q0 -79 -41.5 -127.5t-112.5 -48.5q-61 0 -100.5 25.5t-66.5 68.5l67 37q16 -46 38 -76t71 -30q46 0 76 27.5t30 67.5q0 72 -35 114t-122.5 78.5t-124 84t-36.5 126.5q0 56 25.5 97.5t60.5 58.5q-14 18 -25.5 49
t-11.5 76q0 78 41 127t113 49q61 0 100 -25.5t66 -68.5l-66 -37q-19 52 -40.5 79t-68.5 27q-45 0 -75.5 -27.5t-30.5 -67.5q0 -75 37 -117.5t125.5 -78t122 -84.5t33.5 -123zM509 278q0 68 -51.5 103t-113 60t-102.5 67q-33 -17 -49.5 -48.5t-16.5 -59.5q0 -67 51 -102.5
t109.5 -59t106.5 -68.5q30 11 48 42.5t18 65.5z" />
    <glyph glyph-name="dieresis" unicode="&#xa8;" horiz-adv-x="853" 
d="M370 615q-23 0 -37.5 14.5t-14.5 37.5t14.5 37t37.5 14t37.5 -14t14.5 -37t-14.5 -37.5t-37.5 -14.5zM219 615q-23 0 -37.5 14.5t-14.5 37.5t14.5 37t37.5 14t37.5 -14t14.5 -37t-14.5 -37.5t-37.5 -14.5z" />
    <glyph glyph-name="copyright" unicode="&#xa9;" horiz-adv-x="778" 
d="M388 673q148 0 251.5 -103.5t102.5 -250.5q1 -148 -102.5 -251t-251.5 -103q-147 0 -250.5 103t-103.5 251q0 147 103.5 250.5t250.5 103.5zM388 642q-134 0 -228.5 -94.5t-94.5 -228.5q0 -133 94.5 -228.5t228.5 -94.5q133 -1 228.5 94.5t94.5 228.5q1 134 -94.5 228.5
t-228.5 94.5zM538 143v48v45h-1l-2 -1q0 -1 -1 -3q-2 -4 -2 -6q-3 -8 -9.5 -19t-16 -21.5t-20.5 -19.5t-23 -15q-17 -8 -37.5 -13t-45.5 -5q-30 0 -56 14.5t-44.5 40t-29 61.5t-10.5 78t10.5 77.5t30 61t46.5 39.5t59 14q38 0 65 -12q29 -13 51.5 -39.5t29.5 -46.5
q0 -2 0.5 -3.5t0.5 -2.5t1 -2q1 0 4 -1v46v47l-3 -2q-1 -1 -1 -3q-1 -2 -1 -4t-1 -4q-1 -5 -11.5 -2t-26.5 12q-20 14 -47 22t-65 8q-43 0 -78.5 -15t-61.5 -42t-40.5 -64.5t-14.5 -82.5t14 -82t39.5 -64t60 -42t76.5 -15q38 0 66.5 7t49.5 19q3 1 15.5 3t24.5 4q5 0 5 -11
v-4z" />
    <glyph glyph-name="guillemotleft" unicode="&#xab;" horiz-adv-x="380" 
d="M331 35h-18l-121 172l121 172h18l-67 -172zM218 18h-18l-152 189l152 189h18l-98 -189z" />
    <glyph glyph-name="registered" unicode="&#xae;" horiz-adv-x="778" 
d="M388 837q148 0 251.5 -103t102.5 -251q1 -147 -102.5 -250.5t-251.5 -103.5q-147 0 -250.5 103.5t-103.5 250.5q0 148 103.5 251t250.5 103zM388 807q-134 0 -228.5 -95t-94.5 -229q0 -133 94.5 -228t228.5 -95q133 0 228.5 95t94.5 228q1 134 -94.5 229t-228.5 95z
M610 285v6q-17 0 -27.5 1t-17.5 4t-13 10t-13 19q-39 60 -67.5 103t-41.5 62q44 8 69.5 32t25.5 65q0 53 -40.5 86t-104.5 33h-73h-98v-1q0 -1 0.5 -1.5t0.5 -1.5l1 -2h7q16 0 26 -11t10 -46v-295q0 -35 -10 -46t-26 -11h-7l-1 -2q0 -2 -0.5 -2t-0.5 -1v-1h142v4l-1 2h-7
q-16 0 -26 11t-10 46v138h71q8 -16 34.5 -59t64.5 -102q9 -14 17 -22t21.5 -12t35.5 -5t59 -1zM307 695h58q45 0 73.5 -27t28.5 -70q0 -51 -24.5 -75.5t-62.5 -24.5h-73v145v52z" />
    <glyph glyph-name="degree" unicode="&#xb0;" horiz-adv-x="395" 
d="M208 400q21 0 38.5 8t30 21.5t19.5 31t7 37.5q0 21 -8 39t-21 31t-30 20.5t-36 7.5q-21 0 -38.5 -8t-30.5 -21.5t-20 -31.5t-7 -37q0 -21 8 -39t21 -31t30.5 -20.5t36.5 -7.5zM96 498q0 22 8 42.5t23 36t35.5 24.5t45.5 9q22 0 42 -8.5t35.5 -23.5t24.5 -35.5t9 -44.5
q0 -22 -8 -42.5t-23 -36t-35.5 -24.5t-44.5 -9q-22 0 -42.5 8.5t-36 23.5t-24.5 35.5t-9 44.5z" />
    <glyph glyph-name="acute" unicode="&#xb4;" horiz-adv-x="853" 
d="M311 572l115 147q24 30 40.5 49t21.5 19q15 0 27 -12t12 -28q0 -5 -18 -22t-47 -42l-141 -120z" />
    <glyph glyph-name="mu" unicode="&#xb5;" horiz-adv-x="543" 
d="M524 44q-70 -57 -101 -57q-21 0 -35 21t-14 54q-52 -38 -95 -56.5t-73 -18.5q-47 0 -81 38v-65q0 -39 18.5 -95.5t40.5 -63.5l-68 -40q-18 31 -18 131v473h-70v16l115 41h24v-288q0 -57 23 -81t69 -24q19 0 49.5 15.5t65.5 42.5v278h-70v16l115 41h24v-342q0 -18 5 -29.5
t21 -11.5q21 0 45 19z" />
    <glyph glyph-name="paragraph" unicode="&#xb6;" horiz-adv-x="539" 
d="M505 637v-28h-65l-2 -804l-35 -44v848h-93l1 -807l-38 -41v498q-120 0 -180 49t-60 140t60 140t165 49h247z" />
    <glyph glyph-name="cedilla" unicode="&#xb8;" horiz-adv-x="621" 
d="M316 5l-19 -50q29 -11 48 -31.5t19 -61.5q0 -38 -30.5 -66t-68.5 -28q-21 0 -38.5 10.5t-17.5 26.5q0 12 5 19.5t13 7.5q15 0 31 -16t29 -16q15 0 28 13.5t13 31.5q0 22 -20 36.5t-55 21.5l41 102h22z" />
    <glyph glyph-name="guillemotright" unicode="&#xbb;" horiz-adv-x="380" 
d="M116 207l-68 172h18l122 -172l-122 -172h-18zM260 207l-98 189h18l152 -189l-152 -189h-18z" />
    <glyph glyph-name="onequarter" unicode="&#xbc;" horiz-adv-x="808" 
d="M272 279h-183v24q50 0 58 8.5t8 28.5v259q-28 -20 -64 -30l-9 22q26 14 57.5 39.5t43.5 50.5h23v-341q0 -20 8.5 -28.5t57.5 -8.5v-24zM615 147v178l-117 -178h117zM708 1h-135v24q27 0 34.5 5.5t7.5 31.5v45h-160v20l184 281h27v-261h60v-40h-60v-45q0 -26 7.5 -31.5
t34.5 -5.5v-24zM643 681h31l-466 -711h-31z" />
    <glyph glyph-name="onehalf" unicode="&#xbd;" horiz-adv-x="808" 
d="M253 279h-183v24q49 0 57.5 8.5t8.5 28.5v259q-28 -20 -65 -30l-8 22q25 14 56.5 39.5t43.5 50.5h24v-341q0 -20 8 -28.5t58 -8.5v-24zM608 681h31l-466 -711h-31zM729 1h-241v21q21 37 131 141q36 35 52 66t16 61q0 39 -17.5 62.5t-53.5 23.5q-30 0 -51.5 -18t-21.5 -43
q0 -21 11.5 -37.5t11.5 -22.5t-6 -11l-16 -13q-6 -4 -10 -4q-14 0 -24.5 24t-10.5 41q0 47 36 78.5t93 31.5q49 0 83.5 -30.5t34.5 -79.5q0 -77 -80 -137q-72 -53 -123 -106h133q22 0 30 7t13 41h26z" />
    <glyph glyph-name="threequarters" unicode="&#xbe;" horiz-adv-x="808" 
d="M327 399q0 -59 -42 -94.5t-113 -35.5q-33 0 -58 12t-35 22t-10 20q0 2 1.5 5.5t5.5 6.5l21 13q4 2 9 2q4 0 11 -9.5t26 -27.5t39 -18q43 0 66.5 25.5t23.5 62.5q0 39 -18.5 64.5t-46.5 25.5q-17 0 -34 -6l-7 21q38 13 60 39.5t22 64.5q0 27 -17 44.5t-45 17.5
q-24 0 -41 -14t-17 -40q0 -8 7 -20t7 -15q0 -13 -10 -16l-20 -6q-3 -1 -7 -1q-9 0 -15 16t-6 28q0 41 33.5 68t82.5 27q45 0 72.5 -24.5t27.5 -62.5q0 -24 -13 -46.5t-41 -39.5q36 -7 58.5 -37.5t22.5 -71.5zM657 681h31l-466 -711h-31zM628 147v178l-117 -178h117zM721 1
h-135v24q27 0 34.5 5.5t7.5 31.5v45h-160v20l184 281h27v-261h60v-40h-60v-45q0 -26 7.5 -31.5t34.5 -5.5v-24z" />
    <glyph glyph-name="questiondown" unicode="&#xbf;" horiz-adv-x="300" 
d="M175 505q25 0 40.5 -15.5t16.5 -40.5q-1 -25 -16.5 -41t-40.5 -16t-40.5 16t-15.5 41t15.5 40.5t40.5 15.5zM190 295l13 -235q-46 0 -76 -3t-48.5 -9t-28.5 -14t-16 -18q-11 -15 -17.5 -32.5t-6.5 -28.5q0 -58 32.5 -94.5t83.5 -36.5q14 0 30.5 7t30.5 7q19 0 31 -11
t12 -28q0 -26 -21 -42.5t-54 -16.5q-37 0 -68 15t-53.5 42.5t-35 65t-12.5 82.5q0 29 8.5 59.5t21.5 50.5q12 19 26 34.5t32.5 26.5t43 17.5t57.5 6.5l1 155h14z" />
    <glyph glyph-name="Agrave" unicode="&#xc0;" horiz-adv-x="761" 
d="M409 822l-10 -9l-141 120q-29 24 -47 41.5t-18 22.5q0 16 12 28t28 12q5 0 21.5 -19t39.5 -49zM204 211q-18 -60 -23 -98.5t0.5 -60.5t19.5 -30.5t34 -8.5h21v-2q0 -1 0.5 -2t0.5 -2q0 -2 0.5 -3t0.5 -2v-1h-123h-24h-97v1q0 3 1 5v4q0 1 1 2h23q16 0 32 8.5t34 30.5
t37 61t41 100l170 499l-3 10q21 2 40 15.5t28 32.5h10l16 -48l190 -571q15 -42 28 -69t24 -42.5t20.5 -21.5t18.5 -6h25v-2q0 -3 1 -4v-5q0 -1 1 -1h-68h-98h-102v1q0 1 0.5 2t0.5 3l2 6h22q16 0 27 7.5t14 28t-3.5 56.5t-25.5 93h1l-25 77h-272zM490 296l-128 392
l-130 -392h258z" />
    <glyph glyph-name="Aacute" unicode="&#xc1;" horiz-adv-x="761" 
d="M394 822l115 147q24 30 40.5 49t21.5 19q16 0 28 -12t12 -28q0 -5 -18 -22t-47 -42l-142 -120zM204 211q-18 -60 -23 -98.5t0.5 -60.5t19.5 -30.5t34 -8.5h21v-2q0 -1 0.5 -2t0.5 -2q0 -2 0.5 -3t0.5 -2v-1h-123h-24h-97v1q0 3 1 5v4q0 1 1 2h23q16 0 32 8.5t34 30.5
t37 61t41 100l170 499l-3 10q21 2 40 15.5t28 32.5h10l16 -48l190 -571q15 -42 28 -69t24 -42.5t20.5 -21.5t18.5 -6h25v-2q0 -3 1 -4v-5q0 -1 1 -1h-68h-98h-102v1q0 1 0.5 2t0.5 3l2 6h22q16 0 27 7.5t14 28t-3.5 56.5t-25.5 93h1l-25 77h-272zM490 296l-128 392
l-130 -392h258z" />
    <glyph glyph-name="Acircumflex" unicode="&#xc2;" horiz-adv-x="761" 
d="M256 806l-11 9l124 192q4 6 12.5 17t15.5 11t15.5 -11t12.5 -18l123 -191l-10 -9l-141 144zM204 211q-18 -60 -23 -98.5t0.5 -60.5t19.5 -30.5t34 -8.5h21v-2q0 -1 0.5 -2t0.5 -2q0 -2 0.5 -3t0.5 -2v-1h-123h-24h-97v1q0 3 1 5v4q0 1 1 2h23q16 0 32 8.5t34 30.5t37 61
t41 100l170 499l-3 10q21 2 40 15.5t28 32.5h10l16 -48l190 -571q15 -42 28 -69t24 -42.5t20.5 -21.5t18.5 -6h25v-2q0 -3 1 -4v-5q0 -1 1 -1h-68h-98h-102v1q0 1 0.5 2t0.5 3l2 6h22q16 0 27 7.5t14 28t-3.5 56.5t-25.5 93h1l-25 77h-272zM490 296l-128 392l-130 -392h258z
" />
    <glyph glyph-name="Atilde" unicode="&#xc3;" horiz-adv-x="761" 
d="M229 870q0 51 21.5 84t56.5 33q24 0 48 -10t48.5 -22.5t48.5 -22.5t48 -10q23 0 37.5 17t14.5 43h12q0 -51 -23 -83.5t-59 -32.5q-24 0 -48 10t-48.5 22.5t-48.5 22.5t-48 10q-21 0 -34.5 -17t-13.5 -44h-12zM204 211q-18 -60 -23 -98.5t0.5 -60.5t19.5 -30.5t34 -8.5h21
v-2q0 -1 0.5 -2t0.5 -2q0 -2 0.5 -3t0.5 -2v-1h-123h-24h-97v1q0 3 1 5v4q0 1 1 2h23q16 0 32 8.5t34 30.5t37 61t41 100l170 499l-3 10q21 2 40 15.5t28 32.5h10l16 -48l190 -571q15 -42 28 -69t24 -42.5t20.5 -21.5t18.5 -6h25v-2q0 -3 1 -4v-5q0 -1 1 -1h-68h-98h-102v1
q0 1 0.5 2t0.5 3l2 6h22q16 0 27 7.5t14 28t-3.5 56.5t-25.5 93h1l-25 77h-272zM490 296l-128 392l-130 -392h258z" />
    <glyph glyph-name="Adieresis" unicode="&#xc4;" horiz-adv-x="761" 
d="M472 865q-23 0 -37 14.5t-14 37.5t14 37t37 14t37.5 -14t14.5 -37t-14.5 -37.5t-37.5 -14.5zM321 865q-23 0 -37 14.5t-14 37.5t14 37t37 14t37.5 -14t14.5 -37t-14.5 -37.5t-37.5 -14.5zM204 211q-18 -60 -23 -98.5t0.5 -60.5t19.5 -30.5t34 -8.5h21v-2q0 -1 0.5 -2
t0.5 -2q0 -2 0.5 -3t0.5 -2v-1h-123h-24h-97v1q0 3 1 5v4q0 1 1 2h23q16 0 32 8.5t34 30.5t37 61t41 100l170 499l-3 10q21 2 40 15.5t28 32.5h10l16 -48l190 -571q15 -42 28 -69t24 -42.5t20.5 -21.5t18.5 -6h25v-2q0 -3 1 -4v-5q0 -1 1 -1h-68h-98h-102v1q0 1 0.5 2t0.5 3
l2 6h22q16 0 27 7.5t14 28t-3.5 56.5t-25.5 93h1l-25 77h-272zM490 296l-128 392l-130 -392h258z" />
    <glyph glyph-name="Aring" unicode="&#xc5;" horiz-adv-x="761" 
d="M397 829q15 0 28 6t23.5 16.5t16.5 24.5t6 29q0 33 -21 54.5t-53 21.5t-53 -21.5t-21 -54.5q0 -15 6 -29t16.5 -24.5t23.5 -16.5t28 -6zM299 905q0 42 27.5 68.5t70.5 26.5t70 -26.5t27 -68.5q0 -19 -8 -36t-21.5 -30t-31 -21t-36.5 -8q-20 0 -37.5 8t-31 21t-21.5 30
t-8 36zM204 211q-18 -60 -23 -98.5t0.5 -60.5t19.5 -30.5t34 -8.5h21v-2q0 -1 0.5 -2t0.5 -2q0 -2 0.5 -3t0.5 -2v-1h-123h-24h-97v1q0 3 1 5v4q0 1 1 2h23q16 0 32 8.5t34 30.5t37 61t41 100l170 499l-3 10q21 2 40 15.5t28 32.5h10l16 -48l190 -571q15 -42 28 -69
t24 -42.5t20.5 -21.5t18.5 -6h25v-2q0 -3 1 -4v-5q0 -1 1 -1h-68h-98h-102v1q0 1 0.5 2t0.5 3l2 6h22q16 0 27 7.5t14 28t-3.5 56.5t-25.5 93h1l-25 77h-272zM490 296l-128 392l-130 -392h258z" />
    <glyph glyph-name="Ccedilla" unicode="&#xc7;" horiz-adv-x="759" 
d="M715 35q0 22 -8 22q-23 -4 -46.5 -8t-29.5 -5q-40 -23 -93.5 -36.5t-125.5 -13.5q-79 0 -145 28.5t-114 79.5t-74.5 122t-26.5 155t27.5 155t76.5 122t117 79.5t149 28.5q72 0 122 -14.5t88 -40.5q30 -18 51 -23t23 3q1 5 2 8.5t2 6.5q1 4 1 6l6 3v-89v-87q-5 2 -6 2h-2
q0 2 -1 5q-1 2 -2 4.5t-2 6.5q-6 18 -20.5 41t-35 45.5t-45 42.5t-50.5 32t-56.5 18.5t-67.5 6.5q-61 0 -111.5 -27t-87 -75.5t-57 -115.5t-20.5 -147t19.5 -147.5t54.5 -116t83.5 -75.5t106.5 -27q48 0 87 8.5t71 24.5h-1q22 11 43.5 29t39.5 38t30.5 40.5t17.5 35.5
q1 4 2 7t2 5q1 3 1 4t1 1t3 1h2l1 1v-87v-91zM489 13l-19 -50q29 -11 48 -31.5t19 -61.5q0 -38 -30.5 -66t-68.5 -28q-21 0 -38.5 10.5t-17.5 26.5q0 12 5 19.5t13 7.5q15 0 31 -16t29 -16q15 0 28 13.5t13 31.5q0 22 -20 36.5t-55 21.5l41 102h22z" />
    <glyph glyph-name="Egrave" unicode="&#xc8;" horiz-adv-x="642" 
d="M563 637q-1 0 -5.5 1.5t-6.5 2.5v9q-2 18 -5.5 33.5t-19 26.5t-47 17t-88.5 6h-166v-95v-244h105q47 0 77 6.5t47 18.5t23.5 28.5t6.5 36.5v13l11 5v-108v-19v-108l-11 5v13q0 19 -6.5 35.5t-23.5 28.5t-47 19t-77 7h-105v-263v-32q0 -14 2.5 -25.5t11 -20t24.5 -13
t42 -4.5h112q47 0 78 6t49.5 16.5t27 25t10.5 31.5l2 13l12 4q-4 -28 -8 -57t-9 -56h-165h-190h-94h-80v1q0 1 0.5 2t0.5 3l2 6h13q14 0 25.5 4t20 15t13.5 30.5t5 50.5v526q0 31 -5 50.5t-13.5 30.5t-20 15t-25.5 4h-13l-2 6q0 2 -0.5 2.5t-0.5 1.5v2h80h94h165h165
q2 -28 3.5 -56.5t3.5 -56.5h2zM356 822l-10 -9l-142 120q-29 24 -47 41.5t-18 22.5q0 16 12 28t28 12q5 0 22 -19t40 -49z" />
    <glyph glyph-name="Eacute" unicode="&#xc9;" horiz-adv-x="642" 
d="M339 822l115 147q24 30 40.5 49t21.5 19q15 0 27 -12t12 -28q0 -5 -18 -22t-46 -42l-142 -120zM563 637q-1 0 -5.5 1.5t-6.5 2.5v9q-2 18 -5.5 33.5t-19 26.5t-47 17t-88.5 6h-166v-95v-244h105q47 0 77 6.5t47 18.5t23.5 28.5t6.5 36.5v13l11 5v-108v-19v-108l-11 5v13
q0 19 -6.5 35.5t-23.5 28.5t-47 19t-77 7h-105v-263v-32q0 -14 2.5 -25.5t11 -20t24.5 -13t42 -4.5h112q47 0 78 6t49.5 16.5t27 25t10.5 31.5l2 13l12 4q-4 -28 -8 -57t-9 -56h-165h-190h-94h-80v1q0 1 0.5 2t0.5 3l2 6h13q14 0 25.5 4t20 15t13.5 30.5t5 50.5v526
q0 31 -5 50.5t-13.5 30.5t-20 15t-25.5 4h-13l-2 6q0 2 -0.5 2.5t-0.5 1.5v2h80h94h165h165q2 -28 3.5 -56.5t3.5 -56.5h2z" />
    <glyph glyph-name="Ecircumflex" unicode="&#xca;" horiz-adv-x="642" 
d="M563 637q-1 0 -5.5 1.5t-6.5 2.5v9q-2 18 -5.5 33.5t-19 26.5t-47 17t-88.5 6h-166v-95v-244h105q47 0 77 6.5t47 18.5t23.5 28.5t6.5 36.5v13l11 5v-108v-19v-108l-11 5v13q0 19 -6.5 35.5t-23.5 28.5t-47 19t-77 7h-105v-263v-32q0 -14 2.5 -25.5t11 -20t24.5 -13
t42 -4.5h112q47 0 78 6t49.5 16.5t27 25t10.5 31.5l2 13l12 4q-4 -28 -8 -57t-9 -56h-165h-190h-94h-80v1q0 1 0.5 2t0.5 3l2 6h13q14 0 25.5 4t20 15t13.5 30.5t5 50.5v526q0 31 -5 50.5t-13.5 30.5t-20 15t-25.5 4h-13l-2 6q0 2 -0.5 2.5t-0.5 1.5v2h80h94h165h165
q2 -28 3.5 -56.5t3.5 -56.5h2zM203 806l-11 9l123 192q5 6 13.5 17t14.5 11q7 0 15.5 -11t13.5 -18l123 -191l-11 -9l-141 144z" />
    <glyph glyph-name="Edieresis" unicode="&#xcb;" horiz-adv-x="642" 
d="M417 865q-23 0 -37.5 14.5t-14.5 37.5t14.5 37t37.5 14t37.5 -14t14.5 -37t-14.5 -37.5t-37.5 -14.5zM266 865q-23 0 -37.5 14.5t-14.5 37.5t14.5 37t37.5 14t37.5 -14t14.5 -37t-14.5 -37.5t-37.5 -14.5zM563 637q-1 0 -5.5 1.5t-6.5 2.5v9q-2 18 -5.5 33.5t-19 26.5
t-47 17t-88.5 6h-166v-95v-244h105q47 0 77 6.5t47 18.5t23.5 28.5t6.5 36.5v13l11 5v-108v-19v-108l-11 5v13q0 19 -6.5 35.5t-23.5 28.5t-47 19t-77 7h-105v-263v-32q0 -14 2.5 -25.5t11 -20t24.5 -13t42 -4.5h112q47 0 78 6t49.5 16.5t27 25t10.5 31.5l2 13l12 4
q-4 -28 -8 -57t-9 -56h-165h-190h-94h-80v1q0 1 0.5 2t0.5 3l2 6h13q14 0 25.5 4t20 15t13.5 30.5t5 50.5v526q0 31 -5 50.5t-13.5 30.5t-20 15t-25.5 4h-13l-2 6q0 2 -0.5 2.5t-0.5 1.5v2h80h94h165h165q2 -28 3.5 -56.5t3.5 -56.5h2z" />
    <glyph glyph-name="Igrave" unicode="&#xcc;" horiz-adv-x="347" 
d="M45 0q0 1 1.5 5.5t2.5 6.5h13q28 0 46 18t18 74v542q0 56 -18 74t-46 18h-13l-4 12h255q-1 -1 -1 -2t-0.5 -1.5t-0.5 -2.5t-0.5 -2.5t-0.5 -1.5v-2h-13q-29 0 -47 -18t-18 -74v-542q0 -56 18 -74t47 -18h13v-2q0 -1 0.5 -2t0.5 -2q0 -2 0.5 -3t0.5 -2t1 -1h-255zM185 822
l-10 -9l-141 120q-29 24 -47 41.5t-18 22.5q0 16 12 28t27 12q5 0 22 -19t40 -49z" />
    <glyph glyph-name="Iacute" unicode="&#xcd;" horiz-adv-x="347" 
d="M170 822l115 147q24 30 40.5 49t21.5 19q16 0 28 -12t12 -28q0 -5 -18 -22t-47 -42l-142 -120zM45 0q0 1 1.5 5.5t2.5 6.5h13q28 0 46 18t18 74v542q0 56 -18 74t-46 18h-13l-4 12h255q-1 -1 -1 -2t-0.5 -1.5t-0.5 -2.5t-0.5 -2.5t-0.5 -1.5v-2h-13q-29 0 -47 -18
t-18 -74v-542q0 -56 18 -74t47 -18h13v-2q0 -1 0.5 -2t0.5 -2q0 -2 0.5 -3t0.5 -2t1 -1h-255z" />
    <glyph glyph-name="Icircumflex" unicode="&#xce;" horiz-adv-x="347" 
d="M45 0q0 1 1.5 5.5t2.5 6.5h13q28 0 46 18t18 74v542q0 56 -18 74t-46 18h-13l-4 12h255q-1 -1 -1 -2t-0.5 -1.5t-0.5 -2.5t-0.5 -2.5t-0.5 -1.5v-2h-13q-29 0 -47 -18t-18 -74v-542q0 -56 18 -74t47 -18h13v-2q0 -1 0.5 -2t0.5 -2q0 -2 0.5 -3t0.5 -2t1 -1h-255zM32 806
l-11 9l124 192q4 6 12.5 17t15.5 11q6 0 14.5 -11t13.5 -18l123 -191l-11 -9l-140 143z" />
    <glyph glyph-name="Idieresis" unicode="&#xcf;" horiz-adv-x="347" 
d="M248 865q-23 0 -37 14.5t-14 37.5t14 37t37 14t37.5 -14t14.5 -37t-14.5 -37.5t-37.5 -14.5zM97 865q-23 0 -37 14.5t-14 37.5t14 37t37 14t37.5 -14t14.5 -37t-14.5 -37.5t-37.5 -14.5zM45 0q0 1 1.5 5.5t2.5 6.5h13q28 0 46 18t18 74v542q0 56 -18 74t-46 18h-13l-4 12
h255q-1 -1 -1 -2t-0.5 -1.5t-0.5 -2.5t-0.5 -2.5t-0.5 -1.5v-2h-13q-29 0 -47 -18t-18 -74v-542q0 -56 18 -74t47 -18h13v-2q0 -1 0.5 -2t0.5 -2q0 -2 0.5 -3t0.5 -2t1 -1h-255z" />
    <glyph glyph-name="Ntilde" unicode="&#xd1;" horiz-adv-x="773" 
d="M215 870q0 51 22 84t57 33q23 0 47.5 -10t48.5 -22.5t48.5 -22.5t47.5 -10t37.5 17t14.5 43h13q0 -51 -23 -83.5t-60 -32.5q-24 0 -48 10t-48.5 22.5t-48.5 22.5t-48 10q-20 0 -33.5 -17t-13.5 -44h-13zM102 685q-26 33 -39 43.5t-22 10.5h-28v2q0 1 -0.5 1.5t-0.5 2.5
t-0.5 2.5t-0.5 1.5v2h41h71h23h22l432 -568l20 -26l-2 452q-2 40 -8 65t-16.5 39.5t-24.5 20t-30 5.5h-13l-4 12h95h29h94q0 -1 -1.5 -5.5t-2.5 -6.5h-13q-16 0 -29.5 -5t-23.5 -19t-16.5 -38t-8.5 -61l-6 -615h-19l-96 127l-378 498l2 -428q0 -57 5 -93t14.5 -56.5t22 -28
t27.5 -7.5h23l2 -6v-5q0 -1 1 -1h-94h-28h-94q0 1 0.5 5t1.5 6h23q15 0 27.5 8t22 30.5t14.5 61t5 100.5l1 445l-21 27z" />
    <glyph glyph-name="Ograve" unicode="&#xd2;" horiz-adv-x="869" 
d="M422 11q64 0 117.5 27t92 75t60 115t21.5 147t-21.5 147t-59.5 115t-91 75t-116 27q-60 0 -109.5 -27t-85.5 -75t-56 -115t-20 -147t20 -147t55.5 -115t84.5 -75t108 -27zM51 375q0 84 28 155t78 122t119 79.5t152 28.5q85 0 156 -28.5t122.5 -79.5t80 -122t28.5 -155
t-29.5 -155t-82 -122t-125.5 -79.5t-160 -28.5q-81 0 -148 28.5t-116 79.5t-76 122t-27 155zM441 822l-10 -9l-142 120q-29 24 -47 41.5t-18 22.5q0 16 12 28t28 12q5 0 22 -19t40 -49z" />
    <glyph glyph-name="Oacute" unicode="&#xd3;" horiz-adv-x="869" 
d="M426 822l115 147q23 30 40 49t21 19q16 0 28 -12t12 -28q0 -5 -18 -22t-47 -42l-141 -120zM422 11q64 0 117.5 27t92 75t60 115t21.5 147t-21.5 147t-59.5 115t-91 75t-116 27q-60 0 -109.5 -27t-85.5 -75t-56 -115t-20 -147t20 -147t55.5 -115t84.5 -75t108 -27zM51 375
q0 84 28 155t78 122t119 79.5t152 28.5q85 0 156 -28.5t122.5 -79.5t80 -122t28.5 -155t-29.5 -155t-82 -122t-125.5 -79.5t-160 -28.5q-81 0 -148 28.5t-116 79.5t-76 122t-27 155z" />
    <glyph glyph-name="Ocircumflex" unicode="&#xd4;" horiz-adv-x="869" 
d="M422 11q64 0 117.5 27t92 75t60 115t21.5 147t-21.5 147t-59.5 115t-91 75t-116 27q-60 0 -109.5 -27t-85.5 -75t-56 -115t-20 -147t20 -147t55.5 -115t84.5 -75t108 -27zM51 375q0 84 28 155t78 122t119 79.5t152 28.5q85 0 156 -28.5t122.5 -79.5t80 -122t28.5 -155
t-29.5 -155t-82 -122t-125.5 -79.5t-160 -28.5q-81 0 -148 28.5t-116 79.5t-76 122t-27 155zM287 806l-10 9l123 192q4 6 12.5 17t15.5 11t15.5 -11t12.5 -18l124 -191l-11 -9l-141 144z" />
    <glyph glyph-name="Otilde" unicode="&#xd5;" horiz-adv-x="869" 
d="M261 870q0 51 21.5 84t56.5 33q23 0 47.5 -10t48.5 -22.5t48.5 -22.5t47.5 -10t38 17t15 43h12q0 -51 -23 -83.5t-60 -32.5q-24 0 -48 10t-48.5 22.5t-48.5 22.5t-48 10q-20 0 -33.5 -17t-13.5 -44h-12zM422 11q64 0 117.5 27t92 75t60 115t21.5 147t-21.5 147t-59.5 115
t-91 75t-116 27q-60 0 -109.5 -27t-85.5 -75t-56 -115t-20 -147t20 -147t55.5 -115t84.5 -75t108 -27zM51 375q0 84 28 155t78 122t119 79.5t152 28.5q85 0 156 -28.5t122.5 -79.5t80 -122t28.5 -155t-29.5 -155t-82 -122t-125.5 -79.5t-160 -28.5q-81 0 -148 28.5
t-116 79.5t-76 122t-27 155z" />
    <glyph glyph-name="Odieresis" unicode="&#xd6;" horiz-adv-x="869" 
d="M504 865q-23 0 -37.5 14.5t-14.5 37.5t14.5 37t37.5 14t37 -14t14 -37t-14 -37.5t-37 -14.5zM353 865q-23 0 -37.5 14.5t-14.5 37.5t14.5 37t37.5 14t37 -14t14 -37t-14 -37.5t-37 -14.5zM422 11q64 0 117.5 27t92 75t60 115t21.5 147t-21.5 147t-59.5 115t-91 75
t-116 27q-60 0 -109.5 -27t-85.5 -75t-56 -115t-20 -147t20 -147t55.5 -115t84.5 -75t108 -27zM51 375q0 84 28 155t78 122t119 79.5t152 28.5q85 0 156 -28.5t122.5 -79.5t80 -122t28.5 -155t-29.5 -155t-82 -122t-125.5 -79.5t-160 -28.5q-81 0 -148 28.5t-116 79.5
t-76 122t-27 155z" />
    <glyph glyph-name="Oslash" unicode="&#xd8;" horiz-adv-x="869" 
d="M39 4l106 106q-45 51 -69 118t-24 147q0 84 28 155t78 122t119 79.5t152 28.5q80 0 147.5 -25t118.5 -71l108 109l26 -26l-108 -109q45 -51 70 -117.5t25 -145.5q0 -84 -29.5 -155t-82 -122t-125.5 -79.5t-160 -28.5q-75 0 -138 24t-111 69l-105 -106zM423 12
q64 0 117.5 27t92 75t60 115t21.5 147q0 60 -12 112.5t-35 96.5l-449 -453q36 -57 88.5 -88.5t116.5 -31.5zM647 617q-38 58 -95 90.5t-126 32.5q-60 0 -109.5 -27t-85.5 -75t-56 -115t-20 -147q0 -61 11.5 -114t32.5 -97z" />
    <glyph glyph-name="Ugrave" unicode="&#xd9;" 
d="M382 822l-10 -9l-142 120q-29 24 -47 41.5t-18 22.5q0 16 12 28t28 12q5 0 21.5 -19t39.5 -49zM644 102q0 -23 3 -37t11.5 -21.5t23.5 -9.5t38 -1v-6l-156 -27h-14v102v48q-16 -35 -43.5 -64.5t-62.5 -50.5t-75 -33t-81 -12q-43 0 -78.5 17.5t-61 48.5t-40 74t-14.5 94
v414q0 31 -5 50.5t-13.5 30.5t-20 15t-25.5 4h-13l-2 6q0 2 -0.5 2.5t-0.5 1.5v2h174v-112v-414q0 -38 10 -70t28.5 -55t43.5 -36t55 -13q35 0 69 10.5t64 29.5t53.5 45t38.5 57v446q0 31 -5 50.5t-13.5 30.5t-20 15t-25.5 4h-13l-2 6q0 2 -0.5 2.5t-0.5 1.5v2h174v-112
v-536z" />
    <glyph glyph-name="Uacute" unicode="&#xda;" 
d="M367 822l115 147q23 30 40 49t21 19q16 0 28 -12t12 -28q0 -5 -18 -22t-47 -42l-141 -120zM644 102q0 -23 3 -37t11.5 -21.5t23.5 -9.5t38 -1v-6l-156 -27h-14v102v48q-16 -35 -43.5 -64.5t-62.5 -50.5t-75 -33t-81 -12q-43 0 -78.5 17.5t-61 48.5t-40 74t-14.5 94v414
q0 31 -5 50.5t-13.5 30.5t-20 15t-25.5 4h-13l-2 6q0 2 -0.5 2.5t-0.5 1.5v2h174v-112v-414q0 -38 10 -70t28.5 -55t43.5 -36t55 -13q35 0 69 10.5t64 29.5t53.5 45t38.5 57v446q0 31 -5 50.5t-13.5 30.5t-20 15t-25.5 4h-13l-2 6q0 2 -0.5 2.5t-0.5 1.5v2h174v-112v-536z
" />
    <glyph glyph-name="Ucircumflex" unicode="&#xdb;" 
d="M228 806l-10 9l123 192q4 6 12.5 17t15.5 11t15.5 -11t12.5 -18l124 -191l-11 -9l-141 144zM644 102q0 -23 3 -37t11.5 -21.5t23.5 -9.5t38 -1v-6l-156 -27h-14v102v48q-16 -35 -43.5 -64.5t-62.5 -50.5t-75 -33t-81 -12q-43 0 -78.5 17.5t-61 48.5t-40 74t-14.5 94v414
q0 31 -5 50.5t-13.5 30.5t-20 15t-25.5 4h-13l-2 6q0 2 -0.5 2.5t-0.5 1.5v2h174v-112v-414q0 -38 10 -70t28.5 -55t43.5 -36t55 -13q35 0 69 10.5t64 29.5t53.5 45t38.5 57v446q0 31 -5 50.5t-13.5 30.5t-20 15t-25.5 4h-13l-2 6q0 2 -0.5 2.5t-0.5 1.5v2h174v-112v-536z
" />
    <glyph glyph-name="Udieresis" unicode="&#xdc;" 
d="M445 865q-23 0 -37.5 14.5t-14.5 37.5t14.5 37t37.5 14t37 -14t14 -37t-14 -37.5t-37 -14.5zM294 865q-23 0 -37.5 14.5t-14.5 37.5t14.5 37t37.5 14t37 -14t14 -37t-14 -37.5t-37 -14.5zM644 102q0 -23 3 -37t11.5 -21.5t23.5 -9.5t38 -1v-6l-156 -27h-14v102v48
q-16 -35 -43.5 -64.5t-62.5 -50.5t-75 -33t-81 -12q-43 0 -78.5 17.5t-61 48.5t-40 74t-14.5 94v414q0 31 -5 50.5t-13.5 30.5t-20 15t-25.5 4h-13l-2 6q0 2 -0.5 2.5t-0.5 1.5v2h174v-112v-414q0 -38 10 -70t28.5 -55t43.5 -36t55 -13q35 0 69 10.5t64 29.5t53.5 45
t38.5 57v446q0 31 -5 50.5t-13.5 30.5t-20 15t-25.5 4h-13l-2 6q0 2 -0.5 2.5t-0.5 1.5v2h174v-112v-536z" />
    <glyph glyph-name="Yacute" unicode="&#xdd;" 
d="M376 822l115 147q24 30 40.5 49t20.5 19q16 0 28 -12t12 -28q0 -5 -18 -22t-47 -42l-141 -120zM12 740q0 2 -1 6t-1 5h42h111h79q-1 -1 -1 -2v-4q-1 -2 -1 -4v-2h-22q-9 0 -14 -5.5t-2 -19.5t14.5 -38t34.5 -62l167 -260l160 301q22 50 18 67t-23 17h-22q0 2 -1 6t-1 5
h79h41h58q-1 -1 -1 -2t-0.5 -1.5t-0.5 -2.5t-0.5 -2.5t-0.5 -1.5v-2h-25q-8 0 -18.5 -7t-26 -25t-37 -50.5t-51.5 -83.5l-141 -244v-224q0 -56 18 -74t46 -18h13l4 -12h-255q1 0 1 1q0 3 1 5v4q0 1 1 2h13q28 0 46 18t18 74v219l-183 278q-28 42 -47.5 68.5t-32 41.5
t-19.5 21t-11 6h-28z" />
    <glyph glyph-name="agrave" unicode="&#xe0;" horiz-adv-x="533" 
d="M543 97q-8 -45 -36.5 -74t-65.5 -29q-40 0 -67 24t-32 63q-42 -48 -87 -69.5t-89 -21.5q-53 0 -86.5 27t-33.5 70q0 42 13.5 69.5t47 47t90.5 34t144 29.5v118q0 53 -26.5 78.5t-68.5 25.5q-28 0 -51.5 -10.5t-40 -25.5t-25.5 -31.5t-9 -28.5q0 -10 4 -21.5t4 -20.5
q1 -6 -6.5 -12t-19.5 -6q-16 0 -26 6.5t-10 17.5q0 20 14.5 46.5t42 50t65.5 40t84 16.5q65 0 106.5 -38t41.5 -116v-257q0 -21 15.5 -34t39.5 -13q20 0 35.5 15t19.5 38l14 -7zM283 571l-10 -9l-142 120q-28 24 -46 41.5t-18 22.5q0 16 12 28t27 12q5 0 22 -19t40 -49z
M340 249q-63 -11 -104.5 -22.5t-66 -28t-34.5 -41.5t-10 -63q0 -28 23 -45.5t60 -17.5q35 0 69 16t63 51v151z" />
    <glyph glyph-name="aacute" unicode="&#xe1;" horiz-adv-x="533" 
d="M269 572l115 147q24 30 40.5 49t21.5 19q16 0 28 -12t12 -28q0 -5 -18 -22t-47 -42l-142 -120zM543 97q-8 -45 -36.5 -74t-65.5 -29q-40 0 -67 24t-32 63q-42 -48 -87 -69.5t-89 -21.5q-53 0 -86.5 27t-33.5 70q0 42 13.5 69.5t47 47t90.5 34t144 29.5v118
q0 53 -26.5 78.5t-68.5 25.5q-28 0 -51.5 -10.5t-40 -25.5t-25.5 -31.5t-9 -28.5q0 -10 4 -21.5t4 -20.5q1 -6 -6.5 -12t-19.5 -6q-16 0 -26 6.5t-10 17.5q0 20 14.5 46.5t42 50t65.5 40t84 16.5q65 0 106.5 -38t41.5 -116v-257q0 -21 15.5 -34t39.5 -13q20 0 35.5 15
t19.5 38l14 -7zM340 249q-63 -11 -104.5 -22.5t-66 -28t-34.5 -41.5t-10 -63q0 -28 23 -45.5t60 -17.5q35 0 69 16t63 51v151z" />
    <glyph glyph-name="acircumflex" unicode="&#xe2;" horiz-adv-x="533" 
d="M543 97q-8 -45 -36.5 -74t-65.5 -29q-40 0 -67 24t-32 63q-42 -48 -87 -69.5t-89 -21.5q-53 0 -86.5 27t-33.5 70q0 42 13.5 69.5t47 47t90.5 34t144 29.5v118q0 53 -26.5 78.5t-68.5 25.5q-28 0 -51.5 -10.5t-40 -25.5t-25.5 -31.5t-9 -28.5q0 -10 4 -21.5t4 -20.5
q1 -6 -6.5 -12t-19.5 -6q-16 0 -26 6.5t-10 17.5q0 20 14.5 46.5t42 50t65.5 40t84 16.5q65 0 106.5 -38t41.5 -116v-257q0 -21 15.5 -34t39.5 -13q20 0 35.5 15t19.5 38l14 -7zM130 555l-11 9l124 192q4 6 12.5 17t15.5 11q6 0 14.5 -11t13.5 -18l123 -191l-11 -9l-140 143
zM340 249q-63 -11 -104.5 -22.5t-66 -28t-34.5 -41.5t-10 -63q0 -28 23 -45.5t60 -17.5q35 0 69 16t63 51v151z" />
    <glyph glyph-name="atilde" unicode="&#xe3;" horiz-adv-x="533" 
d="M104 620q0 51 21.5 84t56.5 33q24 0 48 -10t48.5 -22.5t48.5 -22.5t48 -10q23 0 37.5 17t14.5 43h12q0 -51 -23 -83.5t-59 -32.5q-24 0 -48 10t-48.5 22.5t-49 22.5t-47.5 10q-21 0 -34.5 -17t-13.5 -44h-12zM543 97q-8 -45 -36.5 -74t-65.5 -29q-40 0 -67 24t-32 63
q-42 -48 -87 -69.5t-89 -21.5q-53 0 -86.5 27t-33.5 70q0 42 13.5 69.5t47 47t90.5 34t144 29.5v118q0 53 -26.5 78.5t-68.5 25.5q-28 0 -51.5 -10.5t-40 -25.5t-25.5 -31.5t-9 -28.5q0 -10 4 -21.5t4 -20.5q1 -6 -6.5 -12t-19.5 -6q-16 0 -26 6.5t-10 17.5q0 20 14.5 46.5
t42 50t65.5 40t84 16.5q65 0 106.5 -38t41.5 -116v-257q0 -21 15.5 -34t39.5 -13q20 0 35.5 15t19.5 38l14 -7zM340 249q-63 -11 -104.5 -22.5t-66 -28t-34.5 -41.5t-10 -63q0 -28 23 -45.5t60 -17.5q35 0 69 16t63 51v151z" />
    <glyph glyph-name="adieresis" unicode="&#xe4;" horiz-adv-x="533" 
d="M347 615q-23 0 -37.5 14.5t-14.5 37.5t14.5 37t37.5 14t37.5 -14t14.5 -37t-14.5 -37.5t-37.5 -14.5zM196 615q-23 0 -37.5 14.5t-14.5 37.5t14.5 37t37.5 14t37.5 -14t14.5 -37t-14.5 -37.5t-37.5 -14.5zM543 97q-8 -45 -36.5 -74t-65.5 -29q-40 0 -67 24t-32 63
q-42 -48 -87 -69.5t-89 -21.5q-53 0 -86.5 27t-33.5 70q0 42 13.5 69.5t47 47t90.5 34t144 29.5v118q0 53 -26.5 78.5t-68.5 25.5q-28 0 -51.5 -10.5t-40 -25.5t-25.5 -31.5t-9 -28.5q0 -10 4 -21.5t4 -20.5q1 -6 -6.5 -12t-19.5 -6q-16 0 -26 6.5t-10 17.5q0 20 14.5 46.5
t42 50t65.5 40t84 16.5q65 0 106.5 -38t41.5 -116v-257q0 -21 15.5 -34t39.5 -13q20 0 35.5 15t19.5 38l14 -7zM340 249q-63 -11 -104.5 -22.5t-66 -28t-34.5 -41.5t-10 -63q0 -28 23 -45.5t60 -17.5q35 0 69 16t63 51v151z" />
    <glyph glyph-name="aring" unicode="&#xe5;" horiz-adv-x="533" 
d="M272 579q14 0 27.5 6t23.5 16.5t16 24.5t6 29q0 33 -20.5 54.5t-52.5 21.5t-53 -21.5t-21 -54.5q0 -15 6 -29t16.5 -24.5t23.5 -16.5t28 -6zM174 655q0 42 27 68.5t71 26.5q43 0 70 -26.5t27 -68.5q0 -19 -8 -36t-21.5 -30t-31 -21t-36.5 -8q-20 0 -37.5 8t-31 21
t-21.5 30t-8 36zM543 97q-8 -45 -36.5 -74t-65.5 -29q-40 0 -67 24t-32 63q-42 -48 -87 -69.5t-89 -21.5q-53 0 -86.5 27t-33.5 70q0 42 13.5 69.5t47 47t90.5 34t144 29.5v118q0 53 -26.5 78.5t-68.5 25.5q-28 0 -51.5 -10.5t-40 -25.5t-25.5 -31.5t-9 -28.5q0 -10 4 -21.5
t4 -20.5q1 -6 -6.5 -12t-19.5 -6q-16 0 -26 6.5t-10 17.5q0 20 14.5 46.5t42 50t65.5 40t84 16.5q65 0 106.5 -38t41.5 -116v-257q0 -21 15.5 -34t39.5 -13q20 0 35.5 15t19.5 38l14 -7zM340 249q-63 -11 -104.5 -22.5t-66 -28t-34.5 -41.5t-10 -63q0 -28 23 -45.5t60 -17.5
q35 0 69 16t63 51v151z" />
    <glyph glyph-name="ccedilla" unicode="&#xe7;" horiz-adv-x="521" 
d="M492 134q-13 -32 -34.5 -58t-49 -45.5t-59 -30t-64.5 -10.5q-53 0 -97.5 18t-76.5 51t-50 78t-18 99q0 60 19 110.5t53.5 86.5t82.5 56.5t105 20.5q33 0 63.5 -8t55.5 -22t43 -33t27 -42q5 -17 -29 -17q-21 0 -28 17q-14 38 -52 62.5t-84 24.5q-38 0 -69.5 -16
t-54.5 -45.5t-36 -70t-13 -88.5q0 -51 14 -94t39 -73.5t59.5 -48t75.5 -17.5q28 0 54 7.5t48 20.5t38.5 31t25.5 40l12 -4v0zM352 5l-19 -50q29 -11 48 -31.5t19 -61.5q0 -38 -30.5 -66t-68.5 -28q-21 0 -38.5 10.5t-17.5 26.5q0 12 5 19.5t13 7.5q15 0 31 -16t29 -16
q15 0 28 13.5t13 31.5q0 22 -20 36.5t-55 21.5l41 102h22z" />
    <glyph glyph-name="egrave" unicode="&#xe8;" horiz-adv-x="563" 
d="M325 572l-10 -9l-142 120q-29 24 -47 41.5t-18 22.5q0 16 12 28t28 12q5 0 22 -19t40 -49zM132 331q-6 -32 -6 -67q0 -48 13.5 -89t37.5 -70t57 -45.5t73 -16.5q38 0 72 7.5t61 20.5t46 31t26 40l10 -3q-11 -33 -33.5 -60t-53.5 -47t-69 -31t-78 -11q-54 0 -99 18t-78 50
t-51 76.5t-18 97.5q0 61 20 112t56 88t85.5 57.5t108.5 20.5q42 0 78.5 -10.5t65.5 -32t49 -55.5t28 -81h-88h-312h-1zM505 354h6h-6zM440 353q-17 73 -52.5 106t-80.5 33q-62 0 -106.5 -38.5t-63.5 -103.5z" />
    <glyph glyph-name="eacute" unicode="&#xe9;" horiz-adv-x="563" 
d="M304 572l115 147q24 30 40.5 49t21.5 19q16 0 28 -12t12 -28q0 -5 -18 -22t-47 -42l-142 -120zM132 331q-6 -32 -6 -67q0 -48 13.5 -89t37.5 -70t57 -45.5t73 -16.5q38 0 72 7.5t61 20.5t46 31t26 40l10 -3q-11 -33 -33.5 -60t-53.5 -47t-69 -31t-78 -11q-54 0 -99 18
t-78 50t-51 76.5t-18 97.5q0 61 20 112t56 88t85.5 57.5t108.5 20.5q42 0 78.5 -10.5t65.5 -32t49 -55.5t28 -81h-88h-312h-1zM505 354h6h-6zM440 353q-17 73 -52.5 106t-80.5 33q-62 0 -106.5 -38.5t-63.5 -103.5z" />
    <glyph glyph-name="ecircumflex" unicode="&#xea;" horiz-adv-x="563" 
d="M172 556l-11 9l123 192q5 6 13.5 17t14.5 11q7 0 15.5 -11t13.5 -18l123 -191l-11 -9l-141 144zM132 331q-6 -32 -6 -67q0 -48 13.5 -89t37.5 -70t57 -45.5t73 -16.5q38 0 72 7.5t61 20.5t46 31t26 40l10 -3q-11 -33 -33.5 -60t-53.5 -47t-69 -31t-78 -11q-54 0 -99 18
t-78 50t-51 76.5t-18 97.5q0 61 20 112t56 88t85.5 57.5t108.5 20.5q42 0 78.5 -10.5t65.5 -32t49 -55.5t28 -81h-88h-312h-1zM505 354h6h-6zM440 353q-17 73 -52.5 106t-80.5 33q-62 0 -106.5 -38.5t-63.5 -103.5z" />
    <glyph glyph-name="edieresis" unicode="&#xeb;" horiz-adv-x="563" 
d="M388 615q-23 0 -37.5 14.5t-14.5 37.5t14.5 37t37.5 14t37.5 -14t14.5 -37t-14.5 -37.5t-37.5 -14.5zM237 615q-23 0 -37.5 14.5t-14.5 37.5t14.5 37t37.5 14t37.5 -14t14.5 -37t-14.5 -37.5t-37.5 -14.5zM132 331q-6 -32 -6 -67q0 -48 13.5 -89t37.5 -70t57 -45.5
t73 -16.5q38 0 72 7.5t61 20.5t46 31t26 40l10 -3q-11 -33 -33.5 -60t-53.5 -47t-69 -31t-78 -11q-54 0 -99 18t-78 50t-51 76.5t-18 97.5q0 61 20 112t56 88t85.5 57.5t108.5 20.5q42 0 78.5 -10.5t65.5 -32t49 -55.5t28 -81h-88h-312h-1zM505 354h6h-6zM440 353
q-17 73 -52.5 106t-80.5 33q-62 0 -106.5 -38.5t-63.5 -103.5z" />
    <glyph glyph-name="igrave" unicode="&#xec;" horiz-adv-x="288" 
d="M55 1q0 1 0.5 5t1.5 6h13q20 0 33 4.5t13 18.5v375q0 23 -2.5 37t-9 21.5t-18.5 9.5t-30 1v6l126 15h14v-90v-375q0 -14 13.5 -18.5t34.5 -4.5h13q0 -3 1 -6l2 -6h-205v1zM194 573l-10 -9l-141 120q-29 24 -47 41.5t-18 22.5q0 16 12 28t28 12q5 0 21.5 -19t39.5 -49z
" />
    <glyph glyph-name="iacute" unicode="&#xed;" horiz-adv-x="288" 
d="M55 1q0 1 0.5 5t1.5 6h13q20 0 33 4.5t13 18.5v375q0 23 -2.5 37t-9 21.5t-18.5 9.5t-30 1v6l126 15h14v-90v-375q0 -14 13.5 -18.5t34.5 -4.5h13q0 -3 1 -6l2 -6h-205v1zM94 572l115 147q24 30 40.5 49t21.5 19q16 0 28 -12t12 -28q0 -5 -18 -22t-47 -42l-142 -120z" />
    <glyph glyph-name="icircumflex" unicode="&#xee;" horiz-adv-x="288" 
d="M55 1q0 1 0.5 5t1.5 6h13q20 0 33 4.5t13 18.5v375q0 23 -2.5 37t-9 21.5t-18.5 9.5t-30 1v6l126 15h14v-90v-375q0 -14 13.5 -18.5t34.5 -4.5h13q0 -3 1 -6l2 -6h-205v1zM15 557l-11 9l124 192q4 6 12.5 17t15.5 11t15.5 -11t12.5 -18l123 -191l-10 -9l-141 144z" />
    <glyph glyph-name="idieresis" unicode="&#xef;" horiz-adv-x="288" 
d="M231 615q-23 0 -37 14.5t-14 37.5t14 37t37 14t37.5 -14t14.5 -37t-14.5 -37.5t-37.5 -14.5zM80 615q-23 0 -37 14.5t-14 37.5t14 37t37 14t37.5 -14t14.5 -37t-14.5 -37.5t-37.5 -14.5zM55 1q0 1 0.5 5t1.5 6h13q20 0 33 4.5t13 18.5v375q0 23 -2.5 37t-9 21.5
t-18.5 9.5t-30 1v6l126 15h14v-90v-375q0 -14 13.5 -18.5t34.5 -4.5h13q0 -3 1 -6l2 -6h-205v1z" />
    <glyph glyph-name="ntilde" unicode="&#xf1;" horiz-adv-x="591" 
d="M128 620q0 51 22 84t56 33q24 0 48 -10t48.5 -22.5t49 -22.5t47.5 -10t37.5 17t14.5 43h13q0 -51 -23 -83.5t-60 -32.5q-24 0 -48 10t-48.5 22.5t-48.5 22.5t-48 10q-20 0 -33.5 -17t-13.5 -44h-13zM30 471q0 5 -1 7l-2 4l131 18h15v-97v-22q21 28 44.5 51.5t47 41t46 27
t41.5 9.5q36 0 63 -13.5t46 -37.5t28.5 -57t9.5 -72v-295q0 -14 13 -18.5t33 -4.5h13v-2q0 -1 0.5 -2t0.5 -2q0 -2 0.5 -3t0.5 -2t1 -1h-203v1q0 1 0.5 2t0.5 3l2 6h12q20 0 33 4.5t13 18.5v295q0 55 -28.5 90t-82.5 35q-29 0 -66.5 -27t-68.5 -69v-324q0 -14 13 -18.5
t33 -4.5h12l2 -6v-5q0 -1 1 -1h-203q1 0 1 1q0 3 1 5v4q0 1 1 2h13q20 0 33 4.5t13 18.5v359q0 52 -14 67t-36 12z" />
    <glyph glyph-name="ograve" unicode="&#xf2;" horiz-adv-x="629" 
d="M313 11q40 0 73.5 17.5t58 49.5t38 75.5t13.5 96.5q0 52 -13.5 96t-38 76t-58 49.5t-73.5 17.5t-73.5 -17.5t-58 -49.5t-38 -76t-13.5 -96q0 -53 13.5 -96.5t38 -75.5t58 -49.5t73.5 -17.5zM42 250q0 57 20 104.5t56 82t86 54t109 19.5q60 0 110 -19.5t86 -54t56 -82
t20 -104.5t-20 -105t-56 -82.5t-86 -53.5t-110 -19q-59 0 -109 19t-86 53.5t-56 82.5t-20 105zM326 572l-10 -9l-142 120q-29 24 -47 41.5t-18 22.5q0 16 12 28t28 12q5 0 22 -19t40 -49z" />
    <glyph glyph-name="oacute" unicode="&#xf3;" horiz-adv-x="629" 
d="M311 572l115 147q24 30 40.5 49t21.5 19q15 0 27 -12t12 -28q0 -5 -18 -22t-47 -42l-141 -120zM313 11q40 0 73.5 17.5t58 49.5t38 75.5t13.5 96.5q0 52 -13.5 96t-38 76t-58 49.5t-73.5 17.5t-73.5 -17.5t-58 -49.5t-38 -76t-13.5 -96q0 -53 13.5 -96.5t38 -75.5
t58 -49.5t73.5 -17.5zM42 250q0 57 20 104.5t56 82t86 54t109 19.5q60 0 110 -19.5t86 -54t56 -82t20 -104.5t-20 -105t-56 -82.5t-86 -53.5t-110 -19q-59 0 -109 19t-86 53.5t-56 82.5t-20 105z" />
    <glyph glyph-name="ocircumflex" unicode="&#xf4;" horiz-adv-x="629" 
d="M313 11q40 0 73.5 17.5t58 49.5t38 75.5t13.5 96.5q0 52 -13.5 96t-38 76t-58 49.5t-73.5 17.5t-73.5 -17.5t-58 -49.5t-38 -76t-13.5 -96q0 -53 13.5 -96.5t38 -75.5t58 -49.5t73.5 -17.5zM42 250q0 57 20 104.5t56 82t86 54t109 19.5q60 0 110 -19.5t86 -54t56 -82
t20 -104.5t-20 -105t-56 -82.5t-86 -53.5t-110 -19q-59 0 -109 19t-86 53.5t-56 82.5t-20 105zM173 556l-11 9l123 192q4 6 12.5 17t15.5 11t15.5 -11t13.5 -18l123 -191l-11 -9l-141 144z" />
    <glyph glyph-name="otilde" unicode="&#xf5;" horiz-adv-x="629" 
d="M146 620q0 51 21.5 84t56.5 33q23 0 47.5 -10t49 -22.5t48.5 -22.5t48 -10q23 0 37.5 17t14.5 43h12q0 -51 -23 -83.5t-60 -32.5q-23 0 -47.5 10t-49 22.5t-48.5 22.5t-48 10q-20 0 -33.5 -17t-13.5 -44h-12zM313 11q40 0 73.5 17.5t58 49.5t38 75.5t13.5 96.5
q0 52 -13.5 96t-38 76t-58 49.5t-73.5 17.5t-73.5 -17.5t-58 -49.5t-38 -76t-13.5 -96q0 -53 13.5 -96.5t38 -75.5t58 -49.5t73.5 -17.5zM42 250q0 57 20 104.5t56 82t86 54t109 19.5q60 0 110 -19.5t86 -54t56 -82t20 -104.5t-20 -105t-56 -82.5t-86 -53.5t-110 -19
q-59 0 -109 19t-86 53.5t-56 82.5t-20 105z" />
    <glyph glyph-name="odieresis" unicode="&#xf6;" horiz-adv-x="629" 
d="M389 615q-23 0 -37.5 14.5t-14.5 37.5t14.5 37t37.5 14t37 -14t14 -37t-14 -37.5t-37 -14.5zM238 615q-23 0 -37.5 14.5t-14.5 37.5t14.5 37t37.5 14t37 -14t14 -37t-14 -37.5t-37 -14.5zM313 11q40 0 73.5 17.5t58 49.5t38 75.5t13.5 96.5q0 52 -13.5 96t-38 76
t-58 49.5t-73.5 17.5t-73.5 -17.5t-58 -49.5t-38 -76t-13.5 -96q0 -53 13.5 -96.5t38 -75.5t58 -49.5t73.5 -17.5zM42 250q0 57 20 104.5t56 82t86 54t109 19.5q60 0 110 -19.5t86 -54t56 -82t20 -104.5t-20 -105t-56 -82.5t-86 -53.5t-110 -19q-59 0 -109 19t-86 53.5
t-56 82.5t-20 105z" />
    <glyph glyph-name="oslash" unicode="&#xf8;" horiz-adv-x="629" 
d="M34 0l76 73q-32 34 -50 79t-18 99q0 57 20 104.5t56 82t86 54t109 19.5q56 0 103 -17t82 -48l77 73l17 -18l-76 -73q32 -34 50 -79t18 -99q0 -57 -20 -105t-56 -82.5t-86 -53.5t-110 -19q-56 0 -103 17t-82 48l-77 -74zM313 13q40 0 73.5 17.5t58 49.5t38 75.5t13.5 96.5
q0 38 -7 71t-20 61l-299 -287q25 -40 62 -62.5t82 -22.5zM457 406q-25 40 -62 62.5t-82 22.5q-40 0 -73.5 -17.5t-58 -49.5t-38 -76t-13.5 -96q0 -38 7 -71t20 -61z" />
    <glyph glyph-name="ugrave" unicode="&#xf9;" horiz-adv-x="579" 
d="M27 490q0 2 -1 6t-1 5h131v-35v-302q0 -52 29.5 -85t76.5 -33q23 0 45.5 7t42 19.5t35.5 30t26 38.5v324q0 14 -10 18.5t-26 4.5h-12l-2 6q0 2 -0.5 2.5t-0.5 1.5v2h131v-35v-377q0 -49 14 -63t36 -12l12 1l2 -6v-4q0 -1 1 -2l-131 -12h-14v92v38q-13 -29 -32.5 -53
t-44 -41t-52.5 -26.5t-57 -9.5q-32 0 -59.5 13t-47 36t-30.5 54.5t-11 69.5v302q0 14 -10 18.5t-26 4.5h-13zM296 574l-10 -9l-142 120q-29 24 -47 41.5t-18 22.5q0 16 12 28t28 12q5 0 22 -19t40 -49z" />
    <glyph glyph-name="uacute" unicode="&#xfa;" horiz-adv-x="579" 
d="M282 572l115 147q24 30 40.5 49t21.5 19q15 0 27 -12t12 -28q0 -5 -18 -22t-47 -42l-141 -120zM27 490q0 2 -1 6t-1 5h131v-35v-302q0 -52 29.5 -85t76.5 -33q23 0 45.5 7t42 19.5t35.5 30t26 38.5v324q0 14 -10 18.5t-26 4.5h-12l-2 6q0 2 -0.5 2.5t-0.5 1.5v2h131v-35
v-377q0 -49 14 -63t36 -12l12 1l2 -6v-4q0 -1 1 -2l-131 -12h-14v92v38q-13 -29 -32.5 -53t-44 -41t-52.5 -26.5t-57 -9.5q-32 0 -59.5 13t-47 36t-30.5 54.5t-11 69.5v302q0 14 -10 18.5t-26 4.5h-13z" />
    <glyph glyph-name="ucircumflex" unicode="&#xfb;" horiz-adv-x="579" 
d="M27 490q0 2 -1 6t-1 5h131v-35v-302q0 -52 29.5 -85t76.5 -33q23 0 45.5 7t42 19.5t35.5 30t26 38.5v324q0 14 -10 18.5t-26 4.5h-12l-2 6q0 2 -0.5 2.5t-0.5 1.5v2h131v-35v-377q0 -49 14 -63t36 -12l12 1l2 -6v-4q0 -1 1 -2l-131 -12h-14v92v38q-13 -29 -32.5 -53
t-44 -41t-52.5 -26.5t-57 -9.5q-32 0 -59.5 13t-47 36t-30.5 54.5t-11 69.5v302q0 14 -10 18.5t-26 4.5h-13zM143 558l-11 9l123 192q4 6 12.5 17t15.5 11t15.5 -11t13.5 -18l123 -191l-11 -9l-141 144z" />
    <glyph glyph-name="udieresis" unicode="&#xfc;" horiz-adv-x="579" 
d="M360 615q-23 0 -37.5 14.5t-14.5 37.5t14.5 37t37.5 14t37.5 -14t14.5 -37t-14.5 -37.5t-37.5 -14.5zM209 615q-23 0 -37.5 14.5t-14.5 37.5t14.5 37t37.5 14t37 -14t14 -37t-14 -37.5t-37 -14.5zM27 490q0 2 -1 6t-1 5h131v-35v-302q0 -52 29.5 -85t76.5 -33
q23 0 45.5 7t42 19.5t35.5 30t26 38.5v324q0 14 -10 18.5t-26 4.5h-12l-2 6q0 2 -0.5 2.5t-0.5 1.5v2h131v-35v-377q0 -49 14 -63t36 -12l12 1l2 -6v-4q0 -1 1 -2l-131 -12h-14v92v38q-13 -29 -32.5 -53t-44 -41t-52.5 -26.5t-57 -9.5q-32 0 -59.5 13t-47 36t-30.5 54.5
t-11 69.5v302q0 14 -10 18.5t-26 4.5h-13z" />
    <glyph glyph-name="yacute" unicode="&#xfd;" horiz-adv-x="560" 
d="M547 500q0 -1 -0.5 -5t-1.5 -6h-25q-17 0 -33.5 -14t-32.5 -57l-173 -427l-58 -152q-11 -28 -35.5 -46t-53.5 -18q-20 0 -33.5 14t-13.5 36q0 17 13 28t33 11q7 0 12.5 -4.5t10.5 -9.5t10.5 -9.5t12.5 -4.5q20 0 30 25l49 130l-185 457h-1q-10 26 -20 33.5t-21 7.5h-27v2
q0 1 -0.5 1.5t-0.5 2.5t-0.5 2.5t-0.5 1.5v2h49h87h57v-2q0 -1 -0.5 -1.5t-0.5 -2.5t-0.5 -2.5t-0.5 -1.5v-2h-24q-12 0 -16.5 -7.5t6.5 -33.5l137 -355l-38 -102l171 452q10 28 2 37t-27 9h-23q0 2 -1 6t-1 5h72h36h60v0zM172 572l115 147q24 30 40.5 49t21.5 19
q15 0 27 -12t12 -28q0 -5 -18 -22t-47 -42l-141 -120z" />
    <glyph glyph-name="ydieresis" unicode="&#xff;" horiz-adv-x="560" 
d="M547 500q0 -1 -0.5 -5t-1.5 -6h-25q-17 0 -33.5 -14t-32.5 -57l-173 -427l-58 -152q-11 -28 -35.5 -46t-53.5 -18q-20 0 -33.5 14t-13.5 36q0 17 13 28t33 11q7 0 12.5 -4.5t10.5 -9.5t10.5 -9.5t12.5 -4.5q20 0 30 25l49 130l-185 457h-1q-10 26 -20 33.5t-21 7.5h-27v2
q0 1 -0.5 1.5t-0.5 2.5t-0.5 2.5t-0.5 1.5v2h49h87h57v-2q0 -1 -0.5 -1.5t-0.5 -2.5t-0.5 -2.5t-0.5 -1.5v-2h-24q-12 0 -16.5 -7.5t6.5 -33.5l137 -355l-38 -102l171 452q10 28 2 37t-27 9h-23q0 2 -1 6t-1 5h72h36h60v0zM356 615q-23 0 -37.5 14.5t-14.5 37.5t14.5 37
t37.5 14t37.5 -14t14.5 -37t-14.5 -37.5t-37.5 -14.5zM205 615q-23 0 -37.5 14.5t-14.5 37.5t14.5 37t37.5 14t37.5 -14t14.5 -37t-14.5 -37.5t-37.5 -14.5z" />
    <glyph glyph-name="Amacron" unicode="&#x100;" horiz-adv-x="761" 
d="M231 952h331v-56h-331v56zM204 211q-18 -60 -23 -98.5t0.5 -60.5t19.5 -30.5t34 -8.5h21v-2q0 -1 0.5 -2t0.5 -2q0 -2 0.5 -3t0.5 -2v-1h-123h-24h-97v1q0 3 1 5v4q0 1 1 2h23q16 0 32 8.5t34 30.5t37 61t41 100l170 499l-3 10q21 2 40 15.5t28 32.5h10l16 -48l190 -571
q15 -42 28 -69t24 -42.5t20.5 -21.5t18.5 -6h25v-2q0 -3 1 -4v-5q0 -1 1 -1h-68h-98h-102v1q0 1 0.5 2t0.5 3l2 6h22q16 0 27 7.5t14 28t-3.5 56.5t-25.5 93h1l-25 77h-272zM490 296l-128 392l-130 -392h258z" />
    <glyph glyph-name="amacron" unicode="&#x101;" horiz-adv-x="533" 
d="M106 702h331v-56h-331v56zM543 97q-8 -45 -36.5 -74t-65.5 -29q-40 0 -67 24t-32 63q-42 -48 -87 -69.5t-89 -21.5q-53 0 -86.5 27t-33.5 70q0 42 13.5 69.5t47 47t90.5 34t144 29.5v118q0 53 -26.5 78.5t-68.5 25.5q-28 0 -51.5 -10.5t-40 -25.5t-25.5 -31.5t-9 -28.5
q0 -10 4 -21.5t4 -20.5q1 -6 -6.5 -12t-19.5 -6q-16 0 -26 6.5t-10 17.5q0 20 14.5 46.5t42 50t65.5 40t84 16.5q65 0 106.5 -38t41.5 -116v-257q0 -21 15.5 -34t39.5 -13q20 0 35.5 15t19.5 38l14 -7zM340 249q-63 -11 -104.5 -22.5t-66 -28t-34.5 -41.5t-10 -63
q0 -28 23 -45.5t60 -17.5q35 0 69 16t63 51v151z" />
    <glyph glyph-name="Abreve" unicode="&#x102;" horiz-adv-x="761" 
d="M269 997q3 -30 38.5 -49t89.5 -19q53 0 89 18.5t38 47.5l17 -2q-5 -53 -45 -86.5t-99 -33.5t-99 33.5t-45 87.5zM204 211q-18 -60 -23 -98.5t0.5 -60.5t19.5 -30.5t34 -8.5h21v-2q0 -1 0.5 -2t0.5 -2q0 -2 0.5 -3t0.5 -2v-1h-123h-24h-97v1q0 3 1 5v4q0 1 1 2h23
q16 0 32 8.5t34 30.5t37 61t41 100l170 499l-3 10q21 2 40 15.5t28 32.5h10l16 -48l190 -571q15 -42 28 -69t24 -42.5t20.5 -21.5t18.5 -6h25v-2q0 -3 1 -4v-5q0 -1 1 -1h-68h-98h-102v1q0 1 0.5 2t0.5 3l2 6h22q16 0 27 7.5t14 28t-3.5 56.5t-25.5 93h1l-25 77h-272z
M490 296l-128 392l-130 -392h258z" />
    <glyph glyph-name="abreve" unicode="&#x103;" horiz-adv-x="533" 
d="M144 747q3 -30 38.5 -49t89.5 -19q53 0 89 18.5t38 47.5l17 -2q-5 -53 -45 -86.5t-99 -33.5q-60 0 -100 33.5t-45 87.5zM543 97q-8 -45 -36.5 -74t-65.5 -29q-40 0 -67 24t-32 63q-42 -48 -87 -69.5t-89 -21.5q-53 0 -86.5 27t-33.5 70q0 42 13.5 69.5t47 47t90.5 34
t144 29.5v118q0 53 -26.5 78.5t-68.5 25.5q-28 0 -51.5 -10.5t-40 -25.5t-25.5 -31.5t-9 -28.5q0 -10 4 -21.5t4 -20.5q1 -6 -6.5 -12t-19.5 -6q-16 0 -26 6.5t-10 17.5q0 20 14.5 46.5t42 50t65.5 40t84 16.5q65 0 106.5 -38t41.5 -116v-257q0 -21 15.5 -34t39.5 -13
q20 0 35.5 15t19.5 38l14 -7zM340 249q-63 -11 -104.5 -22.5t-66 -28t-34.5 -41.5t-10 -63q0 -28 23 -45.5t60 -17.5q35 0 69 16t63 51v151z" />
    <glyph glyph-name="Aogonek" unicode="&#x104;" horiz-adv-x="761" 
d="M204 211q-18 -60 -23 -98.5t0.5 -60.5t19.5 -30.5t34 -8.5h21v-2q0 -1 0.5 -2t0.5 -2q0 -2 0.5 -3t0.5 -2v-1h-123h-24h-97v1q0 3 1 5v4q0 1 1 2h23q16 0 32 8.5t34 30.5t37 61t41 100l170 499l-3 10q21 2 40 15.5t28 32.5h10l16 -48l190 -571q15 -42 28 -69t24 -42.5
t20.5 -21.5t18.5 -6h25v-2q0 -3 1 -4v-5q0 -1 1 -1h-68h-98h-102v1q0 1 0.5 2t0.5 3l2 6h22q16 0 27 7.5t14 28t-3.5 56.5t-25.5 93h1l-25 77h-272zM490 296l-128 392l-130 -392h258zM664 -3q-27 -17 -45.5 -47.5t-18.5 -63.5q0 -31 15 -48.5t41 -17.5q14 0 32 6.5t39 19.5
l5 -13q-34 -22 -62 -31.5t-50 -9.5q-33 0 -53 19.5t-20 53.5q0 41 31 81.5t81 64.5z" />
    <glyph glyph-name="aogonek" unicode="&#x105;" horiz-adv-x="533" 
d="M543 97q-8 -45 -36.5 -74t-65.5 -29q-40 0 -67 24t-32 63q-42 -48 -87 -69.5t-89 -21.5q-53 0 -86.5 27t-33.5 70q0 42 13.5 69.5t47 47t90.5 34t144 29.5v118q0 53 -26.5 78.5t-68.5 25.5q-28 0 -51.5 -10.5t-40 -25.5t-25.5 -31.5t-9 -28.5q0 -10 4 -21.5t4 -20.5
q1 -6 -6.5 -12t-19.5 -6q-16 0 -26 6.5t-10 17.5q0 20 14.5 46.5t42 50t65.5 40t84 16.5q65 0 106.5 -38t41.5 -116v-257q0 -21 15.5 -34t39.5 -13q20 0 35.5 15t19.5 38l14 -7zM340 249q-63 -11 -104.5 -22.5t-66 -28t-34.5 -41.5t-10 -63q0 -28 23 -45.5t60 -17.5
q35 0 69 16t63 51v151zM384 -3q-27 -17 -45.5 -47.5t-18.5 -63.5q0 -31 15 -48.5t41 -17.5q14 0 32 6.5t39 19.5l5 -13q-34 -22 -62 -31.5t-50 -9.5q-33 0 -53 19.5t-20 53.5q0 41 31 81.5t81 64.5z" />
    <glyph glyph-name="Cacute" unicode="&#x106;" horiz-adv-x="759" 
d="M715 35q0 22 -8 22q-23 -4 -46.5 -8t-29.5 -5q-40 -23 -93.5 -36.5t-125.5 -13.5q-79 0 -145 28.5t-114 79.5t-74.5 122t-26.5 155t27.5 155t76.5 122t117 79.5t149 28.5q72 0 122 -14.5t88 -40.5q30 -18 51 -23t23 3q1 5 2 8.5t2 6.5q1 4 1 6l6 3v-89v-87q-5 2 -6 2h-2
q0 2 -1 5q-1 2 -2 4.5t-2 6.5q-6 18 -20.5 41t-35 45.5t-45 42.5t-50.5 32t-56.5 18.5t-67.5 6.5q-61 0 -111.5 -27t-87 -75.5t-57 -115.5t-20.5 -147t19.5 -147.5t54.5 -116t83.5 -75.5t106.5 -27q48 0 87 8.5t71 24.5h-1q22 11 43.5 29t39.5 38t30.5 40.5t17.5 35.5
q1 4 2 7t2 5q1 3 1 4t1 1t3 1h2l1 1v-87v-91zM272 822l115 147q24 30 40.5 49t21.5 19q15 0 27 -12t12 -28q0 -5 -18 -22t-47 -42l-141 -120z" />
    <glyph glyph-name="cacute" unicode="&#x107;" horiz-adv-x="521" 
d="M492 134q-13 -32 -34.5 -58t-49 -45.5t-59 -30t-64.5 -10.5q-53 0 -97.5 18t-76.5 51t-50 78t-18 99q0 60 19 110.5t53.5 86.5t82.5 56.5t105 20.5q33 0 63.5 -8t55.5 -22t43 -33t27 -42q5 -17 -29 -17q-21 0 -28 17q-14 38 -52 62.5t-84 24.5q-38 0 -69.5 -16
t-54.5 -45.5t-36 -70t-13 -88.5q0 -51 14 -94t39 -73.5t59.5 -48t75.5 -17.5q28 0 54 7.5t48 20.5t38.5 31t25.5 40l12 -4v0zM196 572l115 147q24 30 40.5 49t21.5 19q15 0 27 -12t12 -28q0 -5 -18 -22t-47 -42l-141 -120z" />
    <glyph glyph-name="Ccircumflex" unicode="&#x108;" horiz-adv-x="759" 
d="M715 35q0 22 -8 22q-23 -4 -46.5 -8t-29.5 -5q-40 -23 -93.5 -36.5t-125.5 -13.5q-79 0 -145 28.5t-114 79.5t-74.5 122t-26.5 155t27.5 155t76.5 122t117 79.5t149 28.5q72 0 122 -14.5t88 -40.5q30 -18 51 -23t23 3q1 5 2 8.5t2 6.5q1 4 1 6l6 3v-89v-87q-5 2 -6 2h-2
q0 2 -1 5q-1 2 -2 4.5t-2 6.5q-6 18 -20.5 41t-35 45.5t-45 42.5t-50.5 32t-56.5 18.5t-67.5 6.5q-61 0 -111.5 -27t-87 -75.5t-57 -115.5t-20.5 -147t19.5 -147.5t54.5 -116t83.5 -75.5t106.5 -27q48 0 87 8.5t71 24.5h-1q22 11 43.5 29t39.5 38t30.5 40.5t17.5 35.5
q1 4 2 7t2 5q1 3 1 4t1 1t3 1h2l1 1v-87v-91zM239 805l-11 9l124 192q4 6 12.5 17t15.5 11q6 0 14.5 -11t13.5 -18l123 -191l-11 -9l-140 143z" />
    <glyph glyph-name="ccircumflex" unicode="&#x109;" horiz-adv-x="521" 
d="M492 134q-13 -32 -34.5 -58t-49 -45.5t-59 -30t-64.5 -10.5q-53 0 -97.5 18t-76.5 51t-50 78t-18 99q0 60 19 110.5t53.5 86.5t82.5 56.5t105 20.5q33 0 63.5 -8t55.5 -22t43 -33t27 -42q5 -17 -29 -17q-21 0 -28 17q-14 38 -52 62.5t-84 24.5q-38 0 -69.5 -16
t-54.5 -45.5t-36 -70t-13 -88.5q0 -51 14 -94t39 -73.5t59.5 -48t75.5 -17.5q28 0 54 7.5t48 20.5t38.5 31t25.5 40l12 -4v0zM120 555l-11 9l124 192q4 6 12.5 17t15.5 11q6 0 14.5 -11t13.5 -18l123 -191l-11 -9l-140 143z" />
    <glyph glyph-name="Cdotaccent" unicode="&#x10a;" horiz-adv-x="759" 
d="M421 865q-23 0 -37 14.5t-14 37.5t14 37t37 14t37.5 -14t14.5 -37t-14.5 -37.5t-37.5 -14.5zM715 35q0 22 -8 22q-23 -4 -46.5 -8t-29.5 -5q-40 -23 -93.5 -36.5t-125.5 -13.5q-79 0 -145 28.5t-114 79.5t-74.5 122t-26.5 155t27.5 155t76.5 122t117 79.5t149 28.5
q72 0 122 -14.5t88 -40.5q30 -18 51 -23t23 3q1 5 2 8.5t2 6.5q1 4 1 6l6 3v-89v-87q-5 2 -6 2h-2q0 2 -1 5q-1 2 -2 4.5t-2 6.5q-6 18 -20.5 41t-35 45.5t-45 42.5t-50.5 32t-56.5 18.5t-67.5 6.5q-61 0 -111.5 -27t-87 -75.5t-57 -115.5t-20.5 -147t19.5 -147.5t54.5 -116
t83.5 -75.5t106.5 -27q48 0 87 8.5t71 24.5h-1q22 11 43.5 29t39.5 38t30.5 40.5t17.5 35.5q1 4 2 7t2 5q1 3 1 4t1 1t3 1h2l1 1v-87v-91z" />
    <glyph glyph-name="cdotaccent" unicode="&#x10b;" horiz-adv-x="521" 
d="M303 615q-23 0 -37 14.5t-14 37.5t14 37t37 14t37.5 -14t14.5 -37t-14.5 -37.5t-37.5 -14.5zM492 134q-13 -32 -34.5 -58t-49 -45.5t-59 -30t-64.5 -10.5q-53 0 -97.5 18t-76.5 51t-50 78t-18 99q0 60 19 110.5t53.5 86.5t82.5 56.5t105 20.5q33 0 63.5 -8t55.5 -22
t43 -33t27 -42q5 -17 -29 -17q-21 0 -28 17q-14 38 -52 62.5t-84 24.5q-38 0 -69.5 -16t-54.5 -45.5t-36 -70t-13 -88.5q0 -51 14 -94t39 -73.5t59.5 -48t75.5 -17.5q28 0 54 7.5t48 20.5t38.5 31t25.5 40z" />
    <glyph glyph-name="Ccaron" unicode="&#x10c;" horiz-adv-x="759" 
d="M717 27v91v87l-1 -1h-2q-2 -1 -3 -1t-1 -1t-1 -4q-1 -2 -2 -5t-2 -7q-5 -15 -17.5 -35.5t-30.5 -40.5t-39.5 -38t-43.5 -29h1q-32 -16 -71 -24.5t-87 -8.5q-58 0 -106.5 27t-83.5 75.5t-54.5 116t-19.5 147.5t20.5 147t57 115.5t87 75.5t111.5 27q37 0 67.5 -6.5
t56.5 -18.5t50.5 -32t45 -42.5t35 -45.5t20.5 -41q1 -4 2 -6.5t2 -4.5q1 -3 1 -5h2t6 -2v87v89l-6 -3q0 -2 -1 -6q-1 -3 -2 -6.5t-2 -8.5q-2 -8 -23 -3t-51 23q-38 26 -88 40.5t-122 14.5q-81 0 -149 -28.5t-117 -79.5t-76.5 -122t-27.5 -155t26.5 -155t74.5 -122t114 -79.5
t145 -28.5q72 0 125.5 13.5t93.5 36.5q6 1 29.5 5t46.5 8q8 0 8 -22zM380 902l140 143l11 -9l-123 -191q-5 -7 -13.5 -18t-14.5 -11q-7 0 -15.5 11t-12.5 17l-124 192l11 9z" />
    <glyph glyph-name="ccaron" unicode="&#x10d;" horiz-adv-x="521" 
d="M492 134q-13 -32 -34.5 -58t-49 -45.5t-59 -30t-64.5 -10.5q-53 0 -97.5 18t-76.5 51t-50 78t-18 99q0 60 19 110.5t53.5 86.5t82.5 56.5t105 20.5q33 0 63.5 -8t55.5 -22t43 -33t27 -42q5 -17 -29 -17q-21 0 -28 17q-14 38 -52 62.5t-84 24.5q-38 0 -69.5 -16
t-54.5 -45.5t-36 -70t-13 -88.5q0 -51 14 -94t39 -73.5t59.5 -48t75.5 -17.5q28 0 54 7.5t48 20.5t38.5 31t25.5 40l12 -4v0zM261 652l140 143l11 -9l-123 -191q-5 -7 -13.5 -18t-14.5 -11q-7 0 -15.5 11t-12.5 17l-124 192l11 9z" />
    <glyph glyph-name="Dcaron" unicode="&#x10e;" horiz-adv-x="854" 
d="M129 638v-526q0 -31 -5 -50.5t-13.5 -30.5t-20 -15t-25.5 -4h-13l-2 -6q0 -2 -0.5 -3t-0.5 -2v-1h80h94h88q107 0 197 24.5t154.5 72.5t100.5 118t36 160q0 82 -29 151t-85.5 118.5t-139.5 77.5t-190 28h-132h-94h-80v-2q0 -1 0.5 -1.5t0.5 -2.5l2 -6h13q14 0 25.5 -4
t20 -15t13.5 -30.5t5 -50.5zM223 734h67q98 0 173.5 -26.5t127.5 -74t78.5 -113.5t26.5 -145q0 -87 -30.5 -153.5t-84.5 -112.5t-129 -69.5t-165 -23.5q-42 0 -53 18t-11 46v32v526v96zM427 902l140 143l11 -9l-123 -191q-5 -7 -13.5 -18t-14.5 -11q-7 0 -15.5 11t-12.5 17
l-124 192l11 9z" />
    <glyph glyph-name="dcaron" unicode="&#x10f;" horiz-adv-x="596" 
d="M596 13q0 -1 0.5 -5t1.5 -6l-131 -12h-14v76q-26 -32 -73.5 -51.5t-99.5 -19.5q-51 0 -93.5 19t-73.5 53t-48 81t-17 104t17 104t50 81.5t81 53.5t111 19q42 0 80 -13t67 -33v192q0 46 -13.5 59t-35.5 11l-13 -2q-1 1 -1 2v4q-1 2 -1 4q0 1 -1 2l131 14h14v-87v-555
q0 -31 3.5 -50t10.5 -29.5t16 -13.5t20 -2l13 1zM594 535l-14 3l11 112q1 16 4 35t7 35t9 26.5t11 10.5q16 0 26 -2.5t10 -9.5q0 -16 -7.5 -45.5t-18.5 -58.5zM453 101v293q-11 19 -26.5 35.5t-33.5 29t-38.5 20t-39.5 7.5q-45 0 -80 -16t-58.5 -44.5t-36 -67.5t-12.5 -86
q0 -54 13.5 -99t38.5 -77.5t58.5 -50.5t74.5 -18q39 0 78 18.5t62 47.5v8z" />
    <glyph glyph-name="Emacron" unicode="&#x112;" horiz-adv-x="642" 
d="M176 952h331v-56h-331v56zM563 637q-1 0 -5.5 1.5t-6.5 2.5v9q-2 18 -5.5 33.5t-19 26.5t-47 17t-88.5 6h-166v-95v-244h105q47 0 77 6.5t47 18.5t23.5 28.5t6.5 36.5v13l11 5v-108v-19v-108l-11 5v13q0 19 -6.5 35.5t-23.5 28.5t-47 19t-77 7h-105v-263v-32
q0 -14 2.5 -25.5t11 -20t24.5 -13t42 -4.5h112q47 0 78 6t49.5 16.5t27 25t10.5 31.5l2 13l12 4q-4 -28 -8 -57t-9 -56h-165h-190h-94h-80v1q0 1 0.5 2t0.5 3l2 6h13q14 0 25.5 4t20 15t13.5 30.5t5 50.5v526q0 31 -5 50.5t-13.5 30.5t-20 15t-25.5 4h-13l-2 6q0 2 -0.5 2.5
t-0.5 1.5v2h80h94h165h165q2 -28 3.5 -56.5t3.5 -56.5h2z" />
    <glyph glyph-name="emacron" unicode="&#x113;" horiz-adv-x="563" 
d="M147 702h331v-56h-331v56zM132 331q-6 -32 -6 -67q0 -48 13.5 -89t37.5 -70t57 -45.5t73 -16.5q38 0 72 7.5t61 20.5t46 31t26 40l10 -3q-11 -33 -33.5 -60t-53.5 -47t-69 -31t-78 -11q-54 0 -99 18t-78 50t-51 76.5t-18 97.5q0 61 20 112t56 88t85.5 57.5t108.5 20.5
q42 0 78.5 -10.5t65.5 -32t49 -55.5t28 -81h-88h-312h-1zM505 354h6h-6zM440 353q-17 73 -52.5 106t-80.5 33q-62 0 -106.5 -38.5t-63.5 -103.5z" />
    <glyph glyph-name="Ebreve" unicode="&#x114;" horiz-adv-x="642" 
d="M214 997q2 -30 38 -49t89 -19q54 0 90 18.5t38 47.5l17 -2q-5 -53 -45 -86.5t-100 -33.5q-59 0 -99 33.5t-45 87.5zM563 637q-1 0 -5.5 1.5t-6.5 2.5v9q-2 18 -5.5 33.5t-19 26.5t-47 17t-88.5 6h-166v-95v-244h105q47 0 77 6.5t47 18.5t23.5 28.5t6.5 36.5v13l11 5v-108
v-19v-108l-11 5v13q0 19 -6.5 35.5t-23.5 28.5t-47 19t-77 7h-105v-263v-32q0 -14 2.5 -25.5t11 -20t24.5 -13t42 -4.5h112q47 0 78 6t49.5 16.5t27 25t10.5 31.5l2 13l12 4q-4 -28 -8 -57t-9 -56h-165h-190h-94h-80v1q0 1 0.5 2t0.5 3l2 6h13q14 0 25.5 4t20 15t13.5 30.5
t5 50.5v526q0 31 -5 50.5t-13.5 30.5t-20 15t-25.5 4h-13l-2 6q0 2 -0.5 2.5t-0.5 1.5v2h80h94h165h165q2 -28 3.5 -56.5t3.5 -56.5h2z" />
    <glyph glyph-name="ebreve" unicode="&#x115;" horiz-adv-x="563" 
d="M185 747q2 -30 38 -49t89 -19q54 0 90 18.5t38 47.5l17 -2q-5 -53 -45 -86.5t-100 -33.5q-59 0 -99 33.5t-45 87.5zM132 331q-6 -32 -6 -67q0 -48 13.5 -89t37.5 -70t57 -45.5t73 -16.5q38 0 72 7.5t61 20.5t46 31t26 40l10 -3q-11 -33 -33.5 -60t-53.5 -47t-69 -31
t-78 -11q-54 0 -99 18t-78 50t-51 76.5t-18 97.5q0 61 20 112t56 88t85.5 57.5t108.5 20.5q42 0 78.5 -10.5t65.5 -32t49 -55.5t28 -81h-88h-312h-1zM505 354h6h-6zM440 353q-17 73 -52.5 106t-80.5 33q-62 0 -106.5 -38.5t-63.5 -103.5z" />
    <glyph glyph-name="Edotaccent" unicode="&#x116;" horiz-adv-x="642" 
d="M341 865q-23 0 -37 14.5t-14 37.5t14 37t37 14t37.5 -14t14.5 -37t-14.5 -37.5t-37.5 -14.5zM563 637q-1 0 -5.5 1.5t-6.5 2.5v9q-2 18 -5.5 33.5t-19 26.5t-47 17t-88.5 6h-166v-95v-244h105q47 0 77 6.5t47 18.5t23.5 28.5t6.5 36.5v13l11 5v-108v-19v-108l-11 5v13
q0 19 -6.5 35.5t-23.5 28.5t-47 19t-77 7h-105v-263v-32q0 -14 2.5 -25.5t11 -20t24.5 -13t42 -4.5h112q47 0 78 6t49.5 16.5t27 25t10.5 31.5l2 13l12 4q-4 -28 -8 -57t-9 -56h-165h-190h-94h-80v1q0 1 0.5 2t0.5 3l2 6h13q14 0 25.5 4t20 15t13.5 30.5t5 50.5v526
q0 31 -5 50.5t-13.5 30.5t-20 15t-25.5 4h-13l-2 6q0 2 -0.5 2.5t-0.5 1.5v2h80h94h165h165q2 -28 3.5 -56.5t3.5 -56.5h2z" />
    <glyph glyph-name="edotaccent" unicode="&#x117;" horiz-adv-x="563" 
d="M312 615q-23 0 -37 14.5t-14 37.5t14 37t37 14t37.5 -14t14.5 -37t-14.5 -37.5t-37.5 -14.5zM132 331q-6 -32 -6 -67q0 -48 13.5 -89t37.5 -70t57 -45.5t73 -16.5q38 0 72 7.5t61 20.5t46 31t26 40l10 -3q-11 -33 -33.5 -60t-53.5 -47t-69 -31t-78 -11q-54 0 -99 18
t-78 50t-51 76.5t-18 97.5q0 61 20 112t56 88t85.5 57.5t108.5 20.5q42 0 78.5 -10.5t65.5 -32t49 -55.5t28 -81h-88h-312h-1zM505 354h6h-6zM440 353q-17 73 -52.5 106t-80.5 33q-62 0 -106.5 -38.5t-63.5 -103.5z" />
    <glyph glyph-name="Eogonek" unicode="&#x118;" horiz-adv-x="642" 
d="M563 637q-1 0 -5.5 1.5t-6.5 2.5v9q-2 18 -5.5 33.5t-19 26.5t-47 17t-88.5 6h-166v-95v-244h105q47 0 77 6.5t47 18.5t23.5 28.5t6.5 36.5v13l11 5v-108v-19v-108l-11 5v13q0 19 -6.5 35.5t-23.5 28.5t-47 19t-77 7h-105v-263v-32q0 -14 2.5 -25.5t11 -20t24.5 -13
t42 -4.5h112q47 0 78 6t49.5 16.5t27 25t10.5 31.5l2 13l12 4q-4 -28 -8 -57t-9 -56h-165h-190h-94h-80v1q0 1 0.5 2t0.5 3l2 6h13q14 0 25.5 4t20 15t13.5 30.5t5 50.5v526q0 31 -5 50.5t-13.5 30.5t-20 15t-25.5 4h-13l-2 6q0 2 -0.5 2.5t-0.5 1.5v2h80h94h165h165
q2 -28 3.5 -56.5t3.5 -56.5h2zM375 -3q-27 -17 -45.5 -47.5t-18.5 -63.5q0 -31 15 -48.5t41 -17.5q14 0 32 6.5t39 19.5l5 -13q-34 -22 -62 -31.5t-50 -9.5q-33 0 -53 19.5t-20 53.5q0 41 31 81.5t81 64.5z" />
    <glyph glyph-name="eogonek" unicode="&#x119;" horiz-adv-x="563" 
d="M132 331q-6 -32 -6 -67q0 -48 13.5 -89t37.5 -70t57 -45.5t73 -16.5q38 0 72 7.5t61 20.5t46 31t26 40l10 -3q-11 -33 -33.5 -60t-53.5 -47t-69 -31t-78 -11q-54 0 -99 18t-78 50t-51 76.5t-18 97.5q0 61 20 112t56 88t85.5 57.5t108.5 20.5q42 0 78.5 -10.5t65.5 -32
t49 -55.5t28 -81h-88h-312h-1zM505 354h6h-6zM440 353q-17 73 -52.5 106t-80.5 33q-62 0 -106.5 -38.5t-63.5 -103.5zM252 -3q-27 -17 -45.5 -47.5t-18.5 -63.5q0 -31 15 -48.5t41 -17.5q14 0 32 6.5t39 19.5l5 -13q-34 -22 -62 -31.5t-50 -9.5q-33 0 -53 19.5t-20 53.5
q0 41 31 81.5t81 64.5z" />
    <glyph glyph-name="Ecaron" unicode="&#x11a;" horiz-adv-x="642" 
d="M561 637q-2 28 -3.5 56.5t-3.5 56.5h-165h-165h-94h-80v-2q0 -1 0.5 -1.5t0.5 -2.5l2 -6h13q14 0 25.5 -4t20 -15t13.5 -30.5t5 -50.5v-526q0 -31 -5 -50.5t-13.5 -30.5t-20 -15t-25.5 -4h-13l-2 -6q0 -2 -0.5 -3t-0.5 -2v-1h80h94h190h165q5 27 9 56t8 57l-12 -4l-2 -13
q-2 -17 -10.5 -31.5t-27 -25t-49.5 -16.5t-78 -6h-112q-26 0 -42 4.5t-24.5 13t-11 20t-2.5 25.5v32v263h105q47 0 77 -7t47 -19t23.5 -28.5t6.5 -35.5v-13l11 -5v108v19v108l-11 -5v-13q0 -20 -6.5 -36.5t-23.5 -28.5t-47 -18.5t-77 -6.5h-105v244v95h166q57 0 88.5 -6
t47 -17t19 -26.5t5.5 -33.5v-9q2 -1 6.5 -2.5t5.5 -1.5h-2zM321 902l140 143l11 -9l-123 -191q-5 -7 -13.5 -18t-14.5 -11q-7 0 -15.5 11t-12.5 17l-124 192l11 9z" />
    <glyph glyph-name="ecaron" unicode="&#x11b;" horiz-adv-x="563" 
d="M132 331q-6 -32 -6 -67q0 -48 13.5 -89t37.5 -70t57 -45.5t73 -16.5q38 0 72 7.5t61 20.5t46 31t26 40l10 -3q-11 -33 -33.5 -60t-53.5 -47t-69 -31t-78 -11q-54 0 -99 18t-78 50t-51 76.5t-18 97.5q0 61 20 112t56 88t85.5 57.5t108.5 20.5q42 0 78.5 -10.5t65.5 -32
t49 -55.5t28 -81h-88h-312h-1zM505 354h6h-6zM440 353q-17 73 -52.5 106t-80.5 33q-62 0 -106.5 -38.5t-63.5 -103.5zM282 652l140 143l11 -9l-123 -191q-5 -7 -13.5 -18t-14.5 -11q-7 0 -15.5 11t-12.5 17l-124 192l11 9z" />
    <glyph glyph-name="Gcircumflex" unicode="&#x11c;" horiz-adv-x="819" 
d="M763 327q0 -1 -0.5 -5t-1.5 -6h-13q-22 0 -36 -18t-14 -74v-176q38 11 71 27l5 -12q-66 -31 -151.5 -50.5t-202.5 -19.5q-80 0 -147.5 28.5t-116 79.5t-75.5 122t-27 155t27.5 155t76.5 122t117 79.5t149 28.5q72 0 122 -14.5t88 -40.5q30 -18 51 -23t23 3q1 5 2 8.5
t2 6.5q1 4 1 6l6 3v-89v-87q-5 2 -6 2h-2q0 2 -1 5q-1 2 -2 4.5t-2 6.5q-6 18 -20.5 41t-35 45.5t-45 42.5t-50.5 32t-56.5 18.5t-67.5 6.5q-61 0 -111.5 -27t-87 -75.5t-57 -115.5t-20.5 -147t20 -146.5t56 -114.5t86 -74.5t110 -26.5q74 0 122.5 25t53.5 65l-1 118
q0 56 -17 74t-44 18h-13q-1 1 -1 2v4q-1 2 -1 4q0 1 -1 2h235zM269 805l-11 9l124 192q4 6 12.5 17t15.5 11q6 0 14.5 -11t13.5 -18l123 -191l-11 -9l-140 143z" />
    <glyph glyph-name="gcircumflex" unicode="&#x11d;" horiz-adv-x="540" 
d="M156 350q0 -63 31 -103t79 -40t79 40t31 103q0 31 -8 56.5t-23 44.5t-35 29.5t-44 10.5t-44 -10.5t-35 -29.5t-23 -44.5t-8 -56.5zM164 4q-24 -12 -38 -33t-14 -47q0 -30 12.5 -55t35 -43t53.5 -28t68 -10q35 0 64 9t50 25.5t33 39.5t12 50q0 40 -32.5 65t-104.5 25h-119
h-10t-10 1v1zM144 7q-41 9 -65.5 35.5t-24.5 63.5q0 35 37 59.5t100 34.5q-54 17 -85.5 57t-31.5 94q0 35 14 64.5t39.5 50.5t60 33t76.5 12q62 0 107.5 -25t66.5 -67q19 34 50 55.5t63 21.5q23 0 38 -15.5t15 -39.5q0 -17 -9.5 -27.5t-23.5 -10.5q-17 0 -27 8t-10 20
q0 14 -4.5 23t-12.5 9q-17 0 -36.5 -17t-34.5 -44q9 -24 9 -51q0 -36 -14 -65.5t-39.5 -51t-60 -33.5t-76.5 -12q-72 0 -118 -16.5t-46 -42.5q0 -21 24 -34t62 -13h124q102 -1 148 -43t46 -108q0 -35 -17 -64.5t-47.5 -51t-72.5 -33.5t-93 -12q-50 0 -92 10t-72.5 28
t-47.5 42.5t-17 54.5q0 32 27 59.5t72 41.5h-1zM130 555l-11 9l124 192q4 6 12.5 17t15.5 11q6 0 14.5 -11t13.5 -18l123 -191l-11 -9l-140 143z" />
    <glyph glyph-name="Gbreve" unicode="&#x11e;" horiz-adv-x="819" 
d="M294 997q2 -30 38 -49t89 -19q54 0 90 18.5t38 47.5l17 -2q-5 -53 -45 -86.5t-100 -33.5q-59 0 -99 33.5t-45 87.5zM763 327q0 -1 -0.5 -5t-1.5 -6h-13q-22 0 -36 -18t-14 -74v-176q38 11 71 27l5 -12q-66 -31 -151.5 -50.5t-202.5 -19.5q-80 0 -147.5 28.5t-116 79.5
t-75.5 122t-27 155t27.5 155t76.5 122t117 79.5t149 28.5q72 0 122 -14.5t88 -40.5q30 -18 51 -23t23 3q1 5 2 8.5t2 6.5q1 4 1 6l6 3v-89v-87q-5 2 -6 2h-2q0 2 -1 5q-1 2 -2 4.5t-2 6.5q-6 18 -20.5 41t-35 45.5t-45 42.5t-50.5 32t-56.5 18.5t-67.5 6.5q-61 0 -111.5 -27
t-87 -75.5t-57 -115.5t-20.5 -147t20 -146.5t56 -114.5t86 -74.5t110 -26.5q74 0 122.5 25t53.5 65l-1 118q0 56 -17 74t-44 18h-13q-1 1 -1 2v4q-1 2 -1 4q0 1 -1 2h235z" />
    <glyph glyph-name="gbreve" unicode="&#x11f;" horiz-adv-x="540" 
d="M138 747q3 -30 38.5 -49t89.5 -19q53 0 89 18.5t38 47.5l17 -2q-5 -53 -45 -86.5t-99 -33.5t-99 33.5t-45 87.5zM156 350q0 -63 31 -103t79 -40t79 40t31 103q0 31 -8 56.5t-23 44.5t-35 29.5t-44 10.5t-44 -10.5t-35 -29.5t-23 -44.5t-8 -56.5zM164 4q-24 -12 -38 -33
t-14 -47q0 -30 12.5 -55t35 -43t53.5 -28t68 -10q35 0 64 9t50 25.5t33 39.5t12 50q0 40 -32.5 65t-104.5 25h-119h-10t-10 1v1zM144 7q-41 9 -65.5 35.5t-24.5 63.5q0 35 37 59.5t100 34.5q-54 17 -85.5 57t-31.5 94q0 35 14 64.5t39.5 50.5t60 33t76.5 12q62 0 107.5 -25
t66.5 -67q19 34 50 55.5t63 21.5q23 0 38 -15.5t15 -39.5q0 -17 -9.5 -27.5t-23.5 -10.5q-17 0 -27 8t-10 20q0 14 -4.5 23t-12.5 9q-17 0 -36.5 -17t-34.5 -44q9 -24 9 -51q0 -36 -14 -65.5t-39.5 -51t-60 -33.5t-76.5 -12q-72 0 -118 -16.5t-46 -42.5q0 -21 24 -34t62 -13
h124q102 -1 148 -43t46 -108q0 -35 -17 -64.5t-47.5 -51t-72.5 -33.5t-93 -12q-50 0 -92 10t-72.5 28t-47.5 42.5t-17 54.5q0 32 27 59.5t72 41.5h-1z" />
    <glyph glyph-name="Gdotaccent" unicode="&#x120;" horiz-adv-x="819" 
d="M421 865q-23 0 -37 14.5t-14 37.5t14 37t37 14t37.5 -14t14.5 -37t-14.5 -37.5t-37.5 -14.5zM763 327q0 -1 -0.5 -5t-1.5 -6h-13q-22 0 -36 -18t-14 -74v-176q38 11 71 27l5 -12q-66 -31 -151.5 -50.5t-202.5 -19.5q-80 0 -147.5 28.5t-116 79.5t-75.5 122t-27 155
t27.5 155t76.5 122t117 79.5t149 28.5q72 0 122 -14.5t88 -40.5q30 -18 51 -23t23 3q1 5 2 8.5t2 6.5q1 4 1 6l6 3v-89v-87q-5 2 -6 2h-2q0 2 -1 5q-1 2 -2 4.5t-2 6.5q-6 18 -20.5 41t-35 45.5t-45 42.5t-50.5 32t-56.5 18.5t-67.5 6.5q-61 0 -111.5 -27t-87 -75.5
t-57 -115.5t-20.5 -147t20 -146.5t56 -114.5t86 -74.5t110 -26.5q74 0 122.5 25t53.5 65l-1 118q0 56 -17 74t-44 18h-13q-1 1 -1 2v4q-1 2 -1 4q0 1 -1 2h235z" />
    <glyph glyph-name="gdotaccent" unicode="&#x121;" horiz-adv-x="540" 
d="M266 615q-23 0 -37.5 14.5t-14.5 37.5t14.5 37t37.5 14t37 -14t14 -37t-14 -37.5t-37 -14.5zM156 350q0 -63 31 -103t79 -40t79 40t31 103q0 31 -8 56.5t-23 44.5t-35 29.5t-44 10.5t-44 -10.5t-35 -29.5t-23 -44.5t-8 -56.5zM164 4q-24 -12 -38 -33t-14 -47
q0 -30 12.5 -55t35 -43t53.5 -28t68 -10q35 0 64 9t50 25.5t33 39.5t12 50q0 40 -32.5 65t-104.5 25h-119h-10t-10 1v1zM144 7q-41 9 -65.5 35.5t-24.5 63.5q0 35 37 59.5t100 34.5q-54 17 -85.5 57t-31.5 94q0 35 14 64.5t39.5 50.5t60 33t76.5 12q62 0 107.5 -25t66.5 -67
q19 34 50 55.5t63 21.5q23 0 38 -15.5t15 -39.5q0 -17 -9.5 -27.5t-23.5 -10.5q-17 0 -27 8t-10 20q0 14 -4.5 23t-12.5 9q-17 0 -36.5 -17t-34.5 -44q9 -24 9 -51q0 -36 -14 -65.5t-39.5 -51t-60 -33.5t-76.5 -12q-72 0 -118 -16.5t-46 -42.5q0 -21 24 -34t62 -13h124
q102 -1 148 -43t46 -108q0 -35 -17 -64.5t-47.5 -51t-72.5 -33.5t-93 -12q-50 0 -92 10t-72.5 28t-47.5 42.5t-17 54.5q0 32 27 59.5t72 41.5h-1z" />
    <glyph glyph-name="Hcircumflex" unicode="&#x124;" horiz-adv-x="844" 
d="M542 0q0 1 1.5 5.5t2.5 6.5h13q28 0 46 18t18 74v268h-364v-268q0 -56 18 -74t46 -18h13l2 -6v-5q0 -1 1 -1h-254v1q0 1 0.5 2t0.5 3l2 6h13q28 0 46 18t18 74v542q0 56 -18 74t-46 18h-13l-2 6q0 2 -0.5 2.5t-0.5 1.5v2h254q-1 -1 -1 -2v-4l-2 -6h-13q-28 0 -46 -18
t-18 -74v-252h364v252q0 56 -18 74t-46 18h-13l-4 12h255q-1 -1 -1 -2t-0.5 -1.5t-0.5 -2.5t-0.5 -2.5t-0.5 -1.5v-2h-13q-29 0 -47 -18t-18 -74v-542q0 -56 18 -74t47 -18h13v-2q0 -1 0.5 -2t0.5 -2q0 -2 0.5 -3t0.5 -2t1 -1h-255zM281 805l-11 9l124 192q4 6 12.5 17
t15.5 11q6 0 14.5 -11t13.5 -18l123 -191l-11 -9l-140 143z" />
    <glyph glyph-name="hcircumflex" unicode="&#x125;" horiz-adv-x="626" 
d="M37 725l-2 6q-1 3 -1 6l131 14h15v-97v-269q20 28 45.5 51t52.5 39.5t55 26t53 9.5q33 0 59 -13t43.5 -36.5t26.5 -55.5t9 -70v-300q0 -14 13.5 -18.5t35.5 -4.5h13v-2q0 -1 0.5 -2t0.5 -2q0 -2 0.5 -3t0.5 -2t1 -1h-210q0 1 0.5 5t1.5 6h13q22 0 36 4.5t14 18.5v300
q0 53 -26.5 86t-77.5 33q-20 0 -42 -7t-43.5 -19.5t-40.5 -29.5t-34 -37v-326q0 -14 13.5 -18.5t35.5 -4.5h13v-2q0 -1 0.5 -2t0.5 -2q0 -2 0.5 -3t0.5 -2t1 -1h-211q0 3 1 6l2 6h13q22 0 36 4.5t14 18.5v611q0 26 -3.5 42.5t-10.5 25t-16 11t-20 1.5l-13 -2v1zM172 555
l-11 9l124 192q4 6 12.5 17t15.5 11q6 0 14.5 -11t13.5 -18l123 -191l-11 -9l-140 143z" />
    <glyph glyph-name="Itilde" unicode="&#x128;" horiz-adv-x="347" 
d="M5 870q0 51 21.5 84t56.5 33q24 0 48 -10t48.5 -22.5t48.5 -22.5t48 -10q23 0 37.5 17t14.5 43h12q0 -51 -23 -83.5t-59 -32.5q-24 0 -48 10t-48.5 22.5t-48.5 22.5t-48 10q-21 0 -34.5 -17t-13.5 -44h-12zM45 0q0 1 1.5 5.5t2.5 6.5h13q28 0 46 18t18 74v542
q0 56 -18 74t-46 18h-13l-4 12h255q-1 -1 -1 -2t-0.5 -1.5t-0.5 -2.5t-0.5 -2.5t-0.5 -1.5v-2h-13q-29 0 -47 -18t-18 -74v-542q0 -56 18 -74t47 -18h13v-2q0 -1 0.5 -2t0.5 -2q0 -2 0.5 -3t0.5 -2t1 -1h-255z" />
    <glyph glyph-name="itilde" unicode="&#x129;" horiz-adv-x="288" 
d="M-12 620q0 51 22 84t56 33q24 0 48 -10t48.5 -22.5t49 -22.5t47.5 -10t37.5 17t14.5 43h13q0 -51 -23 -83.5t-60 -32.5q-24 0 -48 10t-48.5 22.5t-48.5 22.5t-48 10q-20 0 -33.5 -17t-13.5 -44h-13zM55 1q0 1 0.5 5t1.5 6h13q20 0 33 4.5t13 18.5v375q0 23 -2.5 37
t-9 21.5t-18.5 9.5t-30 1v6l126 15h14v-90v-375q0 -14 13.5 -18.5t34.5 -4.5h13q0 -3 1 -6l2 -6h-205v1z" />
    <glyph glyph-name="Imacron" unicode="&#x12a;" horiz-adv-x="347" 
d="M7 952h331v-56h-331v56zM45 0q0 1 1.5 5.5t2.5 6.5h13q28 0 46 18t18 74v542q0 56 -18 74t-46 18h-13l-4 12h255q-1 -1 -1 -2t-0.5 -1.5t-0.5 -2.5t-0.5 -2.5t-0.5 -1.5v-2h-13q-29 0 -47 -18t-18 -74v-542q0 -56 18 -74t47 -18h13v-2q0 -1 0.5 -2t0.5 -2q0 -2 0.5 -3
t0.5 -2t1 -1h-255z" />
    <glyph glyph-name="imacron" unicode="&#x12b;" horiz-adv-x="288" 
d="M-10 702h331v-56h-331v56zM55 1q0 1 0.5 5t1.5 6h13q20 0 33 4.5t13 18.5v375q0 23 -2.5 37t-9 21.5t-18.5 9.5t-30 1v6l126 15h14v-90v-375q0 -14 13.5 -18.5t34.5 -4.5h13q0 -3 1 -6l2 -6h-205v1z" />
    <glyph glyph-name="Ibreve" unicode="&#x12c;" horiz-adv-x="347" 
d="M45 997q3 -30 38.5 -49t89.5 -19q53 0 89 18.5t38 47.5l17 -2q-5 -53 -45 -86.5t-99 -33.5q-60 0 -100 33.5t-45 87.5zM45 0q0 1 1.5 5.5t2.5 6.5h13q28 0 46 18t18 74v542q0 56 -18 74t-46 18h-13l-4 12h255q-1 -1 -1 -2t-0.5 -1.5t-0.5 -2.5t-0.5 -2.5t-0.5 -1.5v-2
h-13q-29 0 -47 -18t-18 -74v-542q0 -56 18 -74t47 -18h13v-2q0 -1 0.5 -2t0.5 -2q0 -2 0.5 -3t0.5 -2t1 -1h-255z" />
    <glyph glyph-name="ibreve" unicode="&#x12d;" horiz-adv-x="288" 
d="M28 747q3 -30 38.5 -49t89.5 -19t89.5 18.5t38.5 47.5l16 -2q-5 -53 -45 -86.5t-99 -33.5t-99 33.5t-45 87.5zM55 1q0 1 0.5 5t1.5 6h13q20 0 33 4.5t13 18.5v375q0 23 -2.5 37t-9 21.5t-18.5 9.5t-30 1v6l126 15h14v-90v-375q0 -14 13.5 -18.5t34.5 -4.5h13q0 -3 1 -6
l2 -6h-205v1z" />
    <glyph glyph-name="Iogonek" unicode="&#x12e;" horiz-adv-x="347" 
d="M45 0q0 1 1.5 5.5t2.5 6.5h13q28 0 46 18t18 74v542q0 56 -18 74t-46 18h-13l-4 12h255q-1 -1 -1 -2t-0.5 -1.5t-0.5 -2.5t-0.5 -2.5t-0.5 -1.5v-2h-13q-29 0 -47 -18t-18 -74v-542q0 -56 18 -74t47 -18h13v-2q0 -1 0.5 -2t0.5 -2q0 -2 0.5 -3t0.5 -2t1 -1h-255zM219 -3
q-27 -17 -45.5 -47.5t-18.5 -63.5q0 -31 15 -48.5t41 -17.5q14 0 32 6.5t39 19.5l5 -13q-34 -22 -62 -31.5t-50 -9.5q-33 0 -53 19.5t-20 53.5q0 41 31 81.5t81 64.5z" />
    <glyph glyph-name="iogonek" unicode="&#x12f;" horiz-adv-x="281" 
d="M149 615q-23 0 -37.5 14.5t-14.5 37.5t14.5 37t37.5 14t37 -14t14 -37t-14 -37.5t-37 -14.5zM46 473l-2 6q-1 3 -1 6l131 14h15v-97v-368q0 -14 11.5 -18.5t30.5 -4.5h13q0 -2 1 -6t1 -5h-195v1q0 1 0.5 2t0.5 3l2 6h12q19 0 31 4.5t12 18.5v361q0 26 -3.5 42.5t-10.5 25
t-16 11t-20 1.5l-13 -2v-1zM120 -3q-27 -17 -45.5 -47.5t-18.5 -63.5q0 -31 15 -48.5t41 -17.5q14 0 32 6.5t39 19.5l5 -13q-34 -22 -62 -31.5t-50 -9.5q-33 0 -53 19.5t-20 53.5q0 41 31 81.5t81 64.5z" />
    <glyph glyph-name="Idotaccent" unicode="&#x130;" horiz-adv-x="347" 
d="M173 865q-23 0 -37.5 14.5t-14.5 37.5t14.5 37t37.5 14t37 -14t14 -37t-14 -37.5t-37 -14.5zM45 0q0 1 1.5 5.5t2.5 6.5h13q28 0 46 18t18 74v542q0 56 -18 74t-46 18h-13l-4 12h255q-1 -1 -1 -2t-0.5 -1.5t-0.5 -2.5t-0.5 -2.5t-0.5 -1.5v-2h-13q-29 0 -47 -18t-18 -74
v-542q0 -56 18 -74t47 -18h13v-2q0 -1 0.5 -2t0.5 -2q0 -2 0.5 -3t0.5 -2t1 -1h-255z" />
    <glyph glyph-name="dotlessi" unicode="&#x131;" horiz-adv-x="288" 
d="M55 1q0 1 0.5 5t1.5 6h13q20 0 33 4.5t13 18.5v375q0 23 -2.5 37t-9 21.5t-18.5 9.5t-30 1v6l126 15h14v-90v-375q0 -14 13.5 -18.5t34.5 -4.5h13q0 -3 1 -6l2 -6h-205v1z" />
    <glyph glyph-name="Jcircumflex" unicode="&#x134;" horiz-adv-x="347" 
d="M126 646q0 56 -18 74t-46 18h-13l-4 12h255q-1 -1 -1 -2t-0.5 -1.5t-0.5 -2.5t-0.5 -2.5t-0.5 -1.5v-2h-13q-29 0 -47 -18t-18 -74l1 -536q0 -101 -22 -165.5t-55.5 -101t-73 -50t-73.5 -13.5q-41 0 -66.5 17.5t-25.5 44.5q0 18 11.5 30t30.5 12q16 0 23 -11.5t12 -26
t11.5 -26t23.5 -11.5t36 5t35.5 19t27.5 38.5t11 62.5v712zM33 805l-11 9l124 192q4 6 12.5 17t15.5 11q6 0 14.5 -11t13.5 -18l123 -191l-11 -9l-140 143z" />
    <glyph glyph-name="jcircumflex" unicode="&#x135;" horiz-adv-x="268" 
d="M34 480q-1 3 -1 6l131 14h15v-97v-356q0 -24 -8.5 -49.5t-24 -49t-36.5 -43.5t-46 -35q-42 -24 -71 -39t-34 -16q-26 -2 -43 10.5t-17 34.5q0 17 12.5 28.5t32.5 11.5q12 0 25 -3t26.5 -6.5t27 -6.5t25.5 -3q22 13 36.5 59.5t14.5 106.5v349q0 26 -3.5 42.5t-10.5 25
t-16 11t-20 1.5l-13 -2zM-6 555l-11 9l124 192q4 6 12.5 17t15.5 11q6 0 14.5 -11t13.5 -18l123 -191l-11 -9l-140 143z" />
    <glyph glyph-name="Lacute" unicode="&#x139;" horiz-adv-x="637" 
d="M170 822l115 147q24 30 40.5 49t21.5 19q16 0 28 -12t12 -28q0 -5 -18 -22t-47 -42l-142 -120zM575 0h-266h-91h-93h-81q0 1 1.5 5.5t2.5 6.5h13q14 0 25.5 4t20 15t13.5 30.5t5 50.5v526q0 31 -5 50.5t-13.5 30.5t-20 15t-25.5 4h-13l-4 12h81h93h81q-1 -1 -1 -2
t-0.5 -1.5t-0.5 -2.5t-0.5 -2.5t-0.5 -1.5v-2h-13q-14 0 -26 -4t-20.5 -15t-13.5 -30.5t-5 -50.5v-526v-32q0 -14 2.5 -25.5t11 -20t24.5 -13.5t42 -5h15q78 0 129.5 8t83.5 22.5t48 34t22 43.5l4 13q0 1 1 1q3 0 5 1q3 0 4.5 0.5t2.5 0.5q-9 -31 -17 -62l-16 -62z" />
    <glyph glyph-name="lacute" unicode="&#x13a;" horiz-adv-x="271" 
d="M34 730q-1 3 -1 6l131 14h15v-97v-618q0 -14 13 -18.5t33 -4.5h12l2 -6v-5q0 -1 1 -1h-203q1 0 1 1q0 3 1 5v4q0 1 1 2h13q20 0 33 4.5t13 18.5v611q0 26 -3.5 42.5t-10.5 25t-16 11t-20 1.5l-13 -2zM28 772l115 147q24 30 40.5 49t21.5 19q15 0 27 -12t12 -28
q0 -5 -18 -22t-47 -42l-141 -120z" />
    <glyph glyph-name="Lcaron" unicode="&#x13d;" horiz-adv-x="637" 
d="M575 0h-266h-91h-93h-81q0 1 1.5 5.5t2.5 6.5h13q14 0 25.5 4t20 15t13.5 30.5t5 50.5v526q0 31 -5 50.5t-13.5 30.5t-20 15t-25.5 4h-13l-4 12h81h93h81q-1 -1 -1 -2t-0.5 -1.5t-0.5 -2.5t-0.5 -2.5t-0.5 -1.5v-2h-13q-14 0 -26 -4t-20.5 -15t-13.5 -30.5t-5 -50.5v-526
v-32q0 -14 2.5 -25.5t11 -20t24.5 -13.5t42 -5h15q78 0 129.5 8t83.5 22.5t48 34t22 43.5l4 13q0 1 1 1q3 0 5 1q3 0 4.5 0.5t2.5 0.5q-9 -31 -17 -62l-16 -62zM362 586l-14 3l11 112q1 16 4 35t7 35t9 26.5t11 10.5q16 0 26 -2.5t10 -9.5q0 -16 -7.5 -45.5t-18.5 -58.5z
" />
    <glyph glyph-name="lcaron" unicode="&#x13e;" horiz-adv-x="271" 
d="M34 730q-1 3 -1 6l131 14h15v-97v-618q0 -14 13 -18.5t33 -4.5h12l2 -6v-5q0 -1 1 -1h-203q1 0 1 1q0 3 1 5v4q0 1 1 2h13q20 0 33 4.5t13 18.5v611q0 26 -3.5 42.5t-10.5 25t-16 11t-20 1.5l-13 -2zM239 536l-14 3l11 112q1 16 4 35t7 35t9 26.5t11 10.5q16 0 26 -2.5
t10 -9.5q0 -16 -7 -45.5t-18 -58.5z" />
    <glyph glyph-name="Nacute" unicode="&#x143;" horiz-adv-x="773" 
d="M281 822l115 147q23 30 40 49t21 19q16 0 28 -12t12 -28q0 -5 -18 -22t-47 -42l-141 -120zM102 685q-26 33 -39 43.5t-22 10.5h-28v2q0 1 -0.5 1.5t-0.5 2.5t-0.5 2.5t-0.5 1.5v2h41h71h23h22l432 -568l20 -26l-2 452q-2 40 -8 65t-16.5 39.5t-24.5 20t-30 5.5h-13l-4 12
h95h29h94q0 -1 -1.5 -5.5t-2.5 -6.5h-13q-16 0 -29.5 -5t-23.5 -19t-16.5 -38t-8.5 -61l-6 -615h-19l-96 127l-378 498l2 -428q0 -57 5 -93t14.5 -56.5t22 -28t27.5 -7.5h23l2 -6v-5q0 -1 1 -1h-94h-28h-94q0 1 0.5 5t1.5 6h23q15 0 27.5 8t22 30.5t14.5 61t5 100.5l1 445
l-21 27z" />
    <glyph glyph-name="nacute" unicode="&#x144;" horiz-adv-x="591" 
d="M30 471q0 5 -1 7l-2 4l131 18h15v-97v-22q21 28 44.5 51.5t47 41t46 27t41.5 9.5q36 0 63 -13.5t46 -37.5t28.5 -57t9.5 -72v-295q0 -14 13 -18.5t33 -4.5h13v-2q0 -1 0.5 -2t0.5 -2q0 -2 0.5 -3t0.5 -2t1 -1h-203v1q0 1 0.5 2t0.5 3l2 6h12q20 0 33 4.5t13 18.5v295
q0 55 -28.5 90t-82.5 35q-29 0 -66.5 -27t-68.5 -69v-324q0 -14 13 -18.5t33 -4.5h12l2 -6v-5q0 -1 1 -1h-203q1 0 1 1q0 3 1 5v4q0 1 1 2h13q20 0 33 4.5t13 18.5v359q0 52 -14 67t-36 12l-13 -2v0zM188 572l115 147q24 30 40.5 49t21.5 19q15 0 27 -12t12 -28
q0 -5 -18 -22t-47 -42l-141 -120z" />
    <glyph glyph-name="Ncaron" unicode="&#x147;" horiz-adv-x="773" 
d="M101 684l21 -27l-1 -445q0 -62 -5 -100.5t-14.5 -61t-22 -30.5t-27.5 -8h-23q-1 -2 -1.5 -6t-0.5 -5h94h28h94q-1 0 -1 1v5l-2 6h-23q-15 0 -27.5 7.5t-22 28t-14.5 56.5t-5 93l-2 428l378 -498l96 -127h19l6 615q2 37 8.5 61t16.5 38t23.5 19t29.5 5h13q1 2 2.5 6.5
t1.5 5.5h-94h-29h-95l4 -12h13q16 0 30 -5.5t24.5 -20t16.5 -39.5t8 -65l2 -452l-20 26l-432 568h-22h-23h-71h-41v-2q0 -1 0.5 -1.5t0.5 -2.5t0.5 -2.5t0.5 -1.5v-2h28q9 0 22 -10.5t39 -43.5zM387 902l140 143l11 -9l-123 -191q-5 -7 -13.5 -18t-14.5 -11q-7 0 -15.5 11
t-12.5 17l-124 192l11 9z" />
    <glyph glyph-name="ncaron" unicode="&#x148;" horiz-adv-x="591" 
d="M30 471q0 5 -1 7l-2 4l131 18h15v-97v-22q21 28 44.5 51.5t47 41t46 27t41.5 9.5q36 0 63 -13.5t46 -37.5t28.5 -57t9.5 -72v-295q0 -14 13 -18.5t33 -4.5h13v-2q0 -1 0.5 -2t0.5 -2q0 -2 0.5 -3t0.5 -2t1 -1h-203v1q0 1 0.5 2t0.5 3l2 6h12q20 0 33 4.5t13 18.5v295
q0 55 -28.5 90t-82.5 35q-29 0 -66.5 -27t-68.5 -69v-324q0 -14 13 -18.5t33 -4.5h12l2 -6v-5q0 -1 1 -1h-203q1 0 1 1q0 3 1 5v4q0 1 1 2h13q20 0 33 4.5t13 18.5v359q0 52 -14 67t-36 12l-13 -2v0zM296 652l140 143l11 -9l-123 -191q-5 -7 -13.5 -18t-14.5 -11
q-7 0 -15.5 11t-12.5 17l-124 192l11 9z" />
    <glyph glyph-name="Omacron" unicode="&#x14c;" horiz-adv-x="869" 
d="M263 952h331v-56h-331v56zM422 11q64 0 117.5 27t92 75t60 115t21.5 147t-21.5 147t-59.5 115t-91 75t-116 27q-60 0 -109.5 -27t-85.5 -75t-56 -115t-20 -147t20 -147t55.5 -115t84.5 -75t108 -27zM51 375q0 84 28 155t78 122t119 79.5t152 28.5q85 0 156 -28.5
t122.5 -79.5t80 -122t28.5 -155t-29.5 -155t-82 -122t-125.5 -79.5t-160 -28.5q-81 0 -148 28.5t-116 79.5t-76 122t-27 155z" />
    <glyph glyph-name="omacron" unicode="&#x14d;" horiz-adv-x="629" 
d="M148 702h331v-56h-331v56zM313 11q40 0 73.5 17.5t58 49.5t38 75.5t13.5 96.5q0 52 -13.5 96t-38 76t-58 49.5t-73.5 17.5t-73.5 -17.5t-58 -49.5t-38 -76t-13.5 -96q0 -53 13.5 -96.5t38 -75.5t58 -49.5t73.5 -17.5zM42 250q0 57 20 104.5t56 82t86 54t109 19.5
q60 0 110 -19.5t86 -54t56 -82t20 -104.5t-20 -105t-56 -82.5t-86 -53.5t-110 -19q-59 0 -109 19t-86 53.5t-56 82.5t-20 105z" />
    <glyph glyph-name="Obreve" unicode="&#x14e;" horiz-adv-x="869" 
d="M301 997q2 -30 38 -49t89 -19q54 0 89.5 18.5t38.5 47.5l16 -2q-4 -53 -44 -86.5t-100 -33.5q-59 0 -99 33.5t-45 87.5zM422 11q64 0 117.5 27t92 75t60 115t21.5 147t-21.5 147t-59.5 115t-91 75t-116 27q-60 0 -109.5 -27t-85.5 -75t-56 -115t-20 -147t20 -147
t55.5 -115t84.5 -75t108 -27zM51 375q0 84 28 155t78 122t119 79.5t152 28.5q85 0 156 -28.5t122.5 -79.5t80 -122t28.5 -155t-29.5 -155t-82 -122t-125.5 -79.5t-160 -28.5q-81 0 -148 28.5t-116 79.5t-76 122t-27 155z" />
    <glyph glyph-name="obreve" unicode="&#x14f;" horiz-adv-x="629" 
d="M186 747q2 -30 38 -49t89 -19q54 0 89.5 18.5t38.5 47.5l17 -2q-5 -53 -45 -86.5t-100 -33.5q-59 0 -99 33.5t-45 87.5zM313 11q40 0 73.5 17.5t58 49.5t38 75.5t13.5 96.5q0 52 -13.5 96t-38 76t-58 49.5t-73.5 17.5t-73.5 -17.5t-58 -49.5t-38 -76t-13.5 -96
q0 -53 13.5 -96.5t38 -75.5t58 -49.5t73.5 -17.5zM42 250q0 57 20 104.5t56 82t86 54t109 19.5q60 0 110 -19.5t86 -54t56 -82t20 -104.5t-20 -105t-56 -82.5t-86 -53.5t-110 -19q-59 0 -109 19t-86 53.5t-56 82.5t-20 105z" />
    <glyph glyph-name="Racute" unicode="&#x154;" horiz-adv-x="774" 
d="M764 0q-67 0 -106 2t-62.5 9t-38 21.5t-30.5 39.5q-34 52 -63 98t-52.5 83t-39.5 63.5t-23 40.5h-126v-245q0 -31 5 -50.5t13.5 -30.5t20 -15t25.5 -4h13l2 -6v-5q0 -1 1 -1h-254v1q0 1 0.5 2t0.5 3l2 6h13q14 0 25.5 4t20 15t13.5 30.5t5 50.5v526q0 31 -5 50.5
t-13.5 30.5t-20 15t-25.5 4h-13l-2 6q0 2 -0.5 2.5t-0.5 1.5v2h174h131q57 0 104 -15.5t81.5 -44t53.5 -67.5t19 -85q0 -72 -45.5 -115t-122.5 -58q10 -16 28.5 -44t43.5 -65.5t55 -84t65 -99.5q14 -21 24 -33.5t23 -18.5t31.5 -7.5t49.5 -1.5v-11zM223 638v-258h131
q34 0 62.5 11t49 33t32 55t11.5 78q0 38 -13.5 70t-38 55t-58 36t-73.5 13h-103v-93zM279 822l115 147q24 30 40.5 49t21.5 19q15 0 27 -12t12 -28q0 -5 -18 -22t-47 -42l-141 -120z" />
    <glyph glyph-name="racute" unicode="&#x155;" horiz-adv-x="448" 
d="M35 471q0 5 -1 7l-2 4l131 18h15v-97v-8q26 51 70 83t91 32q44 0 72.5 -22.5t27.5 -57.5q-1 -21 -14 -34t-33 -13q-21 0 -34.5 13t-12.5 34q1 19 -11.5 31t-32.5 12q-30 0 -64 -32t-58 -83v-323q0 -14 13.5 -18.5t35.5 -4.5h13v-2q0 -1 0.5 -2t0.5 -2q0 -2 0.5 -3t0.5 -2
t1 -1h-203v1q0 1 0.5 2t0.5 3l2 6h12q19 0 31 4.5t12 18.5v359q0 52 -14 67t-36 12l-13 -2h-1zM116 572l115 147q24 30 40.5 49t21.5 19q15 0 27 -12t12 -28q0 -5 -18 -22t-47 -42l-141 -120z" />
    <glyph glyph-name="Rcaron" unicode="&#x158;" horiz-adv-x="774" 
d="M764 0v11q-31 0 -49.5 1.5t-31.5 7.5t-23 18.5t-24 33.5q-35 53 -65 99.5t-55 84t-43.5 65.5t-28.5 44q77 15 122.5 58t45.5 115q0 46 -19 85t-53.5 67.5t-81.5 44t-104 15.5h-131h-174v-2q0 -1 0.5 -1.5t0.5 -2.5l2 -6h13q14 0 25.5 -4t20 -15t13.5 -30.5t5 -50.5v-526
q0 -31 -5 -50.5t-13.5 -30.5t-20 -15t-25.5 -4h-13l-2 -6q0 -2 -0.5 -3t-0.5 -2v-1h254q-1 0 -1 1v5l-2 6h-13q-14 0 -25.5 4t-20 15t-13.5 30.5t-5 50.5v245h126q7 -14 23 -40.5t39.5 -63.5t52.5 -83t63 -98q16 -25 30.5 -39.5t38 -21.5t62.5 -9t106 -2zM223 731h103
q40 0 73.5 -13t58 -36t38 -55t13.5 -70q0 -45 -11.5 -78t-32 -55t-49 -33t-62.5 -11h-131v258v93zM387 902l140 143l11 -9l-123 -191q-5 -7 -13.5 -18t-14.5 -11q-7 0 -15.5 11t-12.5 17l-124 192l11 9z" />
    <glyph glyph-name="rcaron" unicode="&#x159;" horiz-adv-x="448" 
d="M35 471q0 5 -1 7l-2 4l131 18h15v-97v-8q26 51 70 83t91 32q44 0 72.5 -22.5t27.5 -57.5q-1 -21 -14 -34t-33 -13q-21 0 -34.5 13t-12.5 34q1 19 -11.5 31t-32.5 12q-30 0 -64 -32t-58 -83v-323q0 -14 13.5 -18.5t35.5 -4.5h13v-2q0 -1 0.5 -2t0.5 -2q0 -2 0.5 -3t0.5 -2
t1 -1h-203v1q0 1 0.5 2t0.5 3l2 6h12q19 0 31 4.5t12 18.5v359q0 52 -14 67t-36 12l-13 -2h-1zM225 652l140 143l11 -9l-123 -191q-5 -7 -13.5 -18t-14.5 -11q-7 0 -15.5 11t-12.5 17l-124 192l11 9z" />
    <glyph glyph-name="Sacute" unicode="&#x15a;" horiz-adv-x="570" 
d="M431 710q20 -14 33.5 -14t15.5 8q1 5 2 9t2 7q1 4 1 6h1q1 0 1.5 0.5t1.5 0.5t1 0.5t1 0.5l1 1v-88v-78l-1 1q-1 0 -2 1h-3q-1 0 -1 1q0 2 -1 5q-1 2 -2 4.5t-2 6.5q-6 21 -22.5 45t-38.5 46t-49 38t-54 22l10 -2q-32 8 -62 8q-55 0 -89.5 -39t-34.5 -101q0 -45 50 -93
t144 -83q97 -37 147.5 -99.5t50.5 -130.5q0 -45 -17 -82.5t-47 -64.5t-71.5 -42t-90.5 -15q-46 0 -90 15t-81 42q-29 22 -49.5 26t-22.5 -6q-2 -6 -2.5 -11t-1.5 -9t-1 -7q-1 -1 -3.5 -2t-4.5 -2v111v78l4 -2q1 0 1 -0.5t1 -0.5h1q6 -21 18.5 -46t29.5 -49t37 -44.5
t42 -33.5q28 -15 58.5 -23.5t62.5 -8.5q33 0 60.5 11t48 31t31.5 47.5t11 60.5q0 41 -46 84t-133 76q-51 20 -90.5 47t-66 58t-40.5 65t-14 69q0 43 14.5 78.5t41 61.5t62.5 40.5t79 14.5q47 0 90 -12.5t76 -35.5zM317 733h-3h2h1zM177 822l115 147q24 30 40.5 49t21.5 19
q15 0 27 -12t12 -28q0 -5 -18 -22t-47 -42l-141 -120z" />
    <glyph glyph-name="sacute" unicode="&#x15b;" horiz-adv-x="459" 
d="M383 367q-1 0 -5 0.5t-6 1.5v12q0 25 -19.5 52t-52.5 44q-30 14 -62 17h1h-15l14 -1h-15q-42 0 -69 -24t-27 -62q0 -39 34.5 -74t98.5 -54q73 -20 111.5 -61.5t38.5 -89.5q0 -30 -12.5 -55.5t-34.5 -44t-52.5 -29t-67.5 -10.5q-41 0 -82 19q-35 14 -56 25.5t-21 13.5v-16
l-6 -2q-3 -1 -6 -1v66v59h1q1 0 2 -0.5t3 -0.5q1 0 2 -0.5t2 -0.5h2v-12q0 -16 8 -35h1q20 -43 61.5 -70.5t88.5 -27.5q46 0 75.5 28t29.5 72q0 35 -31.5 66t-91.5 48q-75 21 -114.5 65.5t-39.5 95.5q0 28 11 51.5t31.5 41t48.5 27t61 9.5q49 0 91 -20h1q25 -12 41 -10.5
t16 9.5v21h12v-84v-60zM122 572l115 147q24 30 40.5 49t21.5 19q15 0 27 -12t12 -28q0 -5 -18 -22t-47 -42l-141 -120z" />
    <glyph glyph-name="Scircumflex" unicode="&#x15c;" horiz-adv-x="570" 
d="M431 710q20 -14 33.5 -14t15.5 8q1 5 2 9t2 7q1 4 1 6h1q1 0 1.5 0.5t1.5 0.5t1 0.5t1 0.5l1 1v-88v-78l-1 1q-1 0 -2 1h-3q-1 0 -1 1q0 2 -1 5q-1 2 -2 4.5t-2 6.5q-6 21 -22.5 45t-38.5 46t-49 38t-54 22l10 -2q-32 8 -62 8q-55 0 -89.5 -39t-34.5 -101q0 -45 50 -93
t144 -83q97 -37 147.5 -99.5t50.5 -130.5q0 -45 -17 -82.5t-47 -64.5t-71.5 -42t-90.5 -15q-46 0 -90 15t-81 42q-29 22 -49.5 26t-22.5 -6q-2 -6 -2.5 -11t-1.5 -9t-1 -7q-1 -1 -3.5 -2t-4.5 -2v111v78l4 -2q1 0 1 -0.5t1 -0.5h1q6 -21 18.5 -46t29.5 -49t37 -44.5
t42 -33.5q28 -15 58.5 -23.5t62.5 -8.5q33 0 60.5 11t48 31t31.5 47.5t11 60.5q0 41 -46 84t-133 76q-51 20 -90.5 47t-66 58t-40.5 65t-14 69q0 43 14.5 78.5t41 61.5t62.5 40.5t79 14.5q47 0 90 -12.5t76 -35.5zM317 733h-3h2h1zM144 805l-11 9l124 192q4 6 12.5 17
t15.5 11q6 0 14.5 -11t13.5 -18l123 -191l-11 -9l-140 143z" />
    <glyph glyph-name="scircumflex" unicode="&#x15d;" horiz-adv-x="459" 
d="M383 367q-1 0 -5 0.5t-6 1.5v12q0 25 -19.5 52t-52.5 44q-30 14 -62 17h1h-15l14 -1h-15q-42 0 -69 -24t-27 -62q0 -39 34.5 -74t98.5 -54q73 -20 111.5 -61.5t38.5 -89.5q0 -30 -12.5 -55.5t-34.5 -44t-52.5 -29t-67.5 -10.5q-41 0 -82 19q-35 14 -56 25.5t-21 13.5v-16
l-6 -2q-3 -1 -6 -1v66v59h1q1 0 2 -0.5t3 -0.5q1 0 2 -0.5t2 -0.5h2v-12q0 -16 8 -35h1q20 -43 61.5 -70.5t88.5 -27.5q46 0 75.5 28t29.5 72q0 35 -31.5 66t-91.5 48q-75 21 -114.5 65.5t-39.5 95.5q0 28 11 51.5t31.5 41t48.5 27t61 9.5q49 0 91 -20h1q25 -12 41 -10.5
t16 9.5v21h12v-84v-60zM89 555l-11 9l124 192q4 6 12.5 17t15.5 11q6 0 14.5 -11t13.5 -18l123 -191l-11 -9l-140 143z" />
    <glyph glyph-name="Scedilla" unicode="&#x15e;" horiz-adv-x="570" 
d="M431 710q20 -14 33.5 -14t15.5 8q1 5 2 9t2 7q1 4 1 6h1q1 0 1.5 0.5t1.5 0.5t1 0.5t1 0.5l1 1v-88v-78l-1 1q-1 0 -2 1h-3q-1 0 -1 1q0 2 -1 5q-1 2 -2 4.5t-2 6.5q-6 21 -22.5 45t-38.5 46t-49 38t-54 22l10 -2q-32 8 -62 8q-55 0 -89.5 -39t-34.5 -101q0 -45 50 -93
t144 -83q97 -37 147.5 -99.5t50.5 -130.5q0 -45 -17 -82.5t-47 -64.5t-71.5 -42t-90.5 -15q-46 0 -90 15t-81 42q-29 22 -49.5 26t-22.5 -6q-2 -6 -2.5 -11t-1.5 -9t-1 -7q-1 -1 -3.5 -2t-4.5 -2v111v78l4 -2q1 0 1 -0.5t1 -0.5h1q6 -21 18.5 -46t29.5 -49t37 -44.5
t42 -33.5q28 -15 58.5 -23.5t62.5 -8.5q33 0 60.5 11t48 31t31.5 47.5t11 60.5q0 41 -46 84t-133 76q-51 20 -90.5 47t-66 58t-40.5 65t-14 69q0 43 14.5 78.5t41 61.5t62.5 40.5t79 14.5q47 0 90 -12.5t76 -35.5zM317 733h-3h2h1zM383 5l-19 -50q29 -11 48 -31.5t19 -61.5
q0 -38 -30.5 -66t-68.5 -28q-21 0 -38.5 10.5t-17.5 26.5q0 12 5 19.5t13 7.5q15 0 31 -16t29 -16q15 0 28 13.5t13 31.5q0 22 -20 36.5t-55 21.5l41 102h22z" />
    <glyph glyph-name="scedilla" unicode="&#x15f;" horiz-adv-x="459" 
d="M383 367q-1 0 -5 0.5t-6 1.5v12q0 25 -19.5 52t-52.5 44q-30 14 -62 17h1h-15l14 -1h-15q-42 0 -69 -24t-27 -62q0 -39 34.5 -74t98.5 -54q73 -20 111.5 -61.5t38.5 -89.5q0 -30 -12.5 -55.5t-34.5 -44t-52.5 -29t-67.5 -10.5q-41 0 -82 19q-35 14 -56 25.5t-21 13.5v-16
l-6 -2q-3 -1 -6 -1v66v59h1q1 0 2 -0.5t3 -0.5q1 0 2 -0.5t2 -0.5h2v-12q0 -16 8 -35h1q20 -43 61.5 -70.5t88.5 -27.5q46 0 75.5 28t29.5 72q0 35 -31.5 66t-91.5 48q-75 21 -114.5 65.5t-39.5 95.5q0 28 11 51.5t31.5 41t48.5 27t61 9.5q49 0 91 -20h1q25 -12 41 -10.5
t16 9.5v21h12v-84v-60zM306 5l-19 -50q29 -11 48 -31.5t19 -61.5q0 -38 -30.5 -66t-68.5 -28q-21 0 -38.5 10.5t-17.5 26.5q0 12 5 19.5t13 7.5q15 0 31 -16t29 -16q15 0 28 13.5t13 31.5q0 22 -20 36.5t-55 21.5l41 102h22z" />
    <glyph glyph-name="Scaron" unicode="&#x160;" horiz-adv-x="570" 
d="M429 712q-33 23 -76 35.5t-90 12.5q-43 0 -79 -14.5t-62.5 -40.5t-41 -61.5t-14.5 -78.5q0 -35 14 -69t40.5 -65t66 -58t90.5 -47q87 -33 133 -76t46 -84q0 -33 -11 -60.5t-31.5 -47.5t-48 -31t-60.5 -11q-32 0 -62.5 8.5t-58.5 23.5q-22 13 -42 33.5t-37 44.5t-29.5 49
t-18.5 46h-1q-1 0 -1 0.5t-1 0.5l-4 2v-78v-111q2 1 4.5 2t3.5 2q0 3 1 7t1.5 9t2.5 11q2 10 22.5 6t49.5 -26q37 -27 81 -42t90 -15q49 0 90.5 15t71.5 42t47 64.5t17 82.5q0 68 -50.5 130.5t-147.5 99.5q-94 35 -144 83t-50 93q0 62 34.5 101t89.5 39q30 0 62 -8l-10 2
q27 -6 54 -22t49 -38t38.5 -46t22.5 -45q1 -4 2 -6.5t2 -4.5q1 -3 1 -5q0 -1 1 -1h3q1 -1 2 -1l1 -1v78v88l-1 -1q-1 0 -1 -0.5t-1 -0.5t-1.5 -0.5t-1.5 -0.5h-1q0 -2 -1 -6q-1 -3 -2 -7t-2 -9q-2 -8 -15.5 -8t-33.5 14zM286 898l141 144l10 -9l-123 -191q-4 -7 -12.5 -18
t-15.5 -11t-15.5 11t-12.5 17l-124 192l11 9zM316 733h-2h3h-1z" />
    <glyph glyph-name="scaron" unicode="&#x161;" horiz-adv-x="459" 
d="M384 366v60v84h-12v-21q0 -8 -16 -9.5t-41 10.5h-1q-42 20 -91 20q-33 0 -61 -9.5t-48.5 -27t-31.5 -41t-11 -51.5q0 -51 39.5 -95.5t114.5 -65.5q60 -17 91.5 -48t31.5 -66q0 -44 -29.5 -72t-75.5 -28q-47 0 -88.5 27.5t-61.5 70.5h-1q-8 19 -8 35v12h-2q-1 0 -2 0.5
t-2 0.5q-2 0 -3 0.5t-2 0.5h-1v-59v-66q3 0 6 1l6 2v16q0 -2 21 -13.5t56 -25.5q41 -19 82 -19q37 0 67.5 10.5t52.5 29t34.5 44t12.5 55.5q0 48 -38.5 89.5t-111.5 61.5q-64 19 -98.5 54t-34.5 74q0 38 27 62t69 24h15l-14 1h15h-1q32 -3 62 -17q33 -17 52.5 -44t19.5 -52
v-12q2 -1 6 -1.5t5 -0.5zM242 652l140 143l11 -9l-123 -191q-5 -7 -13.5 -18t-14.5 -11q-7 0 -15.5 11t-12.5 17l-124 192l11 9z" />
    <glyph glyph-name="Tcaron" unicode="&#x164;" horiz-adv-x="795" 
d="M270 0h255q-1 0 -1 1t-0.5 2t-0.5 3q0 1 -0.5 2t-0.5 2v2h-13q-28 0 -46 18t-18 74v623h130q47 0 79 -5t52 -13.5t30.5 -20.5t15.5 -26l5 -12q0 -1 1 -1h5q2 -1 4 -1h2q-7 20 -13.5 40t-14.5 40v23h-9q-4 11 -7.5 21t-7.5 20h-6q-2 -1 -4 -1h-1l3 -10q3 -6 -1.5 -11.5
t-20 -9.5t-44.5 -6.5t-77 -2.5h-121h-94h-122q-47 0 -76 2.5t-44.5 6.5t-20 9.5t-1.5 11.5l3 10h-2q-2 0 -4 1h-6l-15 -42h-9v-23h1q-8 -20 -15 -40t-15 -40h2q3 0 5 1h4q1 0 2 1l5 12q5 14 15.5 26t30.5 20.5t52 13.5t79 5h130v-623q0 -56 -18 -74t-46 -18h-13
q-1 -2 -2.5 -6.5t-1.5 -5.5zM398 902l140 143l11 -9l-123 -191q-5 -7 -13.5 -18t-14.5 -11q-7 0 -15.5 11t-12.5 17l-124 192l11 9z" />
    <glyph glyph-name="tcaron" unicode="&#x165;" horiz-adv-x="385" 
d="M341 458h-164l-2 -321q0 -57 24 -83t62 -26q34 0 63 19t42 49l9 -4q-18 -45 -56.5 -73.5t-82.5 -28.5q-61 0 -99.5 39t-38.5 126v306h-65v10l139 149h5v-120h164v-42zM406 536l-14 3l11 112q1 16 4 35t7 35t9 26.5t11 10.5q16 0 26 -2.5t10 -9.5q0 -16 -7.5 -45.5
t-18.5 -58.5z" />
    <glyph glyph-name="Utilde" unicode="&#x168;" 
d="M201 870q0 51 22 84t56 33q24 0 48 -10t48.5 -22.5t49 -22.5t47.5 -10t37.5 17t14.5 43h13q0 -51 -23 -83.5t-60 -32.5q-24 0 -48 10t-48.5 22.5t-48.5 22.5t-48 10q-20 0 -33.5 -17t-13.5 -44h-13zM644 102q0 -23 3 -37t11.5 -21.5t23.5 -9.5t38 -1v-6l-156 -27h-14v102
v48q-16 -35 -43.5 -64.5t-62.5 -50.5t-75 -33t-81 -12q-43 0 -78.5 17.5t-61 48.5t-40 74t-14.5 94v414q0 31 -5 50.5t-13.5 30.5t-20 15t-25.5 4h-13l-2 6q0 2 -0.5 2.5t-0.5 1.5v2h174v-112v-414q0 -38 10 -70t28.5 -55t43.5 -36t55 -13q35 0 69 10.5t64 29.5t53.5 45
t38.5 57v446q0 31 -5 50.5t-13.5 30.5t-20 15t-25.5 4h-13l-2 6q0 2 -0.5 2.5t-0.5 1.5v2h174v-112v-536z" />
    <glyph glyph-name="utilde" unicode="&#x169;" horiz-adv-x="579" 
d="M117 620q0 51 21.5 84t56.5 33q24 0 48 -10t48.5 -22.5t48.5 -22.5t48 -10q23 0 37.5 17t14.5 43h12q0 -51 -23 -83.5t-60 -32.5q-23 0 -47.5 10t-49 22.5t-48.5 22.5t-48 10q-20 0 -33.5 -17t-13.5 -44h-12zM27 490q0 2 -1 6t-1 5h131v-35v-302q0 -52 29.5 -85t76.5 -33
q23 0 45.5 7t42 19.5t35.5 30t26 38.5v324q0 14 -10 18.5t-26 4.5h-12l-2 6q0 2 -0.5 2.5t-0.5 1.5v2h131v-35v-377q0 -49 14 -63t36 -12l12 1l2 -6v-4q0 -1 1 -2l-131 -12h-14v92v38q-13 -29 -32.5 -53t-44 -41t-52.5 -26.5t-57 -9.5q-32 0 -59.5 13t-47 36t-30.5 54.5
t-11 69.5v302q0 14 -10 18.5t-26 4.5h-13z" />
    <glyph glyph-name="Umacron" unicode="&#x16a;" 
d="M204 952h331v-56h-331v56zM644 102q0 -23 3 -37t11.5 -21.5t23.5 -9.5t38 -1v-6l-156 -27h-14v102v48q-16 -35 -43.5 -64.5t-62.5 -50.5t-75 -33t-81 -12q-43 0 -78.5 17.5t-61 48.5t-40 74t-14.5 94v414q0 31 -5 50.5t-13.5 30.5t-20 15t-25.5 4h-13l-2 6q0 2 -0.5 2.5
t-0.5 1.5v2h174v-112v-414q0 -38 10 -70t28.5 -55t43.5 -36t55 -13q35 0 69 10.5t64 29.5t53.5 45t38.5 57v446q0 31 -5 50.5t-13.5 30.5t-20 15t-25.5 4h-13l-2 6q0 2 -0.5 2.5t-0.5 1.5v2h174v-112v-536z" />
    <glyph glyph-name="umacron" unicode="&#x16b;" horiz-adv-x="579" 
d="M119 702h331v-56h-331v56zM27 490q0 2 -1 6t-1 5h131v-35v-302q0 -52 29.5 -85t76.5 -33q23 0 45.5 7t42 19.5t35.5 30t26 38.5v324q0 14 -10 18.5t-26 4.5h-12l-2 6q0 2 -0.5 2.5t-0.5 1.5v2h131v-35v-377q0 -49 14 -63t36 -12l12 1l2 -6v-4q0 -1 1 -2l-131 -12h-14v92
v38q-13 -29 -32.5 -53t-44 -41t-52.5 -26.5t-57 -9.5q-32 0 -59.5 13t-47 36t-30.5 54.5t-11 69.5v302q0 14 -10 18.5t-26 4.5h-13z" />
    <glyph glyph-name="Ubreve" unicode="&#x16c;" 
d="M241 997q3 -30 38.5 -49t89.5 -19t89.5 18.5t38.5 47.5l16 -2q-4 -53 -44 -86.5t-100 -33.5q-59 0 -99 33.5t-45 87.5zM644 102q0 -23 3 -37t11.5 -21.5t23.5 -9.5t38 -1v-6l-156 -27h-14v102v48q-16 -35 -43.5 -64.5t-62.5 -50.5t-75 -33t-81 -12q-43 0 -78.5 17.5
t-61 48.5t-40 74t-14.5 94v414q0 31 -5 50.5t-13.5 30.5t-20 15t-25.5 4h-13l-2 6q0 2 -0.5 2.5t-0.5 1.5v2h174v-112v-414q0 -38 10 -70t28.5 -55t43.5 -36t55 -13q35 0 69 10.5t64 29.5t53.5 45t38.5 57v446q0 31 -5 50.5t-13.5 30.5t-20 15t-25.5 4h-13l-2 6
q0 2 -0.5 2.5t-0.5 1.5v2h174v-112v-536z" />
    <glyph glyph-name="ubreve" unicode="&#x16d;" horiz-adv-x="579" 
d="M157 747q2 -30 38 -49t89 -19q54 0 89.5 18.5t38.5 47.5l17 -2q-5 -53 -45 -86.5t-100 -33.5q-59 0 -99 33.5t-45 87.5zM27 490q0 2 -1 6t-1 5h131v-35v-302q0 -52 29.5 -85t76.5 -33q23 0 45.5 7t42 19.5t35.5 30t26 38.5v324q0 14 -10 18.5t-26 4.5h-12l-2 6
q0 2 -0.5 2.5t-0.5 1.5v2h131v-35v-377q0 -49 14 -63t36 -12l12 1l2 -6v-4q0 -1 1 -2l-131 -12h-14v92v38q-13 -29 -32.5 -53t-44 -41t-52.5 -26.5t-57 -9.5q-32 0 -59.5 13t-47 36t-30.5 54.5t-11 69.5v302q0 14 -10 18.5t-26 4.5h-13z" />
    <glyph glyph-name="Uring" unicode="&#x16e;" 
d="M369 829q15 0 28 6t23.5 16.5t16.5 24.5t6 29q0 33 -21 54.5t-53 21.5t-53 -21.5t-21 -54.5q0 -15 6 -29t16.5 -24.5t23.5 -16.5t28 -6zM272 905q0 42 27 68.5t70 26.5t70 -26.5t27 -68.5q0 -19 -8 -36t-21.5 -30t-31 -21t-36.5 -8t-36.5 8t-31 21t-21.5 30t-8 36z
M644 102q0 -23 3 -37t11.5 -21.5t23.5 -9.5t38 -1v-6l-156 -27h-14v102v48q-16 -35 -43.5 -64.5t-62.5 -50.5t-75 -33t-81 -12q-43 0 -78.5 17.5t-61 48.5t-40 74t-14.5 94v414q0 31 -5 50.5t-13.5 30.5t-20 15t-25.5 4h-13l-2 6q0 2 -0.5 2.5t-0.5 1.5v2h174v-112v-414
q0 -38 10 -70t28.5 -55t43.5 -36t55 -13q35 0 69 10.5t64 29.5t53.5 45t38.5 57v446q0 31 -5 50.5t-13.5 30.5t-20 15t-25.5 4h-13l-2 6q0 2 -0.5 2.5t-0.5 1.5v2h174v-112v-536z" />
    <glyph glyph-name="uring" unicode="&#x16f;" horiz-adv-x="579" 
d="M284 579q15 0 28 6t23.5 16.5t16.5 24.5t6 29q0 33 -21 54.5t-53 21.5t-53 -21.5t-21 -54.5q0 -15 6 -29t16.5 -24.5t23.5 -16.5t28 -6zM187 655q0 42 27 68.5t70 26.5t70.5 -26.5t27.5 -68.5q0 -19 -8 -36t-21.5 -30t-31.5 -21t-37 -8t-36.5 8t-31 21t-21.5 30t-8 36z
M27 490q0 2 -1 6t-1 5h131v-35v-302q0 -52 29.5 -85t76.5 -33q23 0 45.5 7t42 19.5t35.5 30t26 38.5v324q0 14 -10 18.5t-26 4.5h-12l-2 6q0 2 -0.5 2.5t-0.5 1.5v2h131v-35v-377q0 -49 14 -63t36 -12l12 1l2 -6v-4q0 -1 1 -2l-131 -12h-14v92v38q-13 -29 -32.5 -53t-44 -41
t-52.5 -26.5t-57 -9.5q-32 0 -59.5 13t-47 36t-30.5 54.5t-11 69.5v302q0 14 -10 18.5t-26 4.5h-13z" />
    <glyph glyph-name="Uogonek" unicode="&#x172;" 
d="M644 102q0 -23 3 -37t11.5 -21.5t23.5 -9.5t38 -1v-6l-156 -27h-14v102v48q-16 -35 -43.5 -64.5t-62.5 -50.5t-75 -33t-81 -12q-43 0 -78.5 17.5t-61 48.5t-40 74t-14.5 94v414q0 31 -5 50.5t-13.5 30.5t-20 15t-25.5 4h-13l-2 6q0 2 -0.5 2.5t-0.5 1.5v2h174v-112v-414
q0 -38 10 -70t28.5 -55t43.5 -36t55 -13q35 0 69 10.5t64 29.5t53.5 45t38.5 57v446q0 31 -5 50.5t-13.5 30.5t-20 15t-25.5 4h-13l-2 6q0 2 -0.5 2.5t-0.5 1.5v2h174v-112v-536zM514 -3q-27 -17 -45.5 -47.5t-18.5 -63.5q0 -31 15 -48.5t41 -17.5q14 0 32 6.5t39 19.5
l5 -13q-34 -22 -62 -31.5t-50 -9.5q-33 0 -53 19.5t-20 53.5q0 41 31 81.5t81 64.5z" />
    <glyph glyph-name="uogonek" unicode="&#x173;" horiz-adv-x="579" 
d="M27 490q0 2 -1 6t-1 5h131v-35v-302q0 -52 29.5 -85t76.5 -33q23 0 45.5 7t42 19.5t35.5 30t26 38.5v324q0 14 -10 18.5t-26 4.5h-12l-2 6q0 2 -0.5 2.5t-0.5 1.5v2h131v-35v-377q0 -49 14 -63t36 -12l12 1l2 -6v-4q0 -1 1 -2l-131 -12h-14v92v38q-13 -29 -32.5 -53
t-44 -41t-52.5 -26.5t-57 -9.5q-32 0 -59.5 13t-47 36t-30.5 54.5t-11 69.5v302q0 14 -10 18.5t-26 4.5h-13zM398 -3q-27 -17 -45.5 -47.5t-18.5 -63.5q0 -31 15 -48.5t41 -17.5q14 0 32 6.5t39 19.5l5 -13q-34 -22 -62 -31.5t-50 -9.5q-33 0 -53 19.5t-20 53.5
q0 41 31 81.5t81 64.5z" />
    <glyph glyph-name="Wcircumflex" unicode="&#x174;" horiz-adv-x="1108" 
d="M865 741q0 2 -1 6t-1 5h123h37h68q-1 -1 -1 -2v-4q-1 -2 -1 -4v-2h-25q-9 0 -18 -5t-19 -18.5t-21 -36.5t-24 -59l-196 -629h-23l-183 471l-203 -472h-24q-54 142 -108.5 281.5t-109.5 280.5h-1q-22 57 -37.5 93t-26 56.5t-17.5 28t-11 7.5h-27q0 2 -1 6t-1 5h45h103h108
v-2q0 -1 -0.5 -1.5t-0.5 -2.5t-0.5 -2.5t-0.5 -1.5v-2h-21q-17 0 -28.5 -6.5t-15.5 -24.5t1.5 -49t23.5 -80l177 -464v-1l161 387l-75 192q-14 29 -30 38t-33 9h-25q0 2 -1 6t-1 5h67h104h108q0 -1 -0.5 -5t-1.5 -6h-22q-18 0 -31 -5.5t-17.5 -21t-0.5 -42.5t21 -69
l175 -470l124 423q16 57 19.5 93t-3 56.5t-21.5 28t-36 7.5h-22zM413 805l-11 9l124 192q4 6 12.5 17t15.5 11q6 0 14.5 -11t13.5 -18l123 -191l-11 -9l-140 143z" />
    <glyph glyph-name="wcircumflex" unicode="&#x175;" horiz-adv-x="845" 
d="M833 499q0 -1 -0.5 -5t-1.5 -6h-25q-18 0 -34 -13.5t-32 -57.5v1l-174 -428h-23l174 459q8 25 -0.5 32.5t-27.5 7.5h-23q0 2 -1 6t-1 5h72h37h60v-1zM37 489q0 2 -1 6t-1 5h46h89h51q-1 -1 -1 -2t-0.5 -1.5t-0.5 -2.5t-0.5 -2.5t-0.5 -1.5v-2h-24q-9 0 -13 -5.5t4 -24.5
l128 -366l100 258l-39 108q-7 19 -15 24.5t-17 5.5h-28v2q0 1 -0.5 1.5t-0.5 2.5t-0.5 2.5t-0.5 1.5v2h47h89h50v-2q0 -1 -0.5 -1.5t-0.5 -2.5t-0.5 -2.5t-0.5 -1.5v-2h-25q-9 0 -12.5 -5.5t3.5 -24.5l119 -366l-38 -102l-115 320l-131 -320h-24l-178 472q-8 16 -15.5 20.5
t-15.5 4.5h-27v2zM282 555l-11 9l124 192q4 6 12.5 17t15.5 11q6 0 14.5 -11t13.5 -18l123 -191l-11 -9l-140 143z" />
    <glyph glyph-name="Ycircumflex" unicode="&#x176;" 
d="M12 740q0 2 -1 6t-1 5h42h111h79q-1 -1 -1 -2v-4q-1 -2 -1 -4v-2h-22q-9 0 -14 -5.5t-2 -19.5t14.5 -38t34.5 -62l167 -260l160 301q22 50 18 67t-23 17h-22q0 2 -1 6t-1 5h79h41h58q-1 -1 -1 -2t-0.5 -1.5t-0.5 -2.5t-0.5 -2.5t-0.5 -1.5v-2h-25q-8 0 -18.5 -7t-26 -25
t-37 -50.5t-51.5 -83.5l-141 -244v-224q0 -56 18 -74t46 -18h13l4 -12h-255q1 0 1 1q0 3 1 5v4q0 1 1 2h13q28 0 46 18t18 74v219l-183 278q-28 42 -47.5 68.5t-32 41.5t-19.5 21t-11 6h-28zM230 805l-11 9l124 192q4 6 12.5 17t15.5 11q6 0 14.5 -11t13.5 -18l123 -191
l-11 -9l-140 143z" />
    <glyph glyph-name="ycircumflex" unicode="&#x177;" horiz-adv-x="560" 
d="M547 500q0 -1 -0.5 -5t-1.5 -6h-25q-17 0 -33.5 -14t-32.5 -57l-173 -427l-58 -152q-11 -28 -35.5 -46t-53.5 -18q-20 0 -33.5 14t-13.5 36q0 17 13 28t33 11q7 0 12.5 -4.5t10.5 -9.5t10.5 -9.5t12.5 -4.5q20 0 30 25l49 130l-185 457h-1q-10 26 -20 33.5t-21 7.5h-27v2
q0 1 -0.5 1.5t-0.5 2.5t-0.5 2.5t-0.5 1.5v2h49h87h57v-2q0 -1 -0.5 -1.5t-0.5 -2.5t-0.5 -2.5t-0.5 -1.5v-2h-24q-12 0 -16.5 -7.5t6.5 -33.5l137 -355l-38 -102l171 452q10 28 2 37t-27 9h-23q0 2 -1 6t-1 5h72h36h60v0zM139 555l-11 9l124 192q4 6 12.5 17t15.5 11
q6 0 14.5 -11t13.5 -18l123 -191l-11 -9l-140 143z" />
    <glyph glyph-name="Ydieresis" unicode="&#x178;" 
d="M454 865q-23 0 -37.5 14.5t-14.5 37.5t14.5 37t37.5 14t37 -14t14 -37t-14 -37.5t-37 -14.5zM303 865q-23 0 -37.5 14.5t-14.5 37.5t14.5 37t37.5 14t37 -14t14 -37t-14 -37.5t-37 -14.5zM12 740q0 2 -1 6t-1 5h42h111h79q-1 -1 -1 -2v-4q-1 -2 -1 -4v-2h-22
q-9 0 -14 -5.5t-2 -19.5t14.5 -38t34.5 -62l167 -260l160 301q22 50 18 67t-23 17h-22q0 2 -1 6t-1 5h79h41h58q-1 -1 -1 -2t-0.5 -1.5t-0.5 -2.5t-0.5 -2.5t-0.5 -1.5v-2h-25q-8 0 -18.5 -7t-26 -25t-37 -50.5t-51.5 -83.5l-141 -244v-224q0 -56 18 -74t46 -18h13l4 -12
h-255q1 0 1 1q0 3 1 5v4q0 1 1 2h13q28 0 46 18t18 74v219l-183 278q-28 42 -47.5 68.5t-32 41.5t-19.5 21t-11 6h-28z" />
    <glyph glyph-name="Zacute" unicode="&#x179;" horiz-adv-x="664" 
d="M24 0v19l504 711l-247 -3q-59 -2 -98 -10t-63 -21.5t-35.5 -32t-15.5 -39.5l-4 -22q-1 -1 -2 -1h-6q-3 -1 -6 -1q-1 0 -2 -1q5 38 10.5 75.5t10.5 75.5h243h230h88v-19l-495 -710l269 4q63 0 104.5 6t68 17t40 25.5t20.5 32.5l11 32q1 1 2 1q3 0 5 1h4q1 0 2 1
q-8 -35 -17 -70.5t-18 -70.5h-228h-277h-98zM224 822l115 147q24 30 40.5 49t21.5 19q15 0 27 -12t12 -28q0 -5 -18 -22t-47 -42l-141 -120z" />
    <glyph glyph-name="zacute" unicode="&#x17a;" horiz-adv-x="495" 
d="M97 532q2 0 6 -1t5 -1l-3 -9q-2 -9 9 -14.5t22 -5.5h236h82v-19l-317 -460l78 2h-1h9l35 1q43 1 74.5 6t54 12.5t37.5 17.5t26 22l12 13l1 2q1 1 2 1q-4 -24 -7.5 -49.5t-6.5 -49.5h-77h-250h-84v19l319 460l-123 -3q-67 -5 -102 -21t-55 -39l-11 -12l-2 -2q-1 -1 -2 -1
t-1 -1q8 32 17 65l18 66zM140 572l115 147q24 30 40.5 49t21.5 19q15 0 27 -12t12 -28q0 -5 -18 -22t-47 -42l-141 -120z" />
    <glyph glyph-name="Zdotaccent" unicode="&#x17b;" horiz-adv-x="664" 
d="M350 865q-23 0 -37 14.5t-14 37.5t14 37t37 14t37.5 -14t14.5 -37t-14.5 -37.5t-37.5 -14.5zM24 0v19l504 711l-247 -3q-59 -2 -98 -10t-63 -21.5t-35.5 -32t-15.5 -39.5l-4 -22q-1 -1 -2 -1h-6q-3 -1 -6 -1q-1 0 -2 -1q5 38 10.5 75.5t10.5 75.5h243h230h88v-19
l-495 -710l269 4q63 0 104.5 6t68 17t40 25.5t20.5 32.5l11 32q1 1 2 1q3 0 5 1h4q1 0 2 1q-8 -35 -17 -70.5t-18 -70.5h-228h-277h-98z" />
    <glyph glyph-name="zdotaccent" unicode="&#x17c;" horiz-adv-x="495" 
d="M275 615q-23 0 -37 14.5t-14 37.5t14 37t37 14t37.5 -14t14.5 -37t-14.5 -37.5t-37.5 -14.5zM97 532q2 0 6 -1t5 -1l-3 -9q-2 -9 9 -14.5t22 -5.5h236h82v-19l-317 -460l78 2h-1h9l35 1q43 1 74.5 6t54 12.5t37.5 17.5t26 22l12 13l1 2q1 1 2 1q-4 -24 -7.5 -49.5
t-6.5 -49.5h-77h-250h-84v19l319 460l-123 -3q-67 -5 -102 -21t-55 -39l-11 -12l-2 -2q-1 -1 -2 -1t-1 -1q8 32 17 65l18 66z" />
    <glyph glyph-name="Zcaron" unicode="&#x17d;" horiz-adv-x="664" 
d="M122 0h277h228q9 35 18 70.5t17 70.5q-1 -1 -2 -1h-4q-2 -1 -5 -1q-1 0 -2 -1l-11 -32q-7 -18 -20.5 -32.5t-40 -25.5t-68 -17t-104.5 -6l-269 -4l495 710v19h-88h-230h-243q-5 -38 -10.5 -75.5t-10.5 -75.5q1 1 2 1q3 0 6 1h6q1 0 2 1l4 22q4 21 15.5 39.5t35.5 32
t63 21.5t98 10l247 3l-504 -711v-19h98zM332 902l140 143l11 -9l-123 -191q-5 -7 -13.5 -18t-14.5 -11q-7 0 -15.5 11t-12.5 17l-124 192l11 9z" />
    <glyph glyph-name="zcaron" unicode="&#x17e;" horiz-adv-x="495" 
d="M97 532q2 0 6 -1t5 -1l-3 -9q-2 -9 9 -14.5t22 -5.5h236h82v-19l-317 -460l78 2h-1h9l35 1q43 1 74.5 6t54 12.5t37.5 17.5t26 22l12 13l1 2q1 1 2 1q-4 -24 -7.5 -49.5t-6.5 -49.5h-77h-250h-84v19l319 460l-123 -3q-67 -5 -102 -21t-55 -39l-11 -12l-2 -2q-1 -1 -2 -1
t-1 -1q8 32 17 65l18 66zM248 652l140 143l11 -9l-123 -191q-5 -7 -13.5 -18t-14.5 -11q-7 0 -15.5 11t-12.5 17l-124 192l11 9z" />
    <glyph glyph-name="Q_sc" unicode="&#x1eb;" horiz-adv-x="771" 
d="M1015 -47q-28 -24 -63 -43.5t-72.5 -34t-75.5 -22.5t-72 -8q-32 0 -82.5 13t-112.5 36t-132 55t-140 70q-37 18 -74.5 45t-68 62t-49.5 76.5t-19 88.5q0 66 24.5 121.5t68 95t104 62t132.5 22.5q74 0 136.5 -22.5t107.5 -62t70 -95t25 -121.5q0 -64 -24 -118t-67.5 -93.5
t-104 -63t-132.5 -26.5q40 -17 84.5 -31t90.5 -23.5t90.5 -15t84.5 -5.5q46 0 89 3.5t78.5 9.5t61 14.5t37.5 18.5l5 -6v-2zM377 7q55 0 101.5 21t80.5 58.5t52.5 89.5t18.5 114t-18.5 114t-51.5 89.5t-79 58.5t-101 21q-51 0 -94 -21t-74 -58.5t-48.5 -89.5t-17.5 -114
t26.5 -114t63.5 -89.5t76 -58.5t65 -21z" />
    <glyph glyph-name="G_sc" unicode="&#x262;" horiz-adv-x="728" 
d="M534 562q33 -17 56 -20t25 4q1 5 2 8.5t2 6.5q1 4 1 6q1 1 3.5 2.5t3.5 1.5v-88v-86q-1 0 -3 1l-4 2q0 2 -1 5q-1 2 -2 4.5t-2 6.5q-6 19 -21 41.5t-36 43.5t-46 38t-51 25q-17 5 -36.5 7.5t-42.5 2.5q-52 0 -95 -21t-74 -58.5t-48.5 -89.5t-17.5 -114t17.5 -113.5
t49 -89t74.5 -58t95 -20.5q59 0 97.5 23t41.5 58l-1 57q0 56 -17 74t-44 18h-12q0 1 -1.5 5.5t-2.5 6.5h226q0 -2 -1 -6t-1 -5h-13q-22 0 -36 -18t-14 -74v-106q39 12 72 27l5 -11q-19 -8 -38.5 -16t-39.5 -15v-2l-17 -4q-48 -15 -100.5 -24t-112.5 -9q-70 0 -129 22.5
t-101.5 62.5t-66 95.5t-23.5 121.5t23.5 121.5t66 95t101 62t128.5 22.5q53 0 91.5 -8t67.5 -22h1h1z" />
    <glyph glyph-name="I_sc" unicode="&#x26a;" horiz-adv-x="342" 
d="M50 0q0 1 1.5 5.5t2.5 6.5h12q14 0 26 4t20.5 14t13.5 28t5 46v375q0 28 -5 46t-13.5 28t-20.5 14t-26 4h-12l-4 12h245q-1 -1 -1 -2v-4l-2 -6h-13q-28 0 -46 -18t-18 -74v-375q0 -56 18 -74t46 -18h13l2 -6v-5q0 -1 1 -1h-245v0z" />
    <glyph glyph-name="N_sc" unicode="&#x274;" horiz-adv-x="686" 
d="M110 517q-27 32 -41 42.5t-23 10.5h-27q-1 1 -1 2v4q-1 2 -1 4v2h40h63h21h20l351 -453l21 -28l-1 337q-2 40 -8 65.5t-16.5 40.5t-24 20.5t-29.5 5.5h-13l-4 12h95h26h94q0 -1 -1.5 -5.5t-2.5 -6.5h-13q-16 0 -30 -5.5t-24.5 -19.5t-17 -38.5t-7.5 -63.5l-5 -444h-17
l-72 89l-319 390l2 -282q0 -57 5 -93t14 -56.5t22 -28t28 -7.5h23v-2q0 -1 0.5 -2t0.5 -2q0 -2 0.5 -3t0.5 -2v-1h-93h-26h-94q1 0 1 1q0 3 1 5v4q0 1 1 2h23q14 0 25.5 7t20.5 25.5t15 50.5t8 82l1 330l-10 12z" />
    <glyph glyph-name="R_sc" unicode="&#x280;" horiz-adv-x="649" 
d="M51 0q0 1 1.5 5.5t2.5 6.5h12q14 0 26 4t20.5 15t13.5 30.5t5 50.5v359q0 31 -5 50.5t-13.5 30.5t-20.5 15t-26 4h-12l-4 12h165h74q51 0 93 -12t73 -34t48 -52.5t17 -66.5q0 -57 -40 -90.5t-108 -45.5q19 -26 61.5 -85.5t99.5 -140.5q12 -16 20 -25.5t18.5 -14t26 -5.5
t40.5 -1v-10q-57 0 -91 1.5t-54.5 7t-32.5 16.5t-25 31q-57 79 -97.5 138t-52.5 81h-70v-163q0 -31 5 -50.5t13.5 -30.5t20 -15t25.5 -4h13l2 -6v-5q0 -1 1 -1h-245zM216 471v-175h74q61 0 99.5 34t38.5 105q0 28 -12 52.5t-34 41.5t-51.5 27t-65.5 10h-49v-95z" />
    <glyph glyph-name="Y_sc" unicode="&#x28f;" horiz-adv-x="647" 
d="M632 584q0 -1 -0.5 -5t-1.5 -6h-25q-7 0 -16.5 -5.5t-23.5 -20t-33 -40t-44 -64.5l-115 -188v-149q0 -56 18 -74t46 -18h13l2 -6v-5q0 -1 1 -1h-245q0 1 1.5 5.5t2.5 6.5h12q14 0 26 4t20.5 14t13.5 28t5 46v145l-134 190q-29 40 -49 65.5t-33.5 40.5t-20.5 20.5t-11 5.5
h-27l-2 6q0 2 -0.5 2.5t-0.5 1.5v2h42h99h79v-2q0 -1 -0.5 -1.5t-0.5 -2.5t-0.5 -2.5t-0.5 -1.5v-2h-21q-11 0 -14.5 -7.5t4 -28t29 -56t61.5 -92.5l78 -113l71 128l48 85q24 49 20.5 66t-22.5 17h-22q0 2 -1 6t-1 5h79h37h57v1z" />
    <glyph glyph-name="B_sc" unicode="&#x299;" horiz-adv-x="582" 
d="M52 -1q0 1 1.5 5.5t2.5 6.5h12q14 0 26 4t20.5 15t13.5 30.5t5 50.5v359q0 31 -5 50.5t-13.5 30.5t-20.5 15t-26 4h-12l-4 12h165h65q70 0 116 -10.5t73 -29t38 -44t11 -55.5q0 -51 -33 -87.5t-89 -52.5q65 -10 104.5 -50.5t39.5 -99.5q0 -45 -15.5 -75t-42.5 -47
t-65 -24t-83 -7h-120h-165zM217 470v-165h96q54 0 88.5 36t34.5 93q0 29 -8 53.5t-29 42t-56.5 27.5t-89.5 10l-36 1v-98zM217 292v-181v-32q0 -29 14 -47.5t37 -18.5h50q29 0 53 6t41.5 22t27.5 43t10 68q0 31 -10 56.5t-28 44t-43 29t-55 10.5h-97z" />
    <glyph glyph-name="H_sc" unicode="&#x29c;" horiz-adv-x="757" 
d="M710 583q0 -1 -1.5 -5.5t-2.5 -6.5h-12q-29 0 -47 -18t-18 -74v-375q0 -56 18 -74t47 -18h12l4 -12h-245v1q0 1 0.5 2t0.5 3l2 6h13q28 0 46 18t18 74v184h-293v-184q0 -56 18 -74t46 -18h13l2 -6v-5q0 -1 1 -1h-245q0 1 1.5 5.5t2.5 6.5h12q14 0 26 4t20.5 14t13.5 28
t5 46v375q0 28 -5 46t-13.5 28t-20.5 14t-26 4h-12l-4 12h245q-1 -1 -1 -2v-4l-2 -6h-13q-28 0 -46 -18t-18 -74v-172h293v172q0 56 -18 74t-46 18h-13l-2 6q0 2 -0.5 2.5t-0.5 1.5v2h245v0z" />
    <glyph glyph-name="L_sc" unicode="&#x29f;" horiz-adv-x="550" 
d="M489 0h-266h-8h-84h-81q0 1 1.5 5.5t2.5 6.5h12q14 0 26 4t20.5 15t13.5 30.5t5 50.5v359q0 31 -5 50.5t-13.5 30.5t-20.5 15t-26 4h-12l-4 12h81h84h80q-1 -1 -1 -2v-4l-2 -6h-13q-14 0 -25.5 -4t-20 -15t-13.5 -30.5t-5 -50.5v-359v-32q0 -26 10.5 -43.5t49.5 -21.5
q63 3 105.5 12t69.5 23t40.5 33t19.5 41l3 12q3 0 6 1q6 2 7 2q-8 -31 -16 -62.5t-17 -62.5z" />
    <glyph glyph-name="circumflex" unicode="&#x2c6;" horiz-adv-x="853" 
d="M130 555l-11 9l124 192q4 6 12.5 17t15.5 11q6 0 14.5 -11t13.5 -18l123 -191l-11 -9l-140 143z" />
    <glyph glyph-name="caron" unicode="&#x2c7;" horiz-adv-x="853" 
d="M242 652l140 143l11 -9l-123 -191q-5 -7 -13.5 -18t-14.5 -11q-7 0 -15.5 11t-12.5 17l-124 192l11 9z" />
    <glyph glyph-name="ogonek" unicode="&#x2db;" horiz-adv-x="401" 
d="M237 -3q-27 -17 -45.5 -47.5t-18.5 -63.5q0 -31 15 -48.5t41 -17.5q14 0 32 6.5t39 19.5l5 -13q-34 -22 -62 -31.5t-50 -9.5q-33 0 -53 19.5t-20 53.5q0 41 31 81.5t81 64.5z" />
    <glyph glyph-name="tilde" unicode="&#x2dc;" horiz-adv-x="577" 
d="M88 620q0 51 22 84t56 33q24 0 48 -10t48.5 -22.5t49 -22.5t47.5 -10t37.5 17t14.5 43h13q0 -51 -23 -83.5t-60 -32.5q-24 0 -48 10t-48.5 22.5t-48.5 22.5t-48 10q-20 0 -33.5 -17t-13.5 -44h-13z" />
    <glyph glyph-name="A_sc" unicode="&#x1d00;" horiz-adv-x="675" 
d="M208 211q-22 -61 -29 -100t-2 -61t19.5 -30t35.5 -8h21l2 -6v-5q0 -1 1 -1h-124h-22h-97q1 0 1 1q0 3 1 5v4q0 1 1 2h23q16 0 32.5 8t34.5 29.5t38 59.5t43 97l128 347l-4 11q20 2 37 13.5t25 25.5h8l14 -39l142 -394q18 -48 32.5 -79t27 -48.5t23 -24t19.5 -6.5h24v-2
q0 -1 0.5 -2t0.5 -2q0 -2 0.5 -3t0.5 -2v-1h-67h-89h-101v1q0 1 0.5 2t0.5 3q0 1 0.5 2t0.5 2v2h22q15 0 26 6.5t14 24.5t-2.5 49.5t-21.5 81.5l-13 37h-227zM429 230l-107 303l-108 -303h215z" />
    <glyph glyph-name="C_sc" unicode="&#x1d04;" horiz-adv-x="669" 
d="M533 562q33 -17 56 -20t25 4q1 5 2 8.5t2 6.5q1 4 1 6q1 1 3.5 2.5t3.5 1.5v-88v-86q-1 0 -3 1l-4 2q0 2 -1 5q-1 2 -2 4.5t-2 6.5q-6 19 -21 41.5t-36 43.5t-46 38t-51 25q-17 5 -36.5 7.5t-42.5 2.5q-52 0 -95 -21t-74 -58.5t-48.5 -89.5t-17.5 -114q0 -63 16.5 -115
t46.5 -90t71 -59t91 -21q64 0 112 17h-1q22 7 43.5 23t39.5 35t31 39t18 36l2 6t2 5q1 3 1 5h1q2 0 3 1q2 1 3 2v-85v-91l-4 4q0 10 -2 16t-6 5q-14 -1 -27.5 -2t-25.5 -2q-14 -1 -27 -2h-1q-32 -14 -73.5 -21.5t-95.5 -7.5q-68 0 -125 22.5t-98 62.5t-64 95.5t-23 121.5
t23.5 121.5t66 95t101 62t128.5 22.5q53 0 91.5 -8t67.5 -22h1v0z" />
    <glyph glyph-name="D_sc" unicode="&#x1d05;" horiz-adv-x="762" 
d="M51 0q0 1 1.5 5.5t2.5 6.5h12q14 0 26 4t20.5 15t13.5 30.5t5 50.5v359q0 31 -5 50.5t-13.5 30.5t-20.5 15t-26 4h-12l-4 12h81h84h93q96 0 170 -21.5t125 -60t77 -92t26 -117.5q0 -71 -31.5 -125t-88.5 -91.5t-136 -56.5t-173 -19h-62h-84h-81zM216 471v-359v-32
q0 -29 7 -47t33 -18q78 0 144 18t113.5 53.5t74 87t26.5 118.5q0 61 -24 111.5t-70.5 87.5t-114 57.5t-155.5 20.5h-34v-98z" />
    <glyph glyph-name="E_sc" unicode="&#x1d07;" horiz-adv-x="569" 
d="M477 476q-2 22 -5 39t-18 29t-46.5 18t-90.5 6h-100v-97v-162h39q47 0 76.5 6.5t46.5 18.5t23.5 28.5t6.5 36.5v13l12 4v-107v-18v-107q-1 1 -6 3t-6 2v12q0 20 -6.5 36.5t-23.5 28.5t-46.5 18.5t-76.5 6.5h-39v-179v-32q0 -14 2.5 -25.5t11 -20t24.5 -13.5t42 -5h46
q47 0 77.5 6t49 16.5t27 25t11.5 31.5l1 12q14 5 13 5q-3 -29 -7.5 -56t-8.5 -56h-165h-124h-84h-81q0 1 1.5 5.5t2.5 6.5h12q14 0 26 4t20.5 15t13.5 30.5t5 50.5v359q0 31 -5 50.5t-13.5 30.5t-20.5 15t-26 4h-12l-4 12h81h84h99h165q2 -27 3.5 -55.5t3.5 -55.5z" />
    <glyph glyph-name="J_sc" unicode="&#x1d0a;" horiz-adv-x="342" 
d="M131 479q0 28 -5 46t-13.5 28t-20.5 14t-26 4h-12l-4 12h245q-1 -1 -1 -2v-4l-2 -6h-13q-28 0 -46 -18t-18 -74v-377q0 -99 -19.5 -161.5t-49.5 -98.5t-65 -49t-65 -13q-37 0 -60 15.5t-23 39.5q0 17 10.5 28t27.5 11q15 0 21 -10.5t10.5 -23.5t10.5 -23.5t21 -10.5
t31.5 5.5t31 20.5t24 41.5t9.5 68.5l1 537v0z" />
    <glyph glyph-name="K_sc" unicode="&#x1d0b;" horiz-adv-x="658" 
d="M494 114q17 -18 35.5 -36t36 -32.5t31 -23t20.5 -8.5h28l2 -6v-5q0 -1 1 -1h-54h-104l-83 89q-5 5 -10.5 11t-11.5 12l-167 180v-200q0 -49 18 -64.5t46 -15.5h13l2 -6v-5q0 -1 1 -1h-80h-84h-81q0 1 1.5 5.5t2.5 6.5h12q28 0 46.5 15.5t18.5 64.5v399q0 25 -5 40.5
t-13.5 24.5t-20.5 12t-26 3h-12l-4 12h81h84h80q-1 -1 -1 -2v-4l-2 -6h-13q-28 0 -46 -15.5t-18 -64.5v-199l84 96l-2 -1q49 57 75 92.5t34.5 56t2 28t-22.5 7.5h-21q0 2 -1 6t-1 5h105h32h61q-1 -1 -1 -2v-4q-1 -2 -1 -4v-2h-25q-18 0 -44.5 -16t-72.5 -62l-53 -58l-3 -3
l-81 -89l208 -232z" />
    <glyph glyph-name="M_sc" unicode="&#x1d0d;" horiz-adv-x="794" 
d="M547 1q0 1 1.5 5.5t2.5 6.5h12q28 0 45.5 16.5t19.5 68.5l-13 419l-205 -515h-21q-58 123 -115 244.5t-114 244.5l-3 6l-8 -347q1 -41 6 -67.5t13.5 -41.5t20 -21t25.5 -6h24v-2q0 -3 1 -4v-5q0 -1 1 -1h-94h-30h-93q0 1 0.5 5t1.5 6h23q15 0 28 8t23 30.5t16.5 61
t8.5 100.5l12 317q-18 25 -34 33.5t-33 8.5h-24q-1 1 -1 2v4q-1 2 -1 4v2h73h22h21h58l215 -470v-2l181 472h29h51h79q-1 -1 -1 -2v-4q-1 -2 -1 -4v-2h-24q-11 0 -19.5 -8.5t-14.5 -30t-9 -59.5t-2 -97l11 -286q5 -48 21.5 -63.5t41.5 -15.5h12l4 -12h-76h-85h-84z" />
    <glyph glyph-name="O_sc" unicode="&#x1d0f;" horiz-adv-x="776" 
d="M377 9q55 0 101.5 21t80.5 58.5t52.5 89.5t18.5 114t-18.5 114t-51.5 89.5t-79 58.5t-101 21q-51 0 -94 -21t-74 -58.5t-48.5 -89.5t-17.5 -114t17 -114t48 -89.5t73 -58.5t93 -21zM54 292q0 66 24.5 121.5t68 95t104 62t132.5 22.5q74 0 136.5 -22.5t107.5 -62t70 -95
t25 -121.5t-26 -121.5t-72 -95.5t-110.5 -62.5t-140.5 -22.5q-70 0 -128.5 22.5t-101 62.5t-66 95.5t-23.5 121.5z" />
    <glyph glyph-name="P_sc" unicode="&#x1d18;" horiz-adv-x="519" 
d="M72 0q0 1 1.5 5.5t2.5 6.5h12q14 0 26 4t20.5 15t13.5 30.5t5 50.5v359q0 31 -5 50.5t-13.5 30.5t-20.5 15t-26 4h-12l-4 12h81h84h77q41 0 75 -12t59 -34t38.5 -52t13.5 -66q0 -39 -16.5 -67.5t-46.5 -47.5t-71 -28.5t-90 -9.5h-39v-154q0 -31 5 -50.5t13.5 -30.5
t20 -15t25.5 -4h13l4 -12h-81h-84h-81zM276 284q64 0 104.5 37t40.5 112q0 60 -35.5 98t-92.5 38h-56v-98v-187h39z" />
    <glyph glyph-name="T_sc" unicode="&#x1d1b;" horiz-adv-x="729" 
d="M245 -2q0 1 1.5 5.5t2.5 6.5h12q14 0 26 4t20.5 14t13.5 28t5 46v458h-102q-47 0 -79 -5t-52 -13.5t-30.5 -20t-15.5 -25.5l-5 -13h-2q-1 0 -2 -0.5t-2 -0.5q-2 0 -3 -0.5t-2 -0.5h-2q8 20 14.5 40.5t14.5 40.5v20h7l15 42h5q2 -1 4 -1h2l-3 -9q-3 -7 1.5 -12.5t20 -9.5
t44.5 -6.5t76 -2.5h95h84h94q48 0 77 2.5t44.5 6.5t20 9.5t1.5 12.5l-4 9q3 0 6 1h6l6.5 -19.5t7.5 -21.5h7v-19q1 -4 3 -10q5 -16 12 -35.5t13 -35.5h-2q-1 0 -2 0.5t-2 0.5q-2 0 -2.5 0.5t-1.5 0.5h-2l-5 13q-5 14 -15.5 25.5t-30.5 20t-52 13.5t-79 5h-102v-458
q0 -56 18 -74t46 -18h13l2 -6v-5q0 -1 1 -1h-245z" />
    <glyph glyph-name="U_sc" unicode="&#x1d1c;" horiz-adv-x="644" 
d="M547 102q0 -23 3 -37t11.5 -21.5t23.5 -9.5t38 -1v-6l-147 -27h-13v102v29q-15 -31 -39 -57t-54 -44.5t-64.5 -29t-70.5 -10.5q-30 0 -55.5 16t-44 44.5t-28.5 67.5t-10 86v267q0 31 -5 50.5t-13.5 30.5t-20.5 15t-26 4h-12l-4 12h165v-112v-267q0 -35 6.5 -64.5
t18.5 -50.5t28 -33t35 -12q30 0 59.5 9t55 25.5t46 39.5t33.5 50v303q0 31 -5 50.5t-13.5 30.5t-20.5 15t-26 4h-12l-4 12h165v-112v-369v0z" />
    <glyph glyph-name="V_sc" unicode="&#x1d20;" horiz-adv-x="696" 
d="M17 569q0 2 -1 6t-1 5h44h97h124q-1 -1 -1 -2t-0.5 -1.5t-0.5 -2.5t-0.5 -2.5t-0.5 -1.5v-2h-21q-19 0 -31 -7.5t-14.5 -28t7.5 -56t36 -92.5l-1 1l131 -264l-56 -134l166 397q24 57 32 92.5t4 56t-18.5 28t-35.5 7.5h-21q-1 1 -1 2v4q-1 2 -1 4v2h123h34h66
q0 -1 -0.5 -5t-1.5 -6h-24q-9 0 -18.5 -4.5t-21 -15.5t-24.5 -31t-28 -50l-214 -479h-17l-61 134l-185 409q-13 23 -21.5 31t-16.5 8h-27z" />
    <glyph glyph-name="W_sc" unicode="&#x1d21;" horiz-adv-x="965" 
d="M605 587q0 -1 -0.5 -5t-1.5 -6h-22q-17 0 -29 -5.5t-16 -20t0.5 -39.5t20.5 -65l136 -324v-2l88 272q18 57 22.5 92.5t-1.5 56t-21 28t-36 7.5h-21q-1 1 -1 2v4q-1 2 -1 4v2h123h33h68q-1 -1 -1 -2t-0.5 -1.5t-0.5 -2.5t-0.5 -2.5t-0.5 -1.5v-2h-24q-9 0 -18.5 -5
t-19.5 -17.5t-21.5 -34t-24.5 -55.5l-161 -469h-22l-153 366l-166 -367h-21l-168 396q-24 57 -41 92.5t-28 56t-18.5 28t-11.5 7.5h-27q0 2 -1 6t-1 5h45h92h109q-1 -1 -1 -2v-4q-1 -2 -1 -4v-2h-22q-17 0 -28.5 -7.5t-13 -28t8 -56t33.5 -92.5l123 -286v-1l125 289l-51 120
h-1q-15 38 -33 49.5t-38 11.5h-24q0 2 -1 6t-1 5h67h93h108v4z" />
    <glyph glyph-name="Z_sc" unicode="&#x1d22;" horiz-adv-x="598" 
d="M23 -2v17l446 548l-193 -2q-58 -2 -96.5 -10t-62 -21.5t-35 -31.5t-15.5 -39l-4 -22q-1 -1 -2 -1h-6q-3 -1 -6 -1q-1 0 -2 -1q5 37 11 74t11 75h243h173h78v-17l-437 -547l212 3q62 0 104 6t68 17t40 25.5t20 32.5l11 32q3 0 6 1q6 2 7 2q-8 -34 -17 -69t-17 -69h-227
h-221z" />
    <glyph glyph-name="Wgrave" unicode="&#x1e80;" horiz-adv-x="1108" 
d="M865 741q0 2 -1 6t-1 5h123h37h68q-1 -1 -1 -2v-4q-1 -2 -1 -4v-2h-25q-9 0 -18 -5t-19 -18.5t-21 -36.5t-24 -59l-196 -629h-23l-183 471l-203 -472h-24q-54 142 -108.5 281.5t-109.5 280.5h-1q-22 57 -37.5 93t-26 56.5t-17.5 28t-11 7.5h-27q0 2 -1 6t-1 5h45h103h108
v-2q0 -1 -0.5 -1.5t-0.5 -2.5t-0.5 -2.5t-0.5 -1.5v-2h-21q-17 0 -28.5 -6.5t-15.5 -24.5t1.5 -49t23.5 -80l177 -464v-1l161 387l-75 192q-14 29 -30 38t-33 9h-25q0 2 -1 6t-1 5h67h104h108q0 -1 -0.5 -5t-1.5 -6h-22q-18 0 -31 -5.5t-17.5 -21t-0.5 -42.5t21 -69
l175 -470l124 423q16 57 19.5 93t-3 56.5t-21.5 28t-36 7.5h-22zM662 821l-10 -9l-142 120q-28 24 -46 41.5t-18 22.5q0 16 12 28t27 12q5 0 22 -19t40 -49z" />
    <glyph glyph-name="wgrave" unicode="&#x1e81;" horiz-adv-x="845" 
d="M833 499q0 -1 -0.5 -5t-1.5 -6h-25q-18 0 -34 -13.5t-32 -57.5v1l-174 -428h-23l174 459q8 25 -0.5 32.5t-27.5 7.5h-23q0 2 -1 6t-1 5h72h37h60v-1zM37 489q0 2 -1 6t-1 5h46h89h51q-1 -1 -1 -2t-0.5 -1.5t-0.5 -2.5t-0.5 -2.5t-0.5 -1.5v-2h-24q-9 0 -13 -5.5t4 -24.5
l128 -366l100 258l-39 108q-7 19 -15 24.5t-17 5.5h-28v2q0 1 -0.5 1.5t-0.5 2.5t-0.5 2.5t-0.5 1.5v2h47h89h50v-2q0 -1 -0.5 -1.5t-0.5 -2.5t-0.5 -2.5t-0.5 -1.5v-2h-25q-9 0 -12.5 -5.5t3.5 -24.5l119 -366l-38 -102l-115 320l-131 -320h-24l-178 472q-8 16 -15.5 20.5
t-15.5 4.5h-27v2zM530 571l-10 -9l-142 120q-28 24 -46 41.5t-18 22.5q0 16 12 28t27 12q5 0 22 -19t40 -49z" />
    <glyph glyph-name="Wacute" unicode="&#x1e82;" horiz-adv-x="1108" 
d="M865 741q0 2 -1 6t-1 5h123h37h68q-1 -1 -1 -2v-4q-1 -2 -1 -4v-2h-25q-9 0 -18 -5t-19 -18.5t-21 -36.5t-24 -59l-196 -629h-23l-183 471l-203 -472h-24q-54 142 -108.5 281.5t-109.5 280.5h-1q-22 57 -37.5 93t-26 56.5t-17.5 28t-11 7.5h-27q0 2 -1 6t-1 5h45h103h108
v-2q0 -1 -0.5 -1.5t-0.5 -2.5t-0.5 -2.5t-0.5 -1.5v-2h-21q-17 0 -28.5 -6.5t-15.5 -24.5t1.5 -49t23.5 -80l177 -464v-1l161 387l-75 192q-14 29 -30 38t-33 9h-25q0 2 -1 6t-1 5h67h104h108q0 -1 -0.5 -5t-1.5 -6h-22q-18 0 -31 -5.5t-17.5 -21t-0.5 -42.5t21 -69
l175 -470l124 423q16 57 19.5 93t-3 56.5t-21.5 28t-36 7.5h-22zM446 822l115 147q24 30 40.5 49t21.5 19q15 0 27 -12t12 -28q0 -5 -18 -22t-47 -42l-141 -120z" />
    <glyph glyph-name="wacute" unicode="&#x1e83;" horiz-adv-x="845" 
d="M833 499q0 -1 -0.5 -5t-1.5 -6h-25q-18 0 -34 -13.5t-32 -57.5v1l-174 -428h-23l174 459q8 25 -0.5 32.5t-27.5 7.5h-23q0 2 -1 6t-1 5h72h37h60v-1zM37 489q0 2 -1 6t-1 5h46h89h51q-1 -1 -1 -2t-0.5 -1.5t-0.5 -2.5t-0.5 -2.5t-0.5 -1.5v-2h-24q-9 0 -13 -5.5t4 -24.5
l128 -366l100 258l-39 108q-7 19 -15 24.5t-17 5.5h-28v2q0 1 -0.5 1.5t-0.5 2.5t-0.5 2.5t-0.5 1.5v2h47h89h50v-2q0 -1 -0.5 -1.5t-0.5 -2.5t-0.5 -2.5t-0.5 -1.5v-2h-25q-9 0 -12.5 -5.5t3.5 -24.5l119 -366l-38 -102l-115 320l-131 -320h-24l-178 472q-8 16 -15.5 20.5
t-15.5 4.5h-27v2zM314 572l115 147q24 30 40.5 49t21.5 19q15 0 27 -12t12 -28q0 -5 -18 -22t-47 -42l-141 -120z" />
    <glyph glyph-name="Wdieresis" unicode="&#x1e84;" horiz-adv-x="1108" 
d="M865 741q0 2 -1 6t-1 5h123h37h68q-1 -1 -1 -2v-4q-1 -2 -1 -4v-2h-25q-9 0 -18 -5t-19 -18.5t-21 -36.5t-24 -59l-196 -629h-23l-183 471l-203 -472h-24q-54 142 -108.5 281.5t-109.5 280.5h-1q-22 57 -37.5 93t-26 56.5t-17.5 28t-11 7.5h-27q0 2 -1 6t-1 5h45h103h108
v-2q0 -1 -0.5 -1.5t-0.5 -2.5t-0.5 -2.5t-0.5 -1.5v-2h-21q-17 0 -28.5 -6.5t-15.5 -24.5t1.5 -49t23.5 -80l177 -464v-1l161 387l-75 192q-14 29 -30 38t-33 9h-25q0 2 -1 6t-1 5h67h104h108q0 -1 -0.5 -5t-1.5 -6h-22q-18 0 -31 -5.5t-17.5 -21t-0.5 -42.5t21 -69
l175 -470l124 423q16 57 19.5 93t-3 56.5t-21.5 28t-36 7.5h-22zM629 865q-23 0 -37.5 14.5t-14.5 37.5t14.5 37t37.5 14t37.5 -14t14.5 -37t-14.5 -37.5t-37.5 -14.5zM478 865q-23 0 -37.5 14.5t-14.5 37.5t14.5 37t37.5 14t37.5 -14t14.5 -37t-14.5 -37.5t-37.5 -14.5z
" />
    <glyph glyph-name="wdieresis" unicode="&#x1e85;" horiz-adv-x="845" 
d="M833 499q0 -1 -0.5 -5t-1.5 -6h-25q-18 0 -34 -13.5t-32 -57.5v1l-174 -428h-23l174 459q8 25 -0.5 32.5t-27.5 7.5h-23q0 2 -1 6t-1 5h72h37h60v-1zM37 489q0 2 -1 6t-1 5h46h89h51q-1 -1 -1 -2t-0.5 -1.5t-0.5 -2.5t-0.5 -2.5t-0.5 -1.5v-2h-24q-9 0 -13 -5.5t4 -24.5
l128 -366l100 258l-39 108q-7 19 -15 24.5t-17 5.5h-28v2q0 1 -0.5 1.5t-0.5 2.5t-0.5 2.5t-0.5 1.5v2h47h89h50v-2q0 -1 -0.5 -1.5t-0.5 -2.5t-0.5 -2.5t-0.5 -1.5v-2h-25q-9 0 -12.5 -5.5t3.5 -24.5l119 -366l-38 -102l-115 320l-131 -320h-24l-178 472q-8 16 -15.5 20.5
t-15.5 4.5h-27v2zM498 615q-23 0 -37.5 14.5t-14.5 37.5t14.5 37t37.5 14t37.5 -14t14.5 -37t-14.5 -37.5t-37.5 -14.5zM347 615q-23 0 -37.5 14.5t-14.5 37.5t14.5 37t37.5 14t37.5 -14t14.5 -37t-14.5 -37.5t-37.5 -14.5z" />
    <glyph glyph-name="Ygrave" unicode="&#x1ef2;" 
d="M12 740q0 2 -1 6t-1 5h42h111h79q-1 -1 -1 -2v-4q-1 -2 -1 -4v-2h-22q-9 0 -14 -5.5t-2 -19.5t14.5 -38t34.5 -62l167 -260l160 301q22 50 18 67t-23 17h-22q0 2 -1 6t-1 5h79h41h58q-1 -1 -1 -2t-0.5 -1.5t-0.5 -2.5t-0.5 -2.5t-0.5 -1.5v-2h-25q-8 0 -18.5 -7t-26 -25
t-37 -50.5t-51.5 -83.5l-141 -244v-224q0 -56 18 -74t46 -18h13l4 -12h-255q1 0 1 1q0 3 1 5v4q0 1 1 2h13q28 0 46 18t18 74v219l-183 278q-28 42 -47.5 68.5t-32 41.5t-19.5 21t-11 6h-28zM478 821l-10 -9l-142 120q-28 24 -46 41.5t-18 22.5q0 16 12 28t27 12q5 0 22 -19
t40 -49z" />
    <glyph glyph-name="ygrave" unicode="&#x1ef3;" horiz-adv-x="560" 
d="M547 500q0 -1 -0.5 -5t-1.5 -6h-25q-17 0 -33.5 -14t-32.5 -57l-173 -427l-58 -152q-11 -28 -35.5 -46t-53.5 -18q-20 0 -33.5 14t-13.5 36q0 17 13 28t33 11q7 0 12.5 -4.5t10.5 -9.5t10.5 -9.5t12.5 -4.5q20 0 30 25l49 130l-185 457h-1q-10 26 -20 33.5t-21 7.5h-27v2
q0 1 -0.5 1.5t-0.5 2.5t-0.5 2.5t-0.5 1.5v2h49h87h57v-2q0 -1 -0.5 -1.5t-0.5 -2.5t-0.5 -2.5t-0.5 -1.5v-2h-24q-12 0 -16.5 -7.5t6.5 -33.5l137 -355l-38 -102l171 452q10 28 2 37t-27 9h-23q0 2 -1 6t-1 5h72h36h60v0zM388 571l-10 -9l-142 120q-28 24 -46 41.5
t-18 22.5q0 16 12 28t27 12q5 0 22 -19t40 -49z" />
    <glyph glyph-name="quoteleft" unicode="&#x2018;" horiz-adv-x="214" 
d="M108 639q17 0 27.5 -10.5t10.5 -27.5q0 -16 -10.5 -26.5t-27.5 -10.5q-20 0 -33.5 14t-13.5 37q0 18 5.5 37.5t16 38.5t24.5 36.5t31 31.5l10 -11q-28 -23 -45.5 -56t-17.5 -62v-3q8 13 22 13z" />
    <glyph glyph-name="quoteright" unicode="&#x2019;" horiz-adv-x="220" 
d="M129 697q-8 -13 -23 -13q-17 0 -27 10.5t-10 26.5q0 17 10 27.5t27 10.5q21 0 34 -13t13 -33q0 -40 -19.5 -81.5t-49.5 -67.5l-11 10q25 21 40.5 55t16.5 68h-1z" />
    <glyph glyph-name="quotedblleft" unicode="&#x201c;" horiz-adv-x="340" 
d="M223 555q8 13 23 13q17 0 27 -10.5t10 -26.5q0 -17 -10 -27.5t-27 -10.5q-21 0 -34 13t-13 33q0 40 19.5 81.5t49.5 67.5l11 -10q-25 -21 -40.5 -55t-16.5 -68h1zM93 555q8 13 23 13q17 0 27 -10.5t10 -26.5q0 -17 -10 -27.5t-27 -10.5q-21 0 -34 13t-13 33
q0 40 19.5 81.5t49.5 67.5l11 -10q-25 -21 -40.5 -55t-16.5 -68h1z" />
    <glyph glyph-name="quotedblright" unicode="&#x201d;" horiz-adv-x="340" 
d="M129 627q-8 -13 -23 -13q-17 0 -27 10.5t-10 26.5q0 17 10 27.5t27 10.5q21 0 34 -13t13 -33q0 -40 -19.5 -81.5t-49.5 -67.5l-11 10q25 21 40.5 55t16.5 68h-1zM259 627q-8 -13 -23 -13q-17 0 -27 10.5t-10 26.5q0 17 10 27.5t27 10.5q21 0 34 -13t13 -33
q0 -40 -19.5 -81.5t-49.5 -67.5l-11 10q25 21 40.5 55t16.5 68h-1z" />
    <glyph glyph-name="quotedblbase" unicode="&#x201e;" horiz-adv-x="350" 
d="M222 -3q1 -34 16.5 -68t40.5 -55l-11 -10q-30 26 -49.5 67.5t-19.5 81.5q0 20 13 33t34 13q17 0 27 -10.5t10 -27.5q0 -16 -10 -26.5t-27 -10.5q-15 0 -23 13h-1zM92 -3q1 -34 16.5 -68t40.5 -55l-11 -10q-30 26 -49.5 67.5t-19.5 81.5q0 20 13 33t34 13q17 0 27 -10.5
t10 -27.5q0 -16 -10 -26.5t-27 -10.5q-15 0 -23 13h-1z" />
    <glyph glyph-name="Euro" unicode="&#x20ac;" horiz-adv-x="809" 
d="M765 35q0 22 -8 22q-23 -4 -46.5 -8t-29.5 -5q-40 -23 -93.5 -36.5t-125.5 -13.5q-69 0 -128.5 22t-105 61.5t-76.5 95.5t-43 124h-61l8 57h47v24v24h-47l8 57h45q12 68 44 124t79 95.5t108 61.5t132 22q72 0 122 -14.5t88 -40.5q30 -18 51 -23t23 3q1 5 2 8.5t2 6.5
q1 4 1 6l6 3v-89v-87q-5 2 -6 2h-2q0 2 -1 5q-1 2 -2 4.5t-2 6.5q-6 18 -20.5 41t-35 45.5t-45 42.5t-50.5 32t-56.5 18.5t-67.5 6.5q-53 0 -98 -20.5t-80 -57.5t-58.5 -89t-32.5 -116h329l-8 -57h-326v-24v-24h326l-8 -57h-313q9 -64 31.5 -116t56 -89.5t76.5 -58t93 -20.5
q48 0 87 8.5t71 24.5h-1q22 11 43.5 29t39.5 38t30.5 40.5t17.5 35.5q1 4 2 7t2 5q1 3 1 4t1 1t3 1h2l1 1v-87v-91z" />
    <glyph glyph-name="trademark" unicode="&#x2122;" horiz-adv-x="1081" 
d="M173 207q0 1 1 4t1 4h8q20 0 32 12t12 50v304h-68q-32 0 -53 -3t-34.5 -9t-20.5 -13.5t-10 -16.5l-3 -9h-1q-1 0 -1.5 -0.5t-1.5 -0.5h-5q5 14 9.5 27t9.5 27v13h5q2 7 5 14t5 14h3q1 -1 3 -1h1l-2 -6q-2 -5 1 -8.5t13.5 -6t29.5 -4t51 -1.5h63h56h62q32 0 51.5 1.5t30 4
t13 6t1.5 8.5l-3 6q2 0 4 1h4q2 -6 4.5 -13t4.5 -14h5v-13q1 -2 1 -3.5t1 -3.5q4 -11 8 -23.5t9 -23.5h-1q-1 0 -1.5 0.5t-1.5 0.5h-4l-4 9q-6 19 -30.5 31t-87.5 12h-67v-305q0 -38 12 -49.5t30 -11.5h9l1 -4v-3q0 -1 1 -1h-163zM853 209q0 1 1 4t2 4h8q18 0 30 11t13 46
l-9 279l-136 -343h-14q-38 81 -76.5 162.5t-76.5 162.5q0 2 -2 4l-5 -230q0 -28 3.5 -45.5t9.5 -27.5t13.5 -14t16.5 -4h16v-1q0 -2 1 -3v-3q0 -1 1 -1h-63h-20h-62q0 1 0.5 3.5t1.5 3.5h15q10 0 18.5 5.5t15 20t10.5 40.5t6 67l8 211q-12 17 -22.5 22.5t-21.5 5.5h-16
q-1 0 -1 1v3v4h48h15h14h38l143 -312v-2l121 314h19h34h53q-1 0 -1 -1v-3q-1 -1 -1 -3v-1h-16q-7 0 -12.5 -5.5t-9.5 -19.5t-6 -39.5t-1 -64.5l7 -191q3 -32 14 -42t28 -10h8l2 -8h-50h-57h-56h1z" />
    <glyph glyph-name="F_sc" unicode="&#xa730;" horiz-adv-x="544" 
d="M490 478q-4 0 -7 1q-3 0 -6 1l-1 13q-2 17 -13.5 31.5t-40.5 25t-78.5 16.5t-126.5 6h-1v-100v-180h29q46 0 76 4t47.5 11.5t24.5 17.5t8 22l2 34q2 1 4.5 2.5t3.5 1.5v-93v-17v-94l-3 3l-4 2l-2 35q-2 17 -10.5 30.5t-29.5 23.5h-145v-162q0 -31 5 -50.5t13.5 -30.5
t20 -15t25.5 -4h13l2 -6v-5q0 -1 1 -1h-80h-84h-81q0 1 1.5 5.5t2.5 6.5h12q14 0 26 4t20.5 15t13.5 30.5t5 50.5v359q0 31 -5 50.5t-13.5 30.5t-20.5 15t-26 4h-12l-4 12h81h84h99h165q2 -26 4 -53.5t5 -53.5v1z" />
    <glyph glyph-name="S_sc" unicode="&#xa731;" horiz-adv-x="503" 
d="M359 565q20 -11 35.5 -9.5t17.5 9.5q1 5 2 8.5t2 6.5q1 4 1 6q2 1 4.5 2.5t3.5 1.5v-88v-77h-1q-1 0 -1 0.5t-1 0.5l-4 2l-5 15q-6 20 -21 41t-35.5 39.5t-45.5 31.5t-51 18l16 -1q-20 3 -39 3l23 -2q-6 1 -12 1.5t-12 0.5q-45 0 -73 -29t-28 -75q0 -32 41.5 -68
t119.5 -68q82 -32 125.5 -82.5t43.5 -102.5q0 -35 -14.5 -64.5t-40 -50.5t-61.5 -33t-78 -12q-37 0 -72 10t-64 27q-29 15 -48.5 15.5t-21.5 -8.5q-2 -6 -2.5 -11t-1.5 -9t-1 -7q-2 -1 -4.5 -2.5t-3.5 -1.5v111v76q5 -2 6 -2h2q6 -22 19.5 -47.5t32 -48.5t40.5 -41t46 -25
h-1q34 -12 73 -12q56 0 91.5 31t35.5 81q0 27 -39 60t-114 62q-85 34 -130 85.5t-45 104.5q0 34 12.5 62.5t34.5 49t52.5 32t66.5 11.5q34 0 65 -7.5t57 -21.5z" />
    <glyph glyph-name="X_sc" unicode="&#xf078;" horiz-adv-x="682" 
d="M472 573q0 2 -1 6t-1 5h101h38h55q-1 -1 -1 -2t-0.5 -1.5t-0.5 -2.5t-0.5 -2.5t-0.5 -1.5v-2h-25q-13 0 -33 -12t-53 -45l-140 -164l-6 -9v1l-22 -26l86 -119h1q41 -57 69.5 -93t48.5 -56.5t32.5 -28t20.5 -7.5h25q0 -2 1 -6t1 -5h-56h-100h-94v1q0 1 0.5 2t0.5 3
q0 1 0.5 2t0.5 2v2h21q13 0 19 7t0.5 25t-23.5 50t-54 83l-60 82l-79 -103q-32 -44 -45 -72t-12 -44.5t15 -22.5t36 -6h21q0 -2 1 -6t1 -5h-138h-34h-69q0 1 0.5 5t1.5 6h24q11 0 24.5 5.5t32.5 20t44 39.5t58 65l108 132l-107 148q-34 45 -57.5 74t-39.5 45.5t-25.5 23
t-15.5 6.5h-26q0 2 -1 6t-1 5h49h99h94q-1 -1 -1 -2v-4q-1 -2 -1 -4v-2h-21q-14 0 -19.5 -7.5t1 -28t27.5 -56t62 -92.5l42 -58l54 68q40 53 61 87t27 53.5t-0.5 26.5t-20.5 7h-21z" />
    <glyph glyph-name="Acute" unicode="&#xf6c9;" horiz-adv-x="706" 
d="M269 572l115 147q24 30 40.5 49t21.5 19q16 0 28 -12t12 -28q0 -5 -18 -22t-47 -42l-142 -120z" />
    <glyph glyph-name="e_cap_tilde" horiz-adv-x="642" 
d="M174 870q0 51 21.5 84t56.5 33q24 0 48 -10t48.5 -22.5t48.5 -22.5t48 -10q23 0 37.5 17t14.5 43h12q0 -51 -23 -83.5t-60 -32.5q-23 0 -47.5 10t-48.5 22.5t-48.5 22.5t-47.5 10q-21 0 -34.5 -17t-13.5 -44h-12zM563 637q-1 0 -5.5 1.5t-6.5 2.5v9q-2 18 -5.5 33.5
t-19 26.5t-47 17t-88.5 6h-166v-95v-244h105q47 0 77 6.5t47 18.5t23.5 28.5t6.5 36.5v13l11 5v-108v-19v-108l-11 5v13q0 19 -6.5 35.5t-23.5 28.5t-47 19t-77 7h-105v-263v-32q0 -14 2.5 -25.5t11 -20t24.5 -13t42 -4.5h112q47 0 78 6t49.5 16.5t27 25t10.5 31.5l2 13
l12 4q-4 -28 -8 -57t-9 -56h-165h-190h-94h-80v1q0 1 0.5 2t0.5 3l2 6h13q14 0 25.5 4t20 15t13.5 30.5t5 50.5v526q0 31 -5 50.5t-13.5 30.5t-20 15t-25.5 4h-13l-2 6q0 2 -0.5 2.5t-0.5 1.5v2h80h94h165h165q2 -28 3.5 -56.5t3.5 -56.5h2z" />
    <glyph glyph-name="a_cap_dotaccent" horiz-adv-x="761" 
d="M397 865q-23 0 -37.5 14.5t-14.5 37.5t14.5 37t37.5 14t37 -14t14 -37t-14 -37.5t-37 -14.5zM204 211q-18 -60 -23 -98.5t0.5 -60.5t19.5 -30.5t34 -8.5h21v-2q0 -1 0.5 -2t0.5 -2q0 -2 0.5 -3t0.5 -2v-1h-123h-24h-97v1q0 3 1 5v4q0 1 1 2h23q16 0 32 8.5t34 30.5t37 61
t41 100l170 499l-3 10q21 2 40 15.5t28 32.5h10l16 -48l190 -571q15 -42 28 -69t24 -42.5t20.5 -21.5t18.5 -6h25v-2q0 -3 1 -4v-5q0 -1 1 -1h-68h-98h-102v1q0 1 0.5 2t0.5 3l2 6h22q16 0 27 7.5t14 28t-3.5 56.5t-25.5 93h1l-25 77h-272zM490 296l-128 392l-130 -392h258z
" />
  </font>
</defs>
</svg>
