<?xml version="1.0" encoding="utf-8"?>
<!-- Generator: Adobe Illustrator 23.0.1, SVG Export Plug-In . SVG Version: 6.00 Build 0)  -->
<svg version="1.1" id="Layer_1" xmlns="http://www.w3.org/2000/svg" xmlns:xlink="http://www.w3.org/1999/xlink" x="0px" y="0px"
	 viewBox="0 0 200 200" style="enable-background:new 0 0 200 200;" xml:space="preserve">
<style type="text/css">
	.st0{fill:#0080FF;}
</style>
<g id="XMLID_229_">
	<g id="XMLID_690_">
		<g id="XMLID_691_">
			<g>
				<g id="XMLID_44_">
					<g id="XMLID_48_">
						<path id="XMLID_49_" class="st0" d="M100,196.02v-37.23c39.41,0,70-39.08,54.87-80.56c-5.55-15.35-17.85-27.65-33.2-33.2
							C80.19,30,41.1,60.49,41.1,99.89l0,0H3.98c0-62.82,60.75-111.81,126.61-91.23c28.74,9.04,51.71,31.9,60.64,60.64
							C211.81,135.28,162.93,196.02,100,196.02z"/>
					</g>
					<polygon id="XMLID_47_" class="st0" points="100.11,158.9 63.1,158.9 63.1,121.89 63.1,121.89 100.11,121.89 100.11,121.89 
											"/>
					<polygon id="XMLID_46_" class="st0" points="63.1,187.42 34.57,187.42 34.57,187.42 34.57,158.9 63.1,158.9 					"/>
					<path id="XMLID_45_" class="st0" d="M34.57,158.9H10.73l0,0v-23.84l0,0h23.84l0,0V158.9z"/>
				</g>
			</g>
		</g>
	</g>
</g>
</svg>
