<?xml version="1.0" encoding="utf-8"?>
<!-- Generator: Adobe Illustrator 23.0.1, SVG Export Plug-In . SVG Version: 6.00 Build 0)  -->
<svg version="1.1" id="Layer_1" xmlns="http://www.w3.org/2000/svg" xmlns:xlink="http://www.w3.org/1999/xlink" x="0px" y="0px"
	 viewBox="0 0 200 200" style="enable-background:new 0 0 200 200;" xml:space="preserve">
<style type="text/css">
	.st0{fill:#FFC24A;}
	.st1{fill-rule:evenodd;clip-rule:evenodd;fill:#FFA712;}
	.st2{fill:#F4BD62;}
	.st3{fill-rule:evenodd;clip-rule:evenodd;fill:#FFA50E;}
	.st4{fill:#F6820C;}
	.st5{fill:#FDE068;}
	.st6{fill:#FCCA3F;}
	.st7{fill:#EEAB37;}
</style>
<g>
	<path class="st0" d="M28.69,160.14l1.19-1.66L85.94,52.09l0.12-1.13L61.35,4.54c-2.07-3.89-7.9-2.91-8.58,1.45L28.69,160.14z"/>
	<g>
		<g>
			<path id="path-1" class="st1" d="M29.39,158.87l0.9-1.75L85.77,51.85L61.11,5.24c-2.05-3.85-7.25-2.87-7.92,1.44L29.39,158.87z"
				/>
		</g>
		<g>
			<path d="M29.39,158.87l0.9-1.75L85.77,51.85L61.11,5.24c-2.05-3.85-7.25-2.87-7.92,1.44L29.39,158.87z"/>
		</g>
	</g>
	<path class="st2" d="M104.08,86.08l18.4-18.85L104.07,32.1c-1.75-3.33-6.63-3.34-8.36,0l-9.83,18.76v1.6L104.08,86.08z"/>
	<g>
		<g>
			<path id="path-3" class="st3" d="M103.75,85.3l17.89-18.32l-17.89-34.07c-1.7-3.23-5.83-3.57-7.51-0.33l-9.89,19.05l-0.3,0.97
				L103.75,85.3z"/>
		</g>
		<g>
			<path d="M103.75,85.3l17.89-18.32l-17.89-34.07c-1.7-3.23-5.83-3.57-7.51-0.33l-9.89,19.05l-0.3,0.97L103.75,85.3z"/>
		</g>
	</g>
	<polygon class="st4" points="28.69,160.14 29.23,159.6 31.18,158.8 102.92,87.33 103.83,84.85 85.94,50.75 	"/>
	<path class="st5" d="M106.38,196.18l64.93-36.21L152.77,45.78c-0.58-3.57-4.96-4.99-7.52-2.42L28.69,160.14l64.56,36.04
		C97.33,198.46,102.3,198.46,106.38,196.18"/>
	<path class="st6" d="M170.73,159.67l-18.4-113.32c-0.58-3.55-4.22-5.01-6.76-2.47L29.41,159.92l63.85,35.69
		c4.05,2.26,8.98,2.26,13.03,0L170.73,159.67z"/>
	<path class="st7" d="M106.38,195.12c-4.08,2.28-9.05,2.27-13.13,0l-64.04-35.53l-0.52,0.55l64.56,36.04
		c4.08,2.28,9.05,2.28,13.13,0l64.93-36.21l-0.16-0.98L106.38,195.12z"/>
</g>
</svg>
