<?xml version="1.0" encoding="utf-8"?>
<!-- Generator: Adobe Illustrator 23.0.1, SVG Export Plug-In . SVG Version: 6.00 Build 0)  -->
<svg version="1.1" id="Layer_1" xmlns="http://www.w3.org/2000/svg" xmlns:xlink="http://www.w3.org/1999/xlink" x="0px" y="0px"
	 viewBox="0 0 200 200" style="enable-background:new 0 0 200 200;" xml:space="preserve">
<style type="text/css">
	.st0{fill:#744C9E;}
</style>
<g>
	<path class="st0" d="M100,2C45.88,2,2,45.88,2,100c0,54.12,43.88,98,98,98c54.12,0,98-43.88,98-98S154.12,2,100,2z M23.06,101.02
		l75.92,75.92C57.29,176.4,23.6,142.71,23.06,101.02z M117.22,175.02L24.98,82.78C32.8,48.57,63.42,23.04,100,23.04
		c25.57,0,48.22,12.47,62.22,31.67l-10.65,9.4C140.21,47.83,121.35,37.18,100,37.18c-27.18,0-50.33,17.27-59.08,41.43l80.47,80.47
		c19.54-7.08,34.57-23.57,39.61-44.01h-33.36V100h35.18v0h14.13v0C176.96,136.58,151.43,167.2,117.22,175.02z"/>
</g>
</svg>
