<?xml version="1.0" encoding="utf-8"?>
<!-- Generator: Adobe Illustrator 23.0.1, SVG Export Plug-In . SVG Version: 6.00 Build 0)  -->
<svg version="1.1" id="Layer_1" xmlns="http://www.w3.org/2000/svg" xmlns:xlink="http://www.w3.org/1999/xlink" x="0px" y="0px"
	 viewBox="0 0 200 200" style="enable-background:new 0 0 200 200;" xml:space="preserve">
<style type="text/css">
	.st0{fill-rule:evenodd;clip-rule:evenodd;fill:#FFFFFF;}
	.st1{fill:#FFFFFF;}
</style>
<g>
	<path class="st0" d="M100,3.72c-54.51,0-98.72,44.2-98.72,98.72c0,43.62,28.29,80.62,67.51,93.67c4.93,0.91,6.74-2.14,6.74-4.75
		c0-2.35-0.09-10.13-0.13-18.38c-27.46,5.97-33.26-11.65-33.26-11.65c-4.49-11.41-10.96-14.44-10.96-14.44c-8.96-6.13,0.68-6,0.68-6
		c9.91,0.7,15.13,10.17,15.13,10.17c8.8,15.09,23.09,10.73,28.73,8.21c0.89-6.38,3.44-10.74,6.27-13.2
		c-21.93-2.5-44.98-10.96-44.98-48.79c0-10.78,3.86-19.58,10.17-26.5c-1.02-2.49-4.4-12.53,0.96-26.13c0,0,8.29-2.65,27.15,10.12
		c7.88-2.19,16.32-3.28,24.71-3.32c8.39,0.04,16.84,1.14,24.73,3.32c18.84-12.77,27.12-10.12,27.12-10.12
		c5.37,13.6,1.99,23.64,0.97,26.13c6.33,6.91,10.16,15.72,10.16,26.5c0,37.92-23.09,46.26-45.08,48.71c3.54,3.06,6.7,9.07,6.7,18.28
		c0,13.21-0.11,23.84-0.11,27.09c0,2.63,1.78,5.71,6.78,4.74c39.2-13.07,67.45-50.06,67.45-93.66C198.72,47.92,154.52,3.72,100,3.72
		z"/>
	<path class="st1" d="M38.67,145.46c-0.22,0.49-0.99,0.64-1.69,0.3c-0.72-0.32-1.12-0.99-0.89-1.48c0.21-0.5,0.98-0.64,1.7-0.31
		C38.51,144.29,38.92,144.96,38.67,145.46L38.67,145.46z M37.46,144.56"/>
	<path class="st1" d="M42.67,149.92c-0.47,0.44-1.39,0.23-2.02-0.46c-0.65-0.69-0.77-1.61-0.29-2.05c0.49-0.44,1.38-0.23,2.02,0.46
		C43.04,148.56,43.16,149.47,42.67,149.92L42.67,149.92z M41.73,148.91"/>
	<path class="st1" d="M46.56,155.6c-0.61,0.42-1.59,0.03-2.21-0.85c-0.61-0.88-0.61-1.93,0.01-2.35c0.61-0.42,1.59-0.04,2.21,0.83
		C47.18,154.12,47.18,155.17,46.56,155.6L46.56,155.6z M46.56,155.6"/>
	<path class="st1" d="M51.9,161.09c-0.54,0.6-1.69,0.44-2.54-0.38c-0.86-0.79-1.1-1.93-0.56-2.52c0.55-0.6,1.71-0.43,2.56,0.38
		C52.21,159.37,52.47,160.5,51.9,161.09L51.9,161.09z M51.9,161.09"/>
	<path class="st1" d="M59.25,164.28c-0.24,0.77-1.35,1.12-2.47,0.8c-1.12-0.34-1.85-1.24-1.62-2.02c0.23-0.78,1.35-1.14,2.47-0.79
		C58.75,162.6,59.48,163.5,59.25,164.28L59.25,164.28z M59.25,164.28"/>
	<path class="st1" d="M67.33,164.87c0.03,0.81-0.92,1.49-2.09,1.5c-1.18,0.03-2.14-0.63-2.15-1.43c0-0.82,0.93-1.49,2.11-1.51
		C66.37,163.41,67.33,164.07,67.33,164.87L67.33,164.87z M67.33,164.87"/>
	<path class="st1" d="M74.85,163.6c0.14,0.79-0.68,1.61-1.84,1.83c-1.15,0.21-2.21-0.28-2.35-1.07c-0.14-0.81,0.69-1.63,1.83-1.84
		C73.65,162.31,74.7,162.79,74.85,163.6L74.85,163.6z M74.85,163.6"/>
</g>
</svg>
