<?xml version="1.0" encoding="utf-8"?>
<!-- Generator: Adobe Illustrator 23.0.1, SVG Export Plug-In . SVG Version: 6.00 Build 0)  -->
<svg version="1.1" id="Layer_1" xmlns="http://www.w3.org/2000/svg" xmlns:xlink="http://www.w3.org/1999/xlink" x="0px" y="0px"
	 viewBox="0 0 200 200" style="enable-background:new 0 0 200 200;" xml:space="preserve">
<style type="text/css">
	.st0{fill:#E34E26;}
	.st1{fill:#EF662A;}
	.st2{fill:#FFFFFF;}
	.st3{fill:#EBEBEB;}
</style>
<g id="Guides_to_delete">
	<g>
		<polygon class="st0" points="29.24,178.53 13.49,1.83 186.51,1.83 170.74,178.55 99.96,198.17 		"/>
		<polygon class="st1" points="100,16.27 100,183.16 157.23,167.29 170.72,16.27 		"/>
		<polygon class="st2" points="45.72,37.95 51.56,103.49 126.68,103.49 124.16,131.6 99.97,138.14 75.83,131.61 74.22,113.56 
			52.46,113.56 55.57,148.35 99.97,160.68 144.42,148.35 150.37,81.82 71.38,81.82 69.4,59.62 152.27,59.62 152.34,59.62 
			154.28,37.95 		"/>
		<g>
			<polygon class="st3" points="100,37.95 45.72,37.95 51.56,103.49 100,103.49 100,81.82 71.38,81.82 69.4,59.62 100,59.62 			"/>
			<polygon class="st3" points="100,138.13 99.97,138.14 75.83,131.61 74.22,113.56 52.46,113.56 55.57,148.35 99.97,160.68 
				100,160.67 			"/>
		</g>
	</g>
</g>
</svg>
