<?xml version="1.0" encoding="utf-8"?>
<!-- Generator: Adobe Illustrator 23.0.1, SVG Export Plug-In . SVG Version: 6.00 Build 0)  -->
<svg version="1.1" id="Layer_1" xmlns="http://www.w3.org/2000/svg" xmlns:xlink="http://www.w3.org/1999/xlink" x="0px" y="0px"
	 viewBox="0 0 200 200" style="enable-background:new 0 0 200 200;" xml:space="preserve">
<style type="text/css">
	.st0{fill:url(#SVGID_1_);}
</style>
<radialGradient id="SVGID_1_" cx="50.1837" cy="151.6577" r="5.1435" gradientTransform="matrix(0 38.301 44.1227 0 -6591.5537 -1920.6913)" gradientUnits="userSpaceOnUse">
	<stop  offset="0" style="stop-color:#20C6B7"/>
	<stop  offset="1" style="stop-color:#4D9ABF"/>
</radialGradient>
<path class="st0" d="M144.22,69.86l-0.07-0.03c-0.04-0.02-0.08-0.03-0.12-0.07c-0.12-0.13-0.17-0.3-0.14-0.48l3.97-24.28
	l18.62,18.63l-19.37,8.24c-0.05,0.02-0.11,0.03-0.17,0.03h-0.08c-0.03-0.02-0.05-0.04-0.1-0.09
	C146.05,71.02,145.18,70.36,144.22,69.86z M171.24,68.38l19.91,19.91c4.14,4.14,6.21,6.21,6.96,8.6c0.11,0.35,0.21,0.71,0.28,1.07
	L150.8,77.82c-0.03-0.01-0.05-0.02-0.08-0.03c-0.19-0.08-0.41-0.16-0.41-0.36s0.23-0.29,0.42-0.36l0.06-0.03L171.24,68.38z
	 M197.58,104.36c-1.03,1.93-3.03,3.94-6.42,7.33l-22.45,22.45l-29.04-6.05l-0.15-0.03c-0.26-0.04-0.53-0.09-0.53-0.32
	c-0.22-2.42-1.44-4.64-3.37-6.13c-0.12-0.12-0.09-0.3-0.05-0.47c0-0.03,0-0.05,0.01-0.07l5.46-33.53l0.02-0.11
	c0.03-0.26,0.08-0.55,0.31-0.55c2.36-0.29,4.51-1.53,5.96-3.42c0.05-0.05,0.08-0.11,0.14-0.14c0.16-0.08,0.36,0,0.53,0.07
	L197.58,104.36L197.58,104.36z M163.54,139.31l-36.92,36.92l6.32-38.84l0.01-0.05c0.01-0.05,0.02-0.1,0.03-0.15
	c0.05-0.12,0.18-0.17,0.31-0.23l0.06-0.03c1.38-0.59,2.61-1.5,3.57-2.66c0.12-0.14,0.27-0.28,0.46-0.31c0.05-0.01,0.1-0.01,0.15,0
	L163.54,139.31L163.54,139.31z M118.81,184.04l-4.16,4.16l-46.01-66.49c-0.02-0.02-0.03-0.05-0.05-0.07
	c-0.07-0.1-0.15-0.2-0.13-0.31c0.01-0.08,0.06-0.15,0.11-0.22l0.05-0.07c0.14-0.21,0.26-0.41,0.39-0.63l0.1-0.18l0.02-0.02
	c0.07-0.12,0.14-0.24,0.26-0.31c0.11-0.05,0.26-0.03,0.38-0.01l50.97,10.51c0.14,0.02,0.28,0.08,0.39,0.17
	c0.07,0.07,0.08,0.14,0.1,0.22c0.72,2.73,2.67,4.96,5.28,6.04c0.14,0.07,0.08,0.23,0.02,0.4c-0.03,0.07-0.06,0.15-0.08,0.23
	C125.79,141.38,120.29,174.97,118.81,184.04z M110.11,192.73c-3.07,3.04-4.88,4.64-6.92,5.29c-2.02,0.64-4.18,0.64-6.2,0
	c-2.39-0.76-4.46-2.83-8.6-6.97l-46.2-46.2l12.07-18.72c0.06-0.09,0.11-0.17,0.21-0.24c0.13-0.09,0.31-0.05,0.47,0
	c2.77,0.84,5.74,0.69,8.42-0.43c0.14-0.05,0.28-0.09,0.39,0.01c0.05,0.05,0.1,0.1,0.14,0.16L110.11,192.73L110.11,192.73z
	 M37.74,140.4l-10.6-10.6l20.93-8.93c0.05-0.02,0.11-0.04,0.17-0.04c0.17,0,0.28,0.17,0.37,0.33c0.21,0.32,0.43,0.64,0.67,0.95
	l0.07,0.08c0.06,0.09,0.02,0.17-0.04,0.26L37.74,140.4L37.74,140.4z M22.45,125.11L9.04,111.7c-2.28-2.28-3.94-3.94-5.09-5.36
	l40.77,8.46c0.05,0.01,0.1,0.02,0.15,0.03c0.25,0.04,0.53,0.09,0.53,0.32c0,0.26-0.3,0.38-0.56,0.47l-0.12,0.05
	C44.73,115.67,22.45,125.11,22.45,125.11z M1.61,99.44c0.05-0.86,0.2-1.72,0.46-2.54c0.76-2.39,2.83-4.46,6.97-8.6L26.2,71.14
	c7.9,11.47,15.82,22.92,23.77,34.36c0.14,0.18,0.29,0.39,0.13,0.54c-0.75,0.83-1.5,1.73-2.03,2.71c-0.06,0.13-0.15,0.24-0.26,0.32
	c-0.07,0.04-0.14,0.03-0.22,0.01h-0.01L1.61,99.44L1.61,99.44z M30.79,66.55l23.07-23.07c2.17,0.95,10.06,4.28,17.12,7.26
	c5.34,2.26,10.21,4.32,11.75,4.98c0.15,0.06,0.29,0.12,0.36,0.28c0.04,0.09,0.02,0.21,0,0.31c-0.74,3.38,0.27,6.91,2.69,9.39
	c0.15,0.15,0,0.38-0.13,0.57l-0.07,0.11l-23.43,36.29c-0.06,0.1-0.12,0.19-0.22,0.26c-0.12,0.08-0.3,0.04-0.44,0.01
	c-0.91-0.24-1.85-0.37-2.79-0.38c-0.84,0-1.76,0.15-2.68,0.32H56c-0.1,0.02-0.2,0.04-0.28-0.03c-0.09-0.07-0.17-0.16-0.23-0.26
	C55.49,102.58,30.79,66.55,30.79,66.55z M58.52,38.81L88.4,8.94C92.53,4.8,94.6,2.73,97,1.98c2.02-0.64,4.18-0.64,6.2,0
	c2.39,0.76,4.46,2.83,8.6,6.96l6.47,6.47l-21.24,32.9c-0.05,0.1-0.12,0.18-0.21,0.25c-0.13,0.09-0.31,0.05-0.46,0
	c-3.4-1.03-7.09-0.32-9.86,1.9c-0.14,0.14-0.34,0.06-0.52-0.02C83.19,49.24,61.61,40.12,58.52,38.81z M122.78,19.92l19.62,19.62
	l-4.73,29.28v0.08c0,0.07-0.02,0.13-0.04,0.2c-0.05,0.1-0.15,0.12-0.26,0.15c-1.01,0.31-1.96,0.78-2.82,1.4
	c-0.04,0.03-0.07,0.06-0.1,0.09c-0.06,0.06-0.11,0.12-0.21,0.13c-0.08,0-0.15-0.01-0.22-0.04l-29.89-12.7l-0.06-0.03
	c-0.19-0.08-0.42-0.17-0.42-0.36c-0.18-1.67-0.72-3.27-1.59-4.7c-0.14-0.24-0.3-0.48-0.18-0.72
	C101.89,52.31,122.78,19.92,122.78,19.92z M102.58,64.14l28.02,11.87c0.15,0.07,0.32,0.14,0.39,0.3c0.03,0.1,0.03,0.2,0,0.29
	c-0.08,0.41-0.15,0.88-0.15,1.35v0.79c0,0.2-0.2,0.28-0.39,0.35l-0.06,0.02c-4.44,1.9-62.32,26.58-62.41,26.58
	c-0.09,0-0.18,0-0.27-0.09c-0.15-0.15,0-0.37,0.14-0.57c0.02-0.03,0.05-0.07,0.07-0.1l23.03-35.66L91,69.22
	c0.13-0.22,0.29-0.46,0.53-0.46l0.23,0.04c0.52,0.07,0.99,0.14,1.45,0.14c3.49,0,6.73-1.7,8.68-4.61c0.05-0.08,0.11-0.15,0.17-0.21
	C102.21,64.02,102.42,64.07,102.58,64.14z M70.49,111.33l63.09-26.91c0,0,0.09,0,0.18,0.09c0.34,0.34,0.64,0.58,0.92,0.79l0.14,0.09
	c0.13,0.07,0.26,0.15,0.27,0.29c0,0.05,0,0.08-0.01,0.13l-5.4,33.2l-0.02,0.13c-0.04,0.26-0.07,0.55-0.31,0.55
	c-2.93,0.2-5.57,1.83-7.05,4.35l-0.03,0.04c-0.07,0.12-0.14,0.23-0.26,0.29c-0.11,0.05-0.25,0.03-0.36,0.01L71.32,114
	C71.27,113.99,70.54,111.34,70.49,111.33z"/>
</svg>
