<?xml version="1.0" encoding="utf-8"?>
<!-- Generator: Adobe Illustrator 23.0.1, SVG Export Plug-In . SVG Version: 6.00 Build 0)  -->
<svg version="1.1" id="Layer_1" xmlns="http://www.w3.org/2000/svg" xmlns:xlink="http://www.w3.org/1999/xlink" x="0px" y="0px"
	 viewBox="0 0 200 200" style="enable-background:new 0 0 200 200;" xml:space="preserve">
<style type="text/css">
	.st0{fill:#53C1DE;}
</style>
<path class="st0" d="M163.19,69.31L163.19,69.31c-2.09-0.72-4.19-1.38-6.31-1.99c0.35-1.43,0.68-2.86,0.98-4.31
	c4.78-23.2,1.65-41.89-9.02-48.04c-10.23-5.9-26.96,0.25-43.86,14.96c-1.67,1.45-3.29,2.95-4.88,4.48c-1.06-1.02-2.15-2.02-3.25-3
	C79.13,15.69,61.38,9.06,50.72,15.23C40.5,21.15,37.47,38.72,41.78,60.7c0.43,2.18,0.91,4.34,1.45,6.5
	c-2.51,0.71-4.94,1.47-7.26,2.28C15.2,76.72,1.94,88.07,1.94,99.83c0,12.15,14.23,24.35,35.86,31.74c1.75,0.6,3.52,1.15,5.3,1.66
	c-0.58,2.32-1.09,4.65-1.54,7c-4.1,21.6-0.9,38.76,9.3,44.64c10.53,6.07,28.2-0.17,45.41-15.21c1.36-1.19,2.73-2.45,4.09-3.77
	c1.72,1.66,3.49,3.27,5.3,4.84c16.67,14.34,33.13,20.13,43.31,14.24c10.52-6.09,13.94-24.52,9.5-46.94
	c-0.34-1.71-0.73-3.46-1.18-5.24c1.24-0.37,2.46-0.74,3.65-1.14c22.48-7.45,37.11-19.49,37.11-31.81
	C198.06,88.02,184.37,76.6,163.19,69.31z M110.47,36.26c14.48-12.6,28.01-17.58,34.18-14.02c6.57,3.79,9.12,19.06,4.99,39.09
	c-0.27,1.3-0.56,2.6-0.88,3.9c-8.14-1.88-16.97-3.27-26.22-4.14c-5.39-7.67-10.97-14.65-16.58-20.69
	C107.43,38.98,108.94,37.6,110.47,36.26z M59.85,109.89c1.77,3.43,3.63,6.81,5.56,10.15c1.97,3.41,4.02,6.76,6.16,10.07
	c-6.42-0.72-12.48-1.69-18.07-2.91C55.22,121.61,57.36,115.8,59.85,109.89z M59.84,90.18c-2.44-5.79-4.53-11.48-6.23-16.97
	c5.6-1.25,11.56-2.28,17.78-3.05c-2.08,3.25-4.09,6.54-6.01,9.88C63.45,83.38,61.61,86.76,59.84,90.18z M64.29,100.04
	c2.58-5.37,5.36-10.65,8.34-15.81v0c2.98-5.16,6.15-10.21,9.51-15.14c5.83-0.44,11.81-0.67,17.86-0.67c6.07,0,12.06,0.23,17.89,0.68
	c3.33,4.92,6.48,9.95,9.45,15.09c2.99,5.15,5.81,10.4,8.45,15.74c-2.62,5.39-5.43,10.68-8.43,15.87h0
	c-2.97,5.16-6.11,10.22-9.41,15.18c-5.82,0.42-11.83,0.63-17.96,0.63c-6.1,0-12.04-0.19-17.76-0.56c-3.39-4.95-6.58-10.02-9.58-15.2
	C69.67,110.68,66.88,105.41,64.29,100.04z M134.62,119.98c1.97-3.42,3.87-6.89,5.69-10.39c2.62,5.97,4.83,11.76,6.59,17.25
	c-5.69,1.3-11.83,2.34-18.29,3.12C130.68,126.67,132.68,123.34,134.62,119.98z M140.23,90.19c-1.81-3.44-3.69-6.84-5.64-10.21
	c-1.92-3.31-3.91-6.58-5.96-9.81c6.26,0.79,12.25,1.84,17.88,3.13C144.82,78.72,142.71,84.38,140.23,90.19z M100.09,46.38
	c3.86,4.19,7.73,8.86,11.54,13.93c-7.72-0.36-15.46-0.37-23.18-0.01C92.27,55.29,96.17,50.62,100.09,46.38z M54.92,22.49
	c6.56-3.8,21.07,1.62,36.36,15.19c0.98,0.87,1.96,1.78,2.94,2.72c-5.7,6.12-11.33,13.08-16.71,20.67
	c-9.22,0.85-18.05,2.23-26.17,4.07c-0.5-2-0.95-4.02-1.35-6.04v0C46.31,40.26,48.76,26.05,54.92,22.49z M45.36,125.16
	c-1.63-0.47-3.24-0.97-4.84-1.52c-9.56-3.27-17.46-7.52-22.87-12.15c-4.86-4.17-7.32-8.3-7.32-11.66c0-7.14,10.65-16.25,28.4-22.44
	c2.23-0.77,4.48-1.48,6.75-2.12c2.45,7.98,5.67,16.33,9.56,24.77C51.1,108.6,47.83,117.08,45.36,125.16z M90.76,163.35
	c-7.61,6.65-15.23,11.37-21.95,13.74h0c-6.04,2.13-10.85,2.19-13.75,0.52c-6.19-3.57-8.76-17.34-5.25-35.81
	c0.42-2.18,0.89-4.35,1.43-6.51c8.03,1.78,16.92,3.06,26.43,3.83c5.43,7.64,11.11,14.65,16.83,20.8
	C93.28,161.08,92.03,162.23,90.76,163.35z M100.33,153.88c-3.97-4.28-7.93-9.02-11.8-14.12c3.75,0.15,7.58,0.22,11.47,0.22
	c4,0,7.95-0.09,11.84-0.26C108.02,144.91,104.16,149.65,100.33,153.88z M151.2,165.53c-1.17,6.3-3.52,10.49-6.42,12.17
	c-6.18,3.58-19.4-1.07-33.65-13.34c-1.63-1.41-3.28-2.91-4.93-4.5c5.53-6.04,11.05-13.07,16.44-20.87
	c9.48-0.84,18.44-2.22,26.56-4.09c0.4,1.61,0.76,3.2,1.06,4.74C152.22,149.56,152.5,158.53,151.2,165.53z M158.31,123.69
	L158.31,123.69c-1.07,0.35-2.17,0.7-3.29,1.03c-2.48-7.86-5.83-16.21-9.93-24.84c3.91-8.43,7.13-16.68,9.54-24.48
	c2.01,0.58,3.95,1.19,5.83,1.84c18.15,6.25,29.22,15.48,29.22,22.6C189.68,107.42,177.72,117.26,158.31,123.69z"/>
<path class="st0" d="M100,82.49c9.67,0,17.51,7.84,17.51,17.51c0,9.67-7.84,17.51-17.51,17.51c-9.67,0-17.51-7.84-17.51-17.51
	C82.49,90.33,90.33,82.49,100,82.49"/>
</svg>
