<?xml version="1.0" encoding="utf-8"?>
<!-- Generator: Adobe Illustrator 23.0.1, SVG Export Plug-In . SVG Version: 6.00 Build 0)  -->
<svg version="1.1" id="Layer_1" xmlns="http://www.w3.org/2000/svg" xmlns:xlink="http://www.w3.org/1999/xlink" x="0px" y="0px"
	 viewBox="0 0 200 200" style="enable-background:new 0 0 200 200;" xml:space="preserve">
<style type="text/css">
	.st0{opacity:0.8;fill:#FF4433;enable-background:new    ;}
	.st1{fill:#FF4433;}
</style>
<g>
	<path class="st0" d="M141.93,131.97c14.67,9.41,21.31,22.7,21.31,41.8c-12.46,15.78-33.77,24.36-58.96,24.36
		c-42.35,0-72.52-21.04-78.89-57.3h40.69c5.26,16.61,19.1,24.36,37.92,24.36C126.43,165.46,141.65,153.29,141.93,131.97"/>
	<path class="st0" d="M62.49,66.09c-13.84-8.3-21.87-23.25-21.31-39.31c11.9-15.5,32.39-24.91,57.3-24.91
		c43.46,0,68.37,22.97,74.74,55.08H133.9c-4.43-12.73-15.22-22.7-34.88-22.7C77.71,34.54,63.32,46.71,62.49,66.09"/>
	<path class="st1" d="M41.17,27.06c0,26.3,16.33,42.07,48.99,50.38l34.6,8.03c31,7.2,49.83,24.91,49.83,53.7
		c0.28,12.46-3.88,24.64-11.35,34.6c0-28.79-14.95-44.29-50.66-53.7l-34.05-7.75c-27.4-6.09-48.44-20.76-48.44-52.04
		C30.1,48.38,33.98,36.47,41.17,27.06"/>
</g>
</svg>
