<?xml version="1.0" encoding="utf-8"?>
<!-- Generator: Adobe Illustrator 23.0.1, SVG Export Plug-In . SVG Version: 6.00 Build 0)  -->
<svg version="1.1" id="Layer_1" xmlns="http://www.w3.org/2000/svg" xmlns:xlink="http://www.w3.org/1999/xlink" x="0px" y="0px"
	 viewBox="0 0 200 200" style="enable-background:new 0 0 200 200;" xml:space="preserve">
<style type="text/css">
	.st0{fill:#CF649A;}
</style>
<path class="st0" d="M171.45,111.02c-6.92,0.04-12.92,1.7-17.95,4.18c-1.86-3.67-3.71-6.88-4.02-9.28
	c-0.35-2.78-0.77-4.49-0.35-7.81c0.43-3.33,2.36-8.04,2.36-8.43c-0.04-0.35-0.43-2.05-4.41-2.09s-7.43,0.77-7.81,1.82
	s-1.16,3.44-1.66,5.92c-0.7,3.64-7.97,16.51-12.11,23.28c-1.35-2.63-2.51-4.95-2.75-6.81c-0.35-2.78-0.77-4.49-0.35-7.81
	c0.43-3.33,2.36-8.04,2.36-8.43c-0.04-0.35-0.43-2.05-4.41-2.09c-3.98-0.04-7.43,0.77-7.81,1.82c-0.39,1.04-0.81,3.52-1.66,5.92
	c-0.81,2.4-10.48,23.9-13,29.51c-1.28,2.86-2.4,5.14-3.21,6.69c-0.81,1.55-0.04,0.12-0.12,0.27c-0.7,1.31-1.08,2.05-1.08,2.05v0.04
	c-0.54,0.97-1.12,1.89-1.39,1.89c-0.19,0-0.58-2.59,0.08-6.15c1.43-7.46,4.91-19.11,4.87-19.53c0-0.19,0.66-2.24-2.24-3.29
	c-2.82-1.04-3.83,0.7-4.06,0.7c-0.23,0-0.43,0.62-0.43,0.62s3.13-13.11-5.99-13.11c-5.72,0-13.61,6.23-17.52,11.91
	c-2.48,1.35-7.74,4.22-13.3,7.27c-2.13,1.16-4.33,2.4-6.42,3.52l-0.43-0.46c-11.06-11.8-31.52-20.15-30.67-36.01
	c0.31-5.76,2.32-20.96,39.29-39.37C85.55,32.66,109.8,36.8,114.02,46c5.99,13.15-12.96,37.59-44.44,41.11
	c-11.99,1.35-18.29-3.29-19.88-5.03c-1.66-1.82-1.9-1.9-2.51-1.55c-1.01,0.54-0.39,2.17,0,3.13c0.93,2.44,4.8,6.77,11.37,8.93
	c5.76,1.9,19.84,2.94,36.86-3.64c19.07-7.39,33.96-27.88,29.59-45.02c-4.45-17.44-33.38-23.17-60.72-13.46
	C48,36.3,30.36,45.35,17.68,57.22C2.59,71.3,0.19,83.6,1.2,88.7c3.52,18.22,28.62,30.09,38.68,38.87c-0.5,0.27-0.97,0.54-1.39,0.77
	c-5.03,2.47-24.17,12.49-28.97,23.09c-5.41,11.99,0.85,20.61,5.03,21.77c12.92,3.6,26.14-2.86,33.3-13.5
	c7.12-10.64,6.27-24.44,2.98-30.75l-0.12-0.23l3.94-2.32c2.55-1.51,5.07-2.9,7.27-4.1c-1.24,3.36-2.13,7.35-2.59,13.15
	c-0.54,6.81,2.24,15.62,5.92,19.11c1.62,1.51,3.56,1.55,4.76,1.55c4.25,0,6.19-3.52,8.32-7.74c2.63-5.14,4.95-11.1,4.95-11.1
	s-2.9,16.13,5.03,16.13c2.9,0,5.8-3.75,7.12-5.69v0.04c0,0,0.08-0.12,0.23-0.39c0.16-0.24,0.32-0.48,0.46-0.73v-0.08
	c1.16-2.01,3.75-6.61,7.62-14.23c4.99-9.82,9.78-22.12,9.78-22.12s0.46,3.02,1.9,7.97c0.85,2.94,2.71,6.15,4.14,9.28
	c-1.16,1.62-1.86,2.55-1.86,2.55l0.04,0.04c-0.93,1.24-1.97,2.55-3.05,3.87c-3.94,4.72-8.66,10.09-9.28,11.64
	c-0.73,1.82-0.58,3.17,0.85,4.25c1.04,0.77,2.9,0.93,4.87,0.77c3.56-0.23,6.03-1.12,7.27-1.66c1.93-0.7,4.14-1.74,6.27-3.29
	c3.87-2.86,6.23-6.92,5.99-12.34c-0.12-2.98-1.08-5.92-2.28-8.7c0.35-0.5,0.7-1.01,1.04-1.55c6.11-8.93,10.83-18.76,10.83-18.76
	s0.46,3.02,1.9,7.97c0.73,2.51,2.2,5.26,3.52,7.97c-5.72,4.68-9.32,10.09-10.56,13.65c-2.28,6.57-0.5,9.55,2.86,10.25
	c1.51,0.31,3.67-0.39,5.3-1.08c2.01-0.66,4.45-1.78,6.69-3.44c3.87-2.86,7.58-6.85,7.39-12.22c-0.12-2.48-0.77-4.91-1.66-7.23
	c4.87-2.01,11.18-3.17,19.18-2.2c17.21,2.01,20.61,12.76,19.96,17.25c-0.66,4.49-4.25,6.96-5.45,7.74c-1.2,0.73-1.59,1.01-1.47,1.55
	c0.15,0.81,0.7,0.77,1.74,0.62c1.43-0.23,9.05-3.67,9.36-11.95C199.45,122.5,189.35,110.9,171.45,111.02L171.45,111.02z
	 M38.71,155.76c-5.69,6.23-13.69,8.59-17.09,6.57c-3.67-2.13-2.24-11.29,4.76-17.91c4.25-4.02,9.78-7.74,13.42-10.02
	c0.81-0.5,2.05-1.24,3.52-2.13c0.23-0.15,0.39-0.23,0.39-0.23c0.27-0.15,0.58-0.35,0.89-0.54
	C47.18,140.95,44.71,149.23,38.71,155.76L38.71,155.76z M80.29,127.49c-1.97,4.83-6.15,17.25-8.66,16.55
	c-2.17-0.58-3.48-9.98-0.43-19.26c1.55-4.68,4.83-10.25,6.77-12.42c3.13-3.48,6.54-4.64,7.39-3.21
	C86.36,111.02,81.53,124.48,80.29,127.49z M114.6,143.89c-0.85,0.43-1.62,0.73-1.97,0.5c-0.27-0.15,0.35-0.73,0.35-0.73
	s4.29-4.6,5.99-6.73c0.97-1.24,2.13-2.67,3.36-4.29v0.46C122.33,138.67,116.99,142.38,114.6,143.89L114.6,143.89z M141.05,137.86
	c-0.62-0.46-0.54-1.9,1.55-6.38c0.81-1.78,2.67-4.76,5.88-7.58c0.39,1.16,0.62,2.28,0.58,3.33
	C149.02,134.18,144.07,136.77,141.05,137.86z"/>
</svg>
