<?xml version="1.0" encoding="utf-8"?>
<!-- Generator: Adobe Illustrator 23.0.1, SVG Export Plug-In . SVG Version: 6.00 Build 0)  -->
<svg version="1.1" id="Layer_1" xmlns="http://www.w3.org/2000/svg" xmlns:xlink="http://www.w3.org/1999/xlink" x="0px" y="0px"
	 viewBox="0 0 200 200" style="enable-background:new 0 0 200 200;" xml:space="preserve">
<style type="text/css">
	.st0{fill:#FFFFFF;}
	.st1{fill:#8ED6FB;}
	.st2{fill:#1C78C0;}
</style>
<g>
	<path class="st0" d="M100,3l85.73,48.49v97.01L100,197l-85.73-48.49V51.49L100,3z"/>
	<path class="st1" d="M170.43,145.16l-67.59,38.24v-29.77l42.11-23.17L170.43,145.16L170.43,145.16z M175.06,140.97V61.02
		l-24.72,14.29v51.4L175.06,140.97L175.06,140.97z M29.31,145.16L96.9,183.4v-29.77l-42.14-23.17L29.31,145.16L29.31,145.16z
		 M24.68,140.97V61.02L49.4,75.31v51.4L24.68,140.97z M27.58,55.84L96.9,16.62V45.4L52.48,69.84l-0.35,0.2L27.58,55.84L27.58,55.84z
		 M172.15,55.84l-69.32-39.21V45.4l44.42,24.41l0.35,0.2L172.15,55.84L172.15,55.84z"/>
	<path class="st2" d="M96.9,146.84l-41.56-22.86V78.72l41.56,23.99V146.84z M102.84,146.84L144.4,124V78.72l-41.56,23.99V146.84z
		 M58.15,73.49l41.72-22.93l41.72,22.93L99.87,97.57L58.15,73.49z"/>
</g>
</svg>
