<?xml version="1.0" encoding="utf-8"?>
<!-- Generator: Adobe Illustrator 23.0.1, SVG Export Plug-In . SVG Version: 6.00 Build 0)  -->
<svg version="1.1" id="Layer_1" xmlns="http://www.w3.org/2000/svg" xmlns:xlink="http://www.w3.org/1999/xlink" x="0px" y="0px"
	 viewBox="0 0 200 200" style="enable-background:new 0 0 200 200;" xml:space="preserve">
<style type="text/css">
	.st0{fill:#FFFFFF;}
</style>
<g>
	<path class="st0" d="M100,5C47.62,5,5,47.62,5,100c0,52.38,42.62,95,95,95c52.38,0,95-42.62,95-95C195,47.62,152.38,5,100,5z
		 M100,9.33c49.98,0,90.61,40.69,90.61,90.67c0,49.98-40.63,90.61-90.61,90.61c-49.98,0-90.61-40.63-90.61-90.61
		C9.39,50.02,50.02,9.33,100,9.33z M100,18.54c-28.47,0-53.53,14.57-68.1,36.69c1.91,0.06,3.76,0.12,5.28,0.12
		c8.52,0,21.67-1.07,21.67-1.07c4.39-0.26,4.92,6.19,0.53,6.71c0,0-4.41,0.57-9.32,0.83l29.69,88.23l17.81-53.5L84.86,61.82
		c-4.39-0.26-8.55-0.83-8.55-0.83c-4.39-0.26-3.86-6.97,0.53-6.71c0,0,13.43,1.07,21.43,1.07c8.52,0,21.73-1.07,21.73-1.07
		c4.39-0.26,4.93,6.19,0.53,6.71c0,0-4.42,0.57-9.32,0.83l29.45,87.58l8.13-27.19c3.52-11.28,6.23-19.33,6.23-26.3
		c0-10.08-3.61-17.08-6.71-22.5c-4.13-6.72-8.02-12.4-8.02-19.12c0-7.49,5.66-14.43,13.66-14.43c0.36,0,0.72,0.04,1.07,0.06
		C140.54,26.63,121.22,18.54,100,18.54z M171.49,60.87c0.35,2.6,0.59,5.43,0.59,8.43c0,8.27-1.58,17.53-6.23,29.15l-24.88,71.96
		c24.23-14.12,40.49-40.35,40.49-70.42C181.46,85.83,177.85,72.48,171.49,60.87z M25.54,66.81c-4.52,10.13-7.01,21.38-7.01,33.19
		c0,32.26,18.71,60.12,45.9,73.33L25.54,66.81z M101.43,107.12L76.96,178.2c7.3,2.15,15.04,3.27,23.04,3.27
		c9.49,0,18.6-1.59,27.07-4.57c-0.21-0.35-0.43-0.73-0.59-1.13L101.43,107.12z"/>
</g>
</svg>
