<?xml version="1.0" encoding="utf-8"?>
<!-- Generator: Adobe Illustrator 21.0.0, SVG Export Plug-In . SVG Version: 6.00 Build 0)  -->
<svg version="1.1"
	 id="Layer_1" xmlns:cc="http://creativecommons.org/ns#" xmlns:dc="http://purl.org/dc/elements/1.1/" xmlns:inkscape="http://www.inkscape.org/namespaces/inkscape" xmlns:rdf="http://www.w3.org/1999/02/22-rdf-syntax-ns#" xmlns:sodipodi="http://sodipodi.sourceforge.net/DTD/sodipodi-0.dtd" xmlns:svg="http://www.w3.org/2000/svg"
	 xmlns="http://www.w3.org/2000/svg" xmlns:xlink="http://www.w3.org/1999/xlink" x="0px" y="0px" viewBox="0 0 800 800"
	 style="enable-background:new 0 0 800 800;" xml:space="preserve">
<g transform="translate(0,-952.36218)">
	<path d="M321.2,1689.1c-71.1,71.1-186.8,71.1-257.9,0c-71.1-71.1-71.1-186.8,0-257.9l143.3-143.3c71.1-71.1,186.8-71.1,257.9,0
		c10.5,10.5,30.3,26.2,30.2,42.9c-0.1,16.8-13.7,30.3-30.5,30.3c-16.7-0.1-30.2-13.6-42.7-30.2c-48-48-123.9-48-171.9,0
		l-143.3,143.3c-48,48-48,123.9,0,171.9c48,48,123.9,48,171.9,0L414.3,1510c11.7-12,31-12.3,43-0.6c12,11.7,12.3,31,0.6,43
		c-0.2,0.2-0.4,0.4-0.6,0.6L321.2,1689.1L321.2,1689.1z M593.4,1416.8c-71.1,71.1-186.8,71.1-257.9,0c-11.9-11.9-11.9-31.1,0-43
		c11.9-11.9,31.1-11.9,43,0c0,0,0,0,0,0c48,48,123.9,48,171.9,0l143.3-143.3c48-48,48-123.9,0-171.9c-48-48-123.9-48-171.9,0
		l-136.1,136.1c-11.7,12-30.9,12.3-43,0.6c-12-11.7-12.3-30.9-0.6-43c0.2-0.2,0.4-0.4,0.6-0.6l136.1-136.1
		c71.1-71.1,186.8-71.1,257.9,0c71.1,71.1,71.1,186.8,0,257.9L593.4,1416.8L593.4,1416.8z"/>
</g>
</svg>
